<svg width="749" height="538" viewBox="0 0 749 538" fill="none" xmlns="http://www.w3.org/2000/svg">
<path fill-rule="evenodd" clip-rule="evenodd" d="M374.847 7.87903L375.125 15.7581L383.725 15.972C469.196 18.0979 547.426 40.5861 609.586 80.899C697.056 137.628 739.319 221.498 722.578 305.133C710.984 363.062 672.173 416 612.78 454.898C604.526 460.304 595.622 465.968 592.994 467.486C587.827 470.471 558.494 485.157 557.7 485.157C557.435 485.157 554.946 486.195 552.172 487.463C540.572 492.766 518.675 500.203 494.093 507.189C487.847 508.963 471.183 512.456 453.481 515.7C447.908 516.722 429.509 518.978 413.825 520.563C397.304 522.232 346.687 521.941 328.779 520.073C310.536 518.17 300.14 516.847 293.901 515.634C291.273 515.124 286.758 514.254 283.868 513.702C278.193 512.618 274.876 511.916 263.801 509.458C252.475 506.945 231.838 500.894 218.857 496.28C203.02 490.653 203.912 491.008 187.355 483.76C178.044 479.684 154.667 467.644 150.896 464.982C149.501 463.997 148.119 463.191 147.823 463.191C146.795 463.191 130.427 452.342 121.421 445.69C112.259 438.924 95.6828 425.016 92.4214 421.36C90.6928 419.421 90.7129 419.299 93.377 415.574C94.8734 413.481 107.903 395.727 122.33 376.119C136.758 356.512 154.367 332.519 161.462 322.801C208.156 258.851 229.686 230.052 254.636 198.169C264.09 186.088 272.063 175.989 272.352 175.726C272.642 175.464 274.583 173.1 276.668 170.473C293.684 149.028 321.982 118.676 333.806 109.186C340.518 103.8 348.888 99.3273 352.191 99.3636C354.601 99.3894 356.769 101.036 358.427 104.099C361.949 110.608 360.153 142.396 354.567 172.384C347.828 208.568 346.558 215.014 344.074 225.627C342.482 232.429 338.679 251.301 336.424 263.589C334.807 272.396 333.876 276.961 331.257 288.898C329.876 295.201 328.279 302.507 327.71 305.133C327.141 307.76 326.343 311.413 325.937 313.251C325.53 315.089 323.846 322.825 322.195 330.442C320.543 338.058 318.773 345.794 318.259 347.632C317.426 350.615 310.283 386.603 307.832 400.159C307.311 403.048 306.643 409.065 306.349 413.529C305.91 420.201 306.121 422.242 307.535 424.99C309.194 428.212 309.426 428.322 314.001 428.028C327.167 427.182 345.389 415.266 360.411 397.681C378.511 376.491 388.597 359.817 418.127 302.268C423.787 291.237 430.449 278.345 432.932 273.617C435.413 268.89 440.573 259.005 444.398 251.651C448.222 244.298 453.832 233.553 456.863 227.775C459.894 221.998 465.865 210.407 470.132 202.02C477.571 187.395 486.235 172.899 487.552 172.873C487.896 172.867 487.999 174.473 487.78 176.442C487.563 178.413 486.956 187.115 486.432 195.782C485.908 204.449 484.851 219.491 484.08 229.208C482.32 251.428 482.309 263.633 484.03 284.122C488.746 340.281 504.057 379.541 532.286 407.87C549.847 425.493 556.563 429.294 565.331 426.576C584.669 420.581 622.145 400.653 620.929 397.01C620.727 396.402 618.863 395.413 616.79 394.812C612.004 393.427 601.914 388.363 596.339 384.546C586.308 377.681 568.356 358.512 560.737 346.533C547.298 325.4 537.518 292.321 534.174 256.694C532.643 240.374 533.528 189.875 536.045 149.94C538.15 116.543 538.514 102.189 537.258 102.189C535.689 102.189 524.011 107.136 515.464 111.422C500.361 118.995 489.53 128.423 477.651 144.334C472.1 151.771 465.426 161.969 465.426 163.016C465.426 163.358 464.843 164.316 464.131 165.145C462.864 166.62 458.365 174.732 450.85 189.097C448.788 193.036 445.69 198.838 443.966 201.99C442.241 205.141 439.548 210.083 437.983 212.972C436.417 215.861 433.618 221.019 431.762 224.433C429.907 227.847 426.879 233.434 425.034 236.848C421.926 242.599 415.402 254.519 409.091 265.977C395.969 289.799 372.28 329.55 367.305 336.093C365.658 338.259 366.555 321.376 368.901 306.088C369.384 302.937 370.456 295.416 371.281 289.375C372.106 283.335 373.198 275.814 373.708 272.662C374.218 269.51 376.361 255.469 378.472 241.457C380.583 227.447 382.515 214.769 382.764 213.284C384.025 205.803 388.173 179.78 389.513 170.951C391.482 157.976 392.051 154.438 397.425 121.767C400.049 105.81 400.784 100.904 403.325 82.427C404.563 73.4258 404.538 53.8572 403.285 51.5193C400.836 46.9456 390.525 45.1425 382.577 47.8978C374.259 50.781 358.643 60.4068 346.609 70.066C307.45 101.503 256.732 157.734 190.15 243.534C160.388 281.886 103.281 359.318 76.5982 397.496C75.2355 399.447 73.9054 401.03 73.6426 401.016C72.3898 400.947 63.0759 388.922 55.9655 378.193C38.2741 351.499 28.0027 325.443 23.4007 295.583C22.6725 290.855 22.0686 285.432 22.0591 283.531C22.0428 280.283 21.8259 280.039 18.4585 279.483C12.7853 278.546 1.49712 278.774 0.42306 279.848C-1.18516 281.455 2.04084 304.509 5.89943 318.981C13.8068 348.639 29.2946 378.226 51.0367 405.208C62.6574 419.631 62.1222 418.344 58.5245 423.234C50.8513 433.66 48.8914 436.392 44.6735 442.553C39.5966 449.965 38.8465 452.088 39.4915 457.213C39.9645 460.973 43.4122 470.606 44.771 471.964C45.9148 473.107 56.8934 461.732 68.1719 447.715C73.5461 441.037 78.2618 435.555 78.6526 435.534C79.0425 435.512 83.4467 438.928 88.4386 443.123C111.776 462.734 138.165 479.625 167.03 493.431C173.989 496.76 179.908 499.483 180.185 499.483C180.461 499.483 182.725 500.392 185.216 501.503C194.293 505.555 201.643 508.329 217.456 513.671C252.233 525.419 289.274 532.846 333.08 536.851C351.445 538.531 402.334 538.205 420.935 536.289C442.442 534.075 466.241 530.601 476.415 528.192C478.517 527.694 485.182 526.151 491.226 524.763C512.898 519.787 542.059 510.579 557.638 503.793C559.215 503.106 563.945 501.131 568.149 499.402C576.358 496.029 600.926 483.641 606.961 479.834C608.982 478.56 610.882 477.517 611.185 477.517C612.493 477.517 639.806 458.908 649.851 451.173C663.596 440.59 692.14 412.186 701.118 400.159C720.944 373.6 734.287 347.284 741.215 321.082C751.045 283.906 750.532 248.701 739.625 212.007C728.061 173.103 704.151 136.511 668.962 103.863C656.47 92.2725 656.407 92.219 643.627 82.6009C607.903 55.7147 561.424 33.0107 514.638 19.5935C511.484 18.6891 507.829 17.5908 506.515 17.1524C503.804 16.2489 489.582 12.8213 482.252 11.3057C462.211 7.16179 444.12 4.23175 430.07 2.85459C415.697 1.44592 393.519 0.128927 382.97 0.0572997L374.569 0L374.847 7.87903ZM345.98 5.61751L342.635 6.20772L342.96 11.4604C343.139 14.3494 343.64 17.0836 344.071 17.5373C345.553 19.0892 346.809 17.1562 346.327 14.0695C345.792 10.6563 347.855 6.9154 349.657 8.02802C350.263 8.40239 350.764 10.0794 350.772 11.7555C350.792 15.7781 352.187 18.054 353.704 16.5383C355.393 14.8498 353.936 6.91922 351.718 5.73307C350.734 5.20589 349.792 4.83152 349.626 4.90124C349.46 4.97 347.819 5.2928 345.98 5.61751ZM330.767 7.77397C328.986 9.43287 328.678 10.4653 329.132 13.2616C330.057 18.9584 334.293 20.7357 338.468 17.1782L340.724 15.2567L337.187 15.5069C335.241 15.6454 333.62 15.3283 333.583 14.803C333.547 14.2778 335.032 13.7143 336.882 13.5519C340.925 13.1957 341.253 11.4251 337.9 8.07481C335.023 5.19825 333.598 5.13808 330.767 7.77397ZM319.921 7.72718C318.991 8.26868 317.358 8.43485 316.292 8.09677C315.227 7.75869 313.775 7.96307 313.067 8.54946C312.36 9.1368 311.413 9.5513 310.963 9.47107C308.206 8.97637 307.69 9.67162 308.246 13.1317C309.362 20.07 309.719 21.0107 311.229 21.0107C312.493 21.0107 312.642 20.2792 312.106 16.7064C311.585 13.2358 311.758 12.2875 312.994 11.8128C315.066 11.0182 315.473 11.596 316.091 16.2012C316.488 19.158 317.006 20.07 318.161 19.8437C319.376 19.6059 319.633 18.5869 319.377 15.0236C319.085 10.9733 319.258 10.5054 321.049 10.5054C322.479 10.5054 323.05 11.1156 323.059 12.6542C323.081 16.3989 324.176 19.1007 325.669 19.1007C326.858 19.1007 327 18.2087 326.471 14.0867C326.097 11.1815 325.165 8.57047 324.254 7.87903C322.384 6.45985 322.115 6.4503 319.921 7.72718ZM287.69 9.14253C287.69 10.0326 288.34 10.5197 289.283 10.3363C291.68 9.87218 292.009 7.64027 289.68 7.64027C288.507 7.64027 287.69 8.25722 287.69 9.14253ZM333.259 9.21225C332.012 10.4576 332.608 11.4604 334.592 11.4604C335.705 11.4604 336.416 10.96 336.205 10.3268C335.74 8.93052 334.144 8.32693 333.259 9.21225ZM296.916 11.2971C295.126 13.274 294.851 17.3682 296.324 20.1187C297.895 23.0526 305.846 22.4309 305.846 19.3738C305.846 18.3853 305.328 18.1533 304.174 18.627C301.462 19.7396 299.869 19.6584 299.419 18.3844C299.173 17.6863 299.792 17.1906 300.91 17.1906C305.848 17.1906 307.444 14.1574 304.098 11.1309C301.806 9.05754 298.883 9.12534 296.916 11.2971ZM288.669 14.017C288.682 15.5002 289.124 18.5878 289.653 20.878C290.356 23.9255 290.309 25.4106 289.479 26.4105C287.801 28.4314 289.73 29.9432 291.934 28.333C293.509 27.1812 293.6 26.2978 292.838 19.5047C292.161 13.4832 291.652 11.8921 290.318 11.638C289.041 11.3955 288.651 11.958 288.669 14.017ZM279.181 13.3122C276.634 13.954 274.452 16.693 275.584 17.8247C275.983 18.224 277.144 18.0301 278.165 17.3931C280.267 16.0809 281.957 15.887 281.957 16.9576C281.957 17.3549 280.643 18.2602 279.036 18.9708C276.69 20.0089 276.174 20.7586 276.409 22.7861C276.72 25.4717 279.628 26.5967 282.743 25.2377C283.624 24.8528 284.776 24.4546 285.301 24.3524C285.827 24.2502 286.533 24.1012 286.87 24.021C287.208 23.9417 286.993 21.6688 286.392 18.9708C285.217 13.6885 283.387 12.2521 279.181 13.3122ZM299.157 13.848C299.157 15.4544 299.333 15.5193 301.462 14.7027C303.211 14.0323 302.556 12.4154 300.534 12.4154C299.776 12.4154 299.157 13.0601 299.157 13.848ZM265.393 16.544L261.729 17.5669L262.364 21.7986C263.205 27.4009 263.745 28.651 265.329 28.651C266.302 28.651 266.592 27.4601 266.421 24.1499C266.242 20.6622 266.536 19.5782 267.725 19.3318C268.835 19.1016 269.601 20.2276 270.487 23.3897C272.027 28.8869 273.949 28.5278 273.512 22.8243C273.225 19.0653 271.138 15.08 269.625 15.4009C269.313 15.4677 267.408 15.9815 265.393 16.544ZM239.606 17.8677C238.208 18.2249 237.897 19.1819 238.019 22.7651C238.245 29.416 238.112 29.5144 235.548 24.5921C233.096 19.8838 231.833 19.2267 229.119 21.2495C227.634 22.3573 227.683 22.9609 229.8 29.606C231.239 34.1253 232.644 36.8824 233.608 37.0773C235.415 37.443 235.495 36.6561 234.067 32.5647C232.557 28.2327 233.584 27.9424 236.088 31.9927C238.985 36.6752 241.187 36.127 241.87 30.5525L242.395 26.2634L243.364 29.6041C243.929 31.5524 245.044 33.0824 246.04 33.2743C247.506 33.557 247.651 33.154 247.066 30.4111C245.849 24.7019 243.279 17.799 242.3 17.6099C241.775 17.5077 240.562 17.6232 239.606 17.8677ZM250.184 20.1321C249.265 20.6679 248.512 21.7289 248.512 22.491C248.512 24.0602 250.957 24.3744 251.856 22.9208C252.541 21.813 255.204 21.622 255.195 22.682C255.191 23.0755 253.901 24.1308 252.328 25.0247C249.252 26.7744 248.595 29.6032 250.831 31.4588C251.89 32.3365 253.12 32.2754 256.325 31.1866C260.858 29.6481 261.128 28.5278 258.499 22.2045C257.473 19.7339 256.664 19.1064 254.533 19.1293C253.06 19.1456 251.103 19.5963 250.184 20.1321ZM280.045 21.4883C279.052 22.6849 279.189 22.9208 280.884 22.9208C282.05 22.9208 282.912 22.3115 282.912 21.4883C282.912 20.7004 282.535 20.0557 282.073 20.0557C281.613 20.0557 280.7 20.7004 280.045 21.4883ZM253.36 27.1335C252.595 28.0551 252.559 28.6768 253.243 29.0999C254.578 29.9241 256.156 28.8735 256.156 27.1621C256.156 25.4087 254.804 25.3943 253.36 27.1335ZM213.633 30.7473C211.06 32.2056 210.181 33.7003 211.262 34.7804C211.816 35.3343 212.854 35.0411 213.994 34.0097C215.246 32.877 216.04 32.6832 216.486 33.4023C216.844 33.983 216.003 35.3496 214.617 36.4403C210.069 40.015 213.057 44.6937 218.298 42.202C219.412 41.6729 221.123 40.9805 222.103 40.6644C223.356 40.2585 223.607 39.7399 222.951 38.9062C222.438 38.2558 221.744 36.5721 221.408 35.1643C220.728 32.3136 218.394 29.5908 216.671 29.6347C216.051 29.6509 214.685 30.1514 213.633 30.7473ZM205.266 33.9887C204.957 34.2981 204.919 36.1251 205.182 38.0476L205.661 41.544L202.959 38.4516C199.449 34.4366 197.468 35.3955 198.341 40.6883L198.956 44.4091L196.082 41.0664C194.103 38.7648 192.897 38.0304 192.212 38.7066C190.917 39.9873 197.667 48.5969 200.017 48.6609C201.314 48.6962 201.695 47.9054 201.72 45.1253L201.753 41.544L203.546 43.6928C206.932 47.7498 208.378 46.5359 208.378 39.6339C208.378 35.0975 208.035 33.4262 207.104 33.4262C206.403 33.4262 205.576 33.6793 205.266 33.9887ZM215.505 38.2653C215.159 38.825 215.115 39.5231 215.408 39.8153C216.193 40.6013 218.889 39.3751 218.889 38.2309C218.889 36.935 216.312 36.9608 215.505 38.2653ZM183.869 42.0033C181.092 43.1389 180.372 44.5399 181.092 47.4069C181.624 49.5252 182.128 49.7802 185.243 49.5013C187.193 49.3265 189.004 49.614 189.266 50.1393C189.529 50.6645 188.346 51.229 186.639 51.3932C182.69 51.7743 182.324 54.4369 186.219 54.4369C189.066 54.4369 193.089 51.4075 193.089 49.2635C193.089 47.044 190.377 45.5723 187.39 46.1692C185.835 46.4796 184.302 46.3134 183.984 45.7996C183.667 45.2848 184.742 44.5972 186.374 44.2706C188.006 43.9449 189.181 43.1981 188.985 42.6107C188.519 41.2097 186.421 40.9604 183.869 42.0033ZM172.066 43.3518C172.066 44.0834 172.739 44.9401 173.56 45.2552C174.382 45.5704 174.796 46.2446 174.482 46.7537C173.616 48.1537 178.58 57.302 180.205 57.302C180.984 57.302 181.622 57.0594 181.622 56.7634C181.622 55.1198 176.707 45.8416 175.837 45.8416C175.239 45.8416 175.059 45.0375 175.411 43.9315C175.884 42.4417 175.583 42.0215 174.041 42.0215C172.955 42.0215 172.066 42.6203 172.066 43.3518ZM165.714 50.5986C162.926 51.738 162.216 53.1362 162.947 56.0471C163.526 58.3535 163.828 58.4671 167.892 57.9104C171.116 57.4691 172.121 57.62 171.829 58.5034C171.614 59.1557 170.398 59.8338 169.125 60.0095C165.982 60.4431 164.655 61.8604 166.668 62.632C169.135 63.5785 173.929 61.1699 174.557 58.6677C175.372 55.4225 174.32 54.4369 170.042 54.4369C167.737 54.4369 166.454 54.0578 166.811 53.4819C167.135 52.9566 168.272 52.5268 169.335 52.5268C170.458 52.5268 171.103 52.0254 170.872 51.333C170.366 49.8145 168.339 49.5261 165.714 50.5986ZM153.168 56.8789C150.809 58.5302 150.316 61.1221 152.36 61.1221C153.084 61.1221 154.208 60.4823 154.857 59.7001C155.507 58.9179 156.455 58.535 156.963 58.8501C157.473 59.1643 156.683 60.679 155.21 62.2166C153.069 64.4504 152.737 65.3405 153.557 66.648C155.09 69.0938 158.249 69.1444 161.456 66.774L164.313 64.6634L161.962 60.0277C159.39 54.9545 157.091 54.1313 153.168 56.8789ZM135.761 62.7935C135.764 63.7132 136.637 65.7541 137.702 67.3299C138.766 68.9057 140.317 71.5922 141.149 73.2988C141.981 75.0055 143.307 76.4027 144.098 76.4027C145.613 76.4027 145.498 75.4964 143.277 69.9696C142.265 67.4521 142.262 66.6547 143.262 65.6719C144.537 64.4189 144.661 64.5259 149.289 70.8778C150.741 72.8691 150.939 72.912 151.551 71.3649C152.402 69.217 147.835 62.0772 145.611 62.0772C144.74 62.0772 143.27 62.7619 142.344 63.5995C140.793 65.0024 140.562 64.9642 139.412 63.122C137.892 60.6914 135.753 60.4985 135.761 62.7935ZM157.414 62.7142C156.251 63.8774 156.756 65.8973 158.21 65.8973C159.006 65.8973 159.644 65.0483 159.644 63.9872C159.644 62.0848 158.625 61.5032 157.414 62.7142ZM128.736 71.4642C127.009 73.3704 126.605 76.4027 128.077 76.4027C128.583 76.4027 129.458 75.5432 130.021 74.4926C131.046 72.5797 132.888 71.872 132.888 73.3915C132.888 73.8365 132.028 75.1917 130.977 76.4027C128.75 78.9689 128.773 78.8476 130.055 81.2409C131.332 83.6256 134.041 83.5979 136.232 81.1778C137.183 80.1273 138.54 79.2678 139.247 79.2678C139.954 79.2678 140.532 78.6231 140.532 77.8352C140.532 77.0473 140.2 76.4027 139.794 76.4027C139.388 76.4027 138.246 74.8985 137.255 73.0601C135.184 69.217 131.411 68.5093 128.736 71.4642ZM117.582 73.3599L115.441 75.0924L117.422 79.5677C118.511 82.0288 119.186 84.0429 118.922 84.0429C118.658 84.0429 116.724 82.6629 114.624 80.9763C111.653 78.5907 110.46 78.1284 109.242 78.8963C106.591 80.5676 106.882 81.5761 111.944 88.2594C115.267 92.6478 117.157 94.4165 117.817 93.7575C118.476 93.0986 118.187 91.9172 116.917 90.0854C113.538 85.2109 113.353 84.7038 115.345 85.7697C116.334 86.2988 117.957 87.6301 118.952 88.7293C122.676 92.8417 124.775 90.5582 122.711 84.6389C120.896 79.432 121.042 79.3279 124.412 83.4145C126.311 85.7171 127.736 86.7084 128.315 86.1297C128.895 85.5509 127.576 82.7365 124.706 78.4226C122.22 74.6855 120.08 71.6275 119.953 71.6275C119.826 71.6275 118.759 72.4068 117.582 73.3599ZM132.959 77.7502C132.193 78.6718 132.157 79.2936 132.841 79.7167C134.176 80.5408 135.755 79.4903 135.755 77.7789C135.755 76.0254 134.402 76.0111 132.959 77.7502ZM96.7358 94.3096C95.657 95.2283 94.6412 96.7955 94.4807 97.7916C94.0707 100.322 96.582 100.941 97.2289 98.4687C97.5184 97.3628 98.3498 96.4584 99.077 96.4584C100.813 96.4584 100.76 97.8346 98.9652 99.3235C97.2394 100.755 97.1075 103.293 98.6785 104.863C100.544 106.727 102.619 106.193 105.542 103.098L108.291 100.188L106.027 97.6063C101.169 92.07 99.8968 91.6183 96.7358 94.3096ZM100.728 100.797C100.417 101.608 100.42 102.529 100.735 102.844C101.561 103.669 104.3 101.18 103.676 100.171C102.86 98.8517 101.352 99.1726 100.728 100.797ZM86.3039 103.196C82.8772 106.406 82.6842 107.079 84.3096 110.131C86.7635 114.734 91.8156 116.081 93.9312 112.694C95.4362 110.285 96.5762 110.245 96.5762 112.6C96.5762 113.77 95.5299 114.782 93.6379 115.441C90.5781 116.506 90.6058 118.424 93.6809 118.424C96.1453 118.424 100.481 113.077 99.7029 110.997C98.8352 108.675 91.5165 100.279 90.365 100.283C89.8395 100.285 88.0115 101.596 86.3039 103.196ZM87.3359 106.566C86.6354 108.388 90.1883 112.257 91.7019 111.321C93.0951 110.461 93.0425 107.634 91.6073 106.2C90.0076 104.601 88.0248 104.771 87.3359 106.566ZM77.7037 111.36C76.5207 112.708 75.5537 114.152 75.5537 114.57C75.5537 114.988 77.4601 116.89 79.7898 118.799C84.5953 122.734 86.8763 121.805 82.8141 117.567C80.7826 115.448 80.4243 114.379 80.9173 111.914C81.6512 108.247 80.5934 108.065 77.7037 111.36ZM69.031 119.679C67.8881 120.895 66.9536 122.614 66.9536 123.499C66.9536 125.751 69.5623 125.516 70.2981 123.199C70.6316 122.149 71.3053 121.289 71.7955 121.289C73.0138 121.289 72.9211 123.538 71.6502 124.809C69.8451 126.613 71.0195 130.329 73.5059 130.681C75.1151 130.908 76.5284 130.089 78.4491 127.816L81.1381 124.632L77.6741 121.05C73.6579 116.898 71.9073 116.62 69.031 119.679ZM73.9722 125.628C73.6607 126.439 73.6464 127.341 73.9388 127.634C74.7759 128.47 76.5093 127.052 76.5093 125.531C76.5093 123.698 74.6861 123.769 73.9722 125.628ZM61.6273 128.089C61.2536 128.693 62.2723 130.182 63.9598 131.501C67.0348 133.906 68.0162 137.525 65.5938 137.525C64.8456 137.525 62.9555 136.45 61.3941 135.137C59.8327 133.824 58.0486 132.75 57.4285 132.75C55.1408 132.75 57.0472 136.091 60.8676 138.774C64.1786 141.1 65.1275 141.367 66.8341 140.454C67.9512 139.856 68.8647 138.76 68.8647 138.017C68.8647 137.273 69.6168 136.24 70.537 135.721C72.0324 134.877 71.8098 134.367 68.4319 130.899C64.5675 126.931 62.7959 126.199 61.6273 128.089ZM49.4141 135.317C47.9645 136.766 49.1322 138.433 54.5321 142.625C60.622 147.35 62.5073 148.069 62.0066 145.474C61.6397 143.569 50.3047 134.427 49.4141 135.317ZM48.7615 144.968C44.6927 146.18 43.8346 151.401 47.1867 154.549C51.2173 158.333 57.3979 156.221 57.3979 151.059C57.3979 148.35 54.7577 148.35 54.3592 151.06C54.191 152.2 53.5164 153.311 52.8589 153.526C51.1848 154.077 51.3654 151.378 53.0978 149.94C56.3965 147.204 53.2737 143.625 48.7615 144.968ZM48.2808 149.049C47.9339 149.609 47.8804 150.296 48.1604 150.577C48.8456 151.261 50.7089 150.056 50.7089 148.929C50.7089 147.708 49.0596 147.79 48.2808 149.049ZM36.3563 152.817C35.2115 153.524 35.1857 154.367 36.1938 158.135C36.8532 160.597 37.201 162.804 36.9669 163.038C36.7328 163.272 35.502 162.783 34.232 161.951C31.9482 160.455 30.6401 160.747 30.6439 162.754C30.6448 163.322 32.6869 165.055 35.1828 166.602C37.6778 168.149 40.6831 170.022 41.8603 170.764C43.7266 171.94 44.0725 171.926 44.5617 170.651C44.8771 169.831 44.2521 168.318 43.1379 167.204C40.1843 164.252 40.6984 163.311 45.2622 163.311C49.0759 163.311 51.6645 162.075 51.6645 160.255C51.6645 159.834 49.1303 159.491 46.0333 159.491C40.1977 159.491 39.2421 158.815 39.2421 154.693C39.2421 152.461 38.1174 151.729 36.3563 152.817ZM25.8861 180.681C24.8235 182.88 23.953 185.023 23.953 185.443C23.953 186.239 29.4112 188.752 33.2144 189.705C36.8417 190.615 35.9052 187.415 32.0753 185.815C29.7944 184.863 28.7308 183.796 28.7308 182.46C28.7308 180.125 29.5975 180.04 34.1183 181.927C40.1613 184.451 41.3138 181.597 35.458 178.61C29.7657 175.708 28.1183 176.065 25.8861 180.681ZM20.1059 192.009C18.8799 194.298 19.221 199.124 20.6085 199.124C21.1341 199.124 21.6998 197.942 21.866 196.498C22.2922 192.8 23.953 193.219 23.953 197.023C23.953 200.266 25.3548 202.467 27.4207 202.467C29.2172 202.467 31.7686 199.516 31.2163 198.077C30.9468 197.374 31.137 196.544 31.6396 196.234C33.5708 195.041 32.4107 192.882 29.092 191.497C24.3218 189.505 21.3558 189.674 20.1059 192.009ZM26.3419 195.782C25.6453 196.909 26.5493 198.647 27.8316 198.647C28.3266 198.647 28.7308 197.787 28.7308 196.737C28.7308 194.723 27.3405 194.167 26.3419 195.782ZM12.4862 201.967C12.4862 204.115 15.5488 207.242 17.6529 207.242C18.8588 207.242 21.2659 207.737 23.0012 208.342C25.737 209.295 26.3276 209.207 27.4437 207.682C29.3577 205.066 29.0118 204.099 26.3964 204.755C23.694 205.433 19.1751 203.666 19.1751 201.93C19.1751 201.196 17.9062 200.782 15.8307 200.841C13.9912 200.893 12.4862 201.399 12.4862 201.967ZM12.4823 212.981C11.6328 215.032 11.5105 216.548 12.1192 217.512C13.4016 219.543 14.8713 219.067 14.8961 216.614C14.9334 212.878 17.1245 213.597 17.4417 217.45C17.7169 220.791 17.9769 221.09 20.6085 221.09C23.0844 221.09 23.5192 220.7 23.7982 218.225C23.9769 216.649 24.5607 214.83 25.0968 214.182C26.2225 212.822 22.8025 211.18 17.1847 210.383C14.0428 209.938 13.6548 210.153 12.4823 212.981ZM19.1751 216.872C19.1751 219.199 21.4083 218.871 21.8727 216.475C22.0562 215.532 21.5688 214.883 20.6783 214.883C19.7924 214.883 19.1751 215.699 19.1751 216.872ZM9.61946 224.377C9.61946 225.397 10.0495 226.496 10.575 226.82C12.8646 228.235 11.2774 229.19 7.61181 228.604C4.15552 228.052 3.7322 228.184 4.02938 229.725C4.3581 231.43 7.88797 232.729 16.6773 234.378C19.6749 234.939 20.1307 234.782 20.1307 233.183C20.1307 232.114 19.2879 231.121 18.1231 230.816C15.7236 230.189 16.5827 228.253 19.2611 228.253C21.0939 228.253 22.8149 225.843 21.7466 224.774C21.4532 224.482 19.5946 224.777 17.6157 225.43C14.3017 226.522 13.909 226.455 12.6572 224.569C10.9649 222.022 9.61946 221.936 9.61946 224.377ZM3.22288 236.51C2.49569 238.403 2.84829 238.611 8.62853 239.707C15.9319 241.091 19.1751 240.946 19.1751 239.236C19.1751 238.448 18.8522 237.802 18.4585 237.802C18.0648 237.801 14.5941 237.201 10.7461 236.468C4.68203 235.312 3.6806 235.317 3.22288 236.51ZM277.895 443.146C274.569 445.214 276.515 449.821 280.714 449.821C282.875 449.821 282.912 450 282.912 460.326C282.912 470.579 282.861 470.832 280.762 470.846C277.26 470.87 275.891 472.243 276.591 475.03L277.217 477.523L286.992 476.926C297.553 476.279 300.467 475.04 298.566 472.007C297.967 471.051 296.059 470.229 294.044 470.058L290.557 469.761V459.846V449.931L294.618 449.636C297.993 449.393 298.731 448.98 298.984 447.196C299.208 445.62 298.636 444.8 296.83 444.114C292.927 442.631 279.803 441.96 277.895 443.146ZM303.043 443.97C302.446 445.087 302.024 452.032 302.024 460.741C302.024 474.702 302.15 475.733 304.089 477.671L306.153 479.733L307.911 477.564C308.946 476.287 309.668 473.864 309.668 471.67V467.944L314.945 472.24C321.24 477.365 324.714 478.538 326.474 476.132C327.917 474.16 327.318 472.064 325.108 471.341C324.237 471.056 321.177 468.744 318.309 466.203L313.095 461.583L319.504 454.239C326.164 446.607 326.848 445.1 324.529 443.177C322.713 441.671 321.519 442.456 315.302 449.245L310.146 454.878L309.668 448.767C309.216 442.99 309.051 442.642 306.627 442.362C304.843 442.156 303.753 442.646 303.043 443.97ZM370.601 443.852C369.79 444.771 368.83 447.027 368.468 448.866C368.106 450.704 366.717 456.81 365.381 462.434C362.611 474.092 362.882 477.517 366.572 477.517C367.893 477.517 369.137 476.98 369.338 476.323C369.538 475.667 370.449 472.228 371.361 468.683C372.273 465.138 373.284 462.236 373.607 462.236C373.93 462.236 374.708 464.395 375.335 467.033C377.113 474.517 378.627 477.039 381.336 477.039C383.879 477.039 385.019 475.294 387.992 466.859C390.076 460.943 390.657 460.424 391.41 463.795C394.111 475.892 397.003 480.413 400.077 477.34C401.544 475.875 401.514 475.169 399.643 467.328C398.535 462.689 397.135 456.1 396.53 452.686C395.248 445.44 393.499 442.181 390.894 442.181C388.597 442.181 386.972 445.318 384.71 454.118C382.676 462.03 381.658 463.512 380.843 459.748C378.685 449.79 377.975 447.145 376.834 444.807C375.372 441.808 372.759 441.408 370.601 443.852ZM411.012 444.037C409.989 445.059 408.905 447.315 408.6 449.051C407.55 455.034 406.317 460.821 404.773 467.009C402.802 474.912 403.389 477.747 406.913 477.338C409.595 477.027 409.632 476.957 412.082 467.728C412.745 465.233 413.606 463.191 413.997 463.191C414.387 463.191 415.193 465.018 415.785 467.25C417.532 473.825 419.607 477.517 421.557 477.517C423.719 477.517 425.309 475.088 428.277 467.25C430.533 461.293 431.981 459.667 431.981 463.091C431.981 466.533 435.824 477.32 437.244 477.865C439.502 478.731 441.538 477.495 441.525 475.266C441.519 474.14 440.659 469.781 439.616 465.579C438.571 461.377 437.268 455.19 436.72 451.831C435.46 444.118 434.413 442.181 431.503 442.181C428.615 442.181 427.859 443.582 425.292 453.687C423.211 461.881 421.47 465.418 421.47 461.455C421.47 458.481 417.732 444.865 416.512 443.396C415.076 441.667 413.16 441.89 411.012 444.037ZM346.463 445.762C345.111 447.207 341.994 451.611 339.538 455.551C337.082 459.49 334.517 463.282 333.837 463.975C333.158 464.67 332.602 465.873 332.602 466.649C332.602 467.426 331.93 469.36 331.108 470.947C329.919 473.248 329.853 474.12 330.786 475.244C332.675 477.52 335.788 476.398 337.467 472.836C339.496 468.53 341.762 467.011 346.157 467.011C349.523 467.011 349.941 467.327 351.791 471.26C354.448 476.911 356.126 478.29 358.028 476.39C359.313 475.105 359.083 473.351 355.913 460.236C351.43 441.694 350.955 440.967 346.463 445.762ZM458.895 448.149C456.846 450.908 453.95 455.312 452.46 457.939C450.97 460.565 449.346 462.993 448.851 463.333C448.042 463.888 446.196 468.212 444.67 473.124C443.932 475.496 446.893 477.786 449.142 476.583C450.026 476.11 451.517 474.022 452.455 471.944C453.749 469.075 454.855 468.026 457.045 467.588C463.08 466.382 464.36 466.81 465.928 470.557C467.813 475.067 470.03 477.523 471.653 476.901C473.584 476.161 474.081 473.966 472.976 471.062C472.428 469.622 470.922 463.557 469.629 457.583C466.039 440.991 464.936 440.021 458.895 448.149ZM345.665 458.778C344.045 461.251 344.053 461.281 346.436 461.281C348.975 461.281 349.142 460.941 348.009 458.062C347.364 456.421 347.172 456.48 345.665 458.778ZM459.866 458.894C458.874 461.07 458.976 461.281 461.014 461.281C462.883 461.281 463.175 460.891 462.793 458.894C462.542 457.58 462.026 456.506 461.646 456.506C461.265 456.506 460.465 457.58 459.866 458.894Z" fill="white"/>
</svg>
