<svg width="419" height="419" viewBox="0 0 419 419" fill="none" xmlns="http://www.w3.org/2000/svg">
<path d="M209.097 154.207C203.102 144.019 191.111 130.174 169.476 133.047C163.394 118.679 141.637 88.4275 102.224 84.4567C138.092 81.7399 154.357 94.6453 161.917 100.131C169.476 105.617 209.097 134.876 209.097 154.207C211.183 140.1 225.519 125.21 240.899 112.409C247.329 107.098 261.387 95.9515 266.183 93.8616C272.179 91.2492 282.345 85.502 291.468 84.4571C298.767 83.6211 311.105 84.1083 316.492 84.4566C290.947 84.4566 254.975 110.842 249.24 133.047C228.804 127.822 213.963 144.977 209.097 154.207Z" fill="url(#paint0_linear_107_140)"/>
<path d="M246.373 96.3422C268.008 71.2635 298.245 77.4027 316.492 84.456C311.105 84.1077 298.767 83.7506 291.468 84.5866C282.345 85.6315 272.179 91.3787 266.183 93.9911C261.387 96.081 247.329 107.227 240.899 112.539C225.718 125.174 211.554 139.845 209.184 153.789C209.156 153.974 209.127 154.156 209.097 154.337C209.083 153.94 209.066 153.524 209.044 153.091C207.428 133.772 169.315 105.63 161.917 100.261C154.357 94.7748 138.092 81.7392 102.224 84.456C116.821 76.3577 146.798 68.7034 170.779 95.0361C175.819 102.525 188.691 118.345 197.107 125.339C207.193 133.722 208.689 145.827 209.044 153.091C209.08 153.511 209.097 153.926 209.097 154.337C209.124 154.154 209.153 153.972 209.184 153.789C210.325 146.379 210.693 135.248 222.391 124.033C231.583 115.222 239.074 105.486 246.373 96.3422Z" fill="url(#paint1_linear_107_140)"/>
<path d="M170.578 95.2751C159.807 48.8042 256.219 44.91 246.762 96.5732C239.406 105.66 231.856 115.336 222.593 124.092C210.509 135.515 210.421 146.852 209.195 154.208C208.316 146.37 207.882 134.217 197.111 125.39C188.629 118.439 175.657 102.717 170.578 95.2751Z" fill="url(#paint2_linear_107_140)"/>
<path d="M246.165 96.8073C255.549 44.8212 159.884 48.7398 170.571 95.5011C173.386 57.2888 244.288 55.9826 246.165 96.8073Z" fill="url(#paint3_linear_107_140)"/>
<path d="M125.423 67.9981C113.12 73.8498 104.918 80.9726 102.224 84.4557C116.821 76.3574 146.798 69.095 170.779 95.4277C160.092 48.6663 255.757 44.7478 246.373 96.7339C268.008 71.6552 298.246 77.4024 316.492 84.4557C289.904 61.9894 279.416 61.8205 270.615 64.3405C263.316 66.4304 255.409 78.099 251.326 83.9333L257.581 71.6552C264.88 54.4135 253.932 51.0174 247.676 51.0174C241.42 51.0174 238.292 51.0174 224.216 49.9725C212.955 49.1366 208.402 39.3489 207.534 34.5596C204.666 50.495 187.201 51.2786 178.078 51.0174C170.779 50.8084 166.001 52.1495 164.523 52.8461C152.793 58.3782 160.613 73.4838 164.523 82.3659C159.31 74.2675 153.489 68.1722 150.447 66.4307C147.233 64.515 137.727 62.1464 125.423 67.9981Z" fill="url(#paint4_linear_107_140)"/>
<path d="M257.659 182.421C258.441 194.438 251.924 196.005 248.014 198.095C246.711 193.393 246.607 183.675 257.659 182.421Z" fill="url(#paint5_linear_107_140)"/>
<path d="M257.659 182.421C258.441 194.438 251.924 196.005 248.014 198.095C249.317 194.699 255.313 192.348 257.659 182.421Z" fill="url(#paint6_linear_107_140)"/>
<path d="M272.908 186.077C272.386 192.608 266.391 207.712 255.965 212.462C245.538 217.212 244.777 217.869 241.628 220.038C239.247 221.678 237.718 223.173 236.936 224.218C243.453 226.046 275.202 222.859 272.908 186.077Z" fill="url(#paint7_linear_107_140)"/>
<path d="M245.648 207.76C243.354 206.924 242.781 198.181 242.781 193.914C241.064 195.635 239.432 197.529 238.068 199.661C234.295 205.559 232.725 213.282 236.936 224.218C237.722 223.28 239.081 221.939 241.463 220.299C244.612 218.13 249.283 215.437 255.814 212.462C267.283 207.237 272.387 192.608 272.908 186.077C268.477 186.338 248.516 208.805 245.648 207.76Z" fill="url(#paint8_linear_107_140)"/>
<path d="M272.908 186.077C269.78 186.338 261.327 195.06 255.443 200.445C257.464 201.451 263.152 203.415 263.785 206.454C269.519 199.923 272.908 191.302 272.908 186.077Z" fill="url(#paint9_linear_107_140)"/>
<path d="M160.417 182.421C159.635 194.438 166.152 196.005 170.062 198.095C171.365 193.393 171.469 183.675 160.417 182.421Z" fill="url(#paint10_linear_107_140)"/>
<path d="M160.417 182.421C159.635 194.438 166.152 196.005 170.062 198.095C168.758 194.699 162.763 192.348 160.417 182.421Z" fill="url(#paint11_linear_107_140)"/>
<path d="M144.831 185.554C145.352 192.085 151.347 207.189 161.774 211.939C172.201 216.689 172.962 217.345 176.111 219.515C178.492 221.155 180.021 222.65 180.803 223.694C174.286 225.523 142.537 222.336 144.831 185.554Z" fill="url(#paint12_linear_107_140)"/>
<path d="M172.09 207.237C174.384 206.401 174.958 197.658 174.957 193.391C176.674 195.112 178.307 197.006 179.671 199.138C183.443 205.036 185.014 212.759 180.802 223.694C180.017 222.757 178.657 221.416 176.276 219.776C173.127 217.607 168.456 214.914 161.925 211.939C150.455 206.714 145.352 192.085 144.83 185.554C149.262 185.815 169.223 208.282 172.09 207.237Z" fill="url(#paint13_linear_107_140)"/>
<path d="M144.83 185.554C147.958 185.815 156.411 194.537 162.295 199.922C160.275 200.928 154.586 202.892 153.954 205.93C148.219 199.399 144.83 190.779 144.83 185.554Z" fill="url(#paint14_linear_107_140)"/>
<path d="M209.098 362.673C204.145 354.314 190.156 338.465 183.292 331.586C188.679 324.707 201.434 309.903 209.359 305.724C215.528 310.339 229.274 321.973 234.904 331.586C230.733 334.721 215.093 353.53 209.098 362.673Z" fill="url(#paint15_linear_107_140)"/>
<path d="M209.098 362.935C204.145 354.575 190.156 338.727 183.292 331.847C184.315 332.104 187.02 332.466 189.809 333.428C195.546 335.408 203.325 338.841 209.359 341.513C215.059 338.835 223.437 335.401 229.169 333.428C231.825 332.514 233.913 331.914 234.904 331.847C230.733 334.982 215.093 353.791 209.098 362.935Z" fill="url(#paint16_linear_107_140)"/>
<path d="M189.809 333.167C187.02 332.205 184.315 331.842 183.292 331.586C188.679 324.707 201.434 309.903 209.359 305.724C215.528 310.339 229.274 321.973 234.904 331.586C233.913 331.652 231.825 332.253 229.169 333.167C225.781 328.451 216.136 318.785 209.359 313.299C202.321 318.263 195.804 325.503 189.809 333.167Z" fill="url(#paint17_linear_107_140)"/>
<path d="M242.463 350.823C246.008 371.304 232.645 383.913 225.52 387.657C235.773 385.132 258.103 376.79 265.402 363.624C272.701 350.457 259.233 337.761 251.587 333.059C247.068 330.446 238.918 330.342 242.463 350.823Z" fill="url(#paint18_linear_107_140)"/>
<path d="M252.363 333.813C252.098 333.64 251.839 333.476 251.586 333.321C251.832 333.459 252.092 333.623 252.363 333.813C260.1 338.863 272.459 351.154 265.402 363.885C258.103 377.052 235.773 385.394 225.52 387.919C232.49 385.22 248.192 376.373 255.236 362.579C263.521 346.354 256.674 336.838 252.363 333.813Z" fill="url(#paint19_linear_107_140)"/>
<path d="M225.52 387.92C232.638 384.179 245.983 371.59 242.473 351.143C242.47 351.124 242.466 351.105 242.463 351.085C242.466 351.105 242.47 351.124 242.473 351.143C243.148 354.994 246.62 362.58 255.236 362.58C248.192 376.373 232.49 385.22 225.52 387.92Z" fill="url(#paint20_linear_107_140)"/>
<path d="M175.486 350.823C171.94 371.304 185.304 383.913 192.429 387.657C182.176 385.132 159.846 376.79 152.547 363.624C145.248 350.457 158.716 337.761 166.362 333.059C170.88 330.446 179.031 330.342 175.486 350.823Z" fill="url(#paint21_linear_107_140)"/>
<path d="M165.586 333.813C165.851 333.64 166.11 333.476 166.362 333.321C166.117 333.459 165.856 333.623 165.586 333.813C157.849 338.863 145.49 351.154 152.547 363.885C159.846 377.052 182.176 385.394 192.429 387.919C185.459 385.22 169.757 376.373 162.713 362.579C154.427 346.354 161.274 336.838 165.586 333.813Z" fill="url(#paint22_linear_107_140)"/>
<path d="M192.429 387.92C185.311 384.179 171.966 371.59 175.476 351.143C175.479 351.124 175.482 351.105 175.486 351.085C175.482 351.105 175.479 351.124 175.476 351.143C174.801 354.994 171.329 362.58 162.713 362.58C169.757 376.373 185.458 385.22 192.429 387.92Z" fill="url(#paint23_linear_107_140)"/>
<path d="M162.238 265.37C184.328 253.171 177.503 236.384 169.846 230.074C157.167 219.626 135.472 230.074 127.301 248.992C120.764 264.127 126.08 281.276 129.555 287.959C131.245 285.512 140.149 277.568 162.238 265.37Z" fill="url(#paint24_linear_107_140)"/>
<path d="M126.955 248.992C120.418 264.127 125.734 281.276 129.209 287.959C129.209 262.659 156.351 238.643 169.781 229.889C157.102 219.442 135.126 230.074 126.955 248.992Z" fill="url(#paint25_linear_107_140)"/>
<path d="M19.631 209.361C78.6414 140.039 140.138 179.211 140.138 206.976C139.757 217.669 135.649 230.584 120.264 238.56C101.033 248.531 78.4645 250.095 55.1953 233.812C32.803 218.144 33.3296 217.67 19.631 209.361Z" fill="url(#paint26_linear_107_140)"/>
<path d="M19.631 209.361C78.6414 140.039 140.138 179.211 140.138 206.976C135.797 200.965 121.582 188.279 99.453 185.62C71.792 182.296 38.5982 192.506 19.631 209.361Z" fill="url(#paint27_linear_107_140)"/>
<path d="M120.264 238.685C135.649 230.709 139.757 217.794 140.138 207.101C133.601 213.83 114.685 225.959 91.5499 227.29C79.1683 228.002 63.8889 225.628 44.9214 217.048C40.443 215.022 20.9232 208.088 19.6311 209.486C33.3297 217.795 32.8031 218.269 55.1953 233.937C78.4646 250.22 101.033 248.656 120.264 238.685Z" fill="url(#paint28_linear_107_140)"/>
<path d="M91.5499 227.29C114.685 225.959 133.601 213.83 140.138 207.101C108.41 233.7 61.518 224.556 44.9214 217.048C63.8889 225.628 79.1683 228.002 91.5499 227.29Z" fill="url(#paint29_linear_107_140)"/>
<path d="M162.582 172.645C169.724 149.945 164.928 93.5778 70.2512 91.5374C62.0895 148.415 119.987 185.653 162.582 172.645Z" fill="url(#paint30_linear_107_140)"/>
<path d="M132.179 107.095C157.267 126.13 167.118 157.967 162.58 172.389C139.742 179.363 101.284 153.369 82.1883 136.171C130.529 136.171 127.033 123.695 132.179 107.095Z" fill="url(#paint31_linear_107_140)"/>
<path d="M162.582 172.645C169.724 149.945 164.928 93.5778 70.2512 91.5374C100.287 97.8628 159.725 126.48 162.582 172.645Z" fill="url(#paint32_linear_107_140)"/>
<path d="M162.787 172.645C120.192 185.653 62.0394 148.415 70.201 91.5374C79.315 115.003 119.886 163.463 162.787 172.645Z" fill="url(#paint33_linear_107_140)"/>
<path d="M256.121 265.891C234.031 253.693 240.856 236.905 248.513 230.595C261.192 220.147 282.887 230.595 291.058 249.514C297.595 264.648 292.279 281.798 288.804 288.48C287.113 286.033 278.21 278.089 256.121 265.891Z" fill="url(#paint34_linear_107_140)"/>
<path d="M291.404 249.515C297.941 264.65 292.625 281.799 289.15 288.482C289.15 263.182 262.008 239.166 248.578 230.412C261.257 219.964 283.233 230.597 291.404 249.515Z" fill="url(#paint35_linear_107_140)"/>
<path d="M399.173 209.361C340.163 140.039 278.667 179.211 278.666 206.976C279.047 217.669 283.155 230.584 298.54 238.561C317.771 248.532 340.34 250.095 363.609 233.813C386.001 218.144 385.475 217.67 399.173 209.361Z" fill="url(#paint36_linear_107_140)"/>
<path d="M399.173 209.361C340.163 140.039 278.667 179.211 278.666 206.976C283.008 200.965 297.223 188.279 319.351 185.62C347.012 182.297 380.206 192.506 399.173 209.361Z" fill="url(#paint37_linear_107_140)"/>
<path d="M298.54 238.686C283.155 230.709 279.047 217.794 278.666 207.101C285.203 213.831 304.119 225.96 327.254 227.29C339.636 228.003 354.915 225.629 373.883 217.049C378.361 215.023 397.881 208.089 399.173 209.486C385.475 217.795 386.001 218.269 363.609 233.938C340.34 250.22 317.771 248.657 298.54 238.686Z" fill="url(#paint38_linear_107_140)"/>
<path d="M327.254 227.29C304.119 225.96 285.203 213.831 278.666 207.101C310.394 233.7 357.286 224.556 373.883 217.049C354.915 225.629 339.636 228.003 327.254 227.29Z" fill="url(#paint39_linear_107_140)"/>
<path d="M254.098 173.124C246.956 150.424 251.751 94.0566 346.428 92.0161C354.59 148.894 296.692 186.132 254.098 173.124Z" fill="url(#paint40_linear_107_140)"/>
<path d="M284.5 107.574C259.413 126.609 249.562 158.446 254.099 172.868C276.937 179.842 315.396 153.848 334.491 136.65C286.151 136.65 289.646 124.174 284.5 107.574Z" fill="url(#paint41_linear_107_140)"/>
<path d="M254.098 173.124C246.956 150.424 251.751 94.0566 346.428 92.0161C316.393 98.3415 256.954 126.959 254.098 173.124Z" fill="url(#paint42_linear_107_140)"/>
<path d="M253.893 173.124C296.487 186.132 354.64 148.894 346.478 92.0161C337.364 115.481 296.793 163.942 253.893 173.124Z" fill="url(#paint43_linear_107_140)"/>
<path d="M169.476 133.047C169.476 133.047 187.158 129.593 199.452 141.929C202.825 144.73 207.012 150.549 209.097 154.207C209.097 154.207 218.375 137.183 230.472 133.142C242.568 129.101 249.24 133.142 249.24 133.142L246.779 137.991C234.951 142.302 218.056 150.216 219.591 181.063C219.995 186.484 221.271 190.524 221.51 192.411C221.869 189.447 223.93 182.281 229.306 177.324C236.026 171.128 239.521 175.977 239.521 182.443C239.521 184.141 238.666 187.834 237.361 191.302C236.596 193.335 235.676 195.29 234.682 196.721C230.381 202.917 221.456 218.758 227.693 242.25C229.643 247.678 235.486 259.619 246.112 269.413C248.671 271.772 251.754 273.606 254.843 275.656C270.757 286.217 277.782 298.017 279.306 302.597C291.402 330.615 273.221 345.433 273.221 345.433C271.339 341.661 262.639 331.423 250.273 326.574C240.381 322.694 230.739 314.002 227.155 310.14C214.252 295.916 209.593 280.326 208.876 274.309C203.284 304.698 178.858 321.904 167.478 326.843C156.994 332.501 153.054 334.395 144.452 345.171C115.957 315.806 152.157 280.236 167.747 270.807C176.349 265.605 181.098 258.235 184.682 253.027C198.661 230.181 190.506 207.408 184.682 198.876C182.921 196.568 181.365 194.055 180.254 191.302C179.161 188.592 178.499 185.65 178.499 182.443C178.499 173.281 183.607 173.014 189.79 178.132C193.974 181.597 196.331 189.178 196.51 192.411C201.241 179.479 197.406 163.315 194.897 156.85C190.596 147.151 176.976 140.057 170.704 137.722L169.476 133.047Z" fill="url(#paint44_linear_107_140)"/>
<path d="M184.073 253.738C198.052 230.892 189.808 207.499 184.325 199.399C182.509 196.266 181.534 194.578 180.424 191.825C188.413 202.797 200.399 212.462 200.399 230.226C200.022 234.755 199.585 242.773 192.057 251.648C187.759 256.715 183.888 260.392 168.111 270.539C167.616 270.874 167.115 271.196 166.608 271.502C167.121 271.175 167.621 270.854 168.111 270.539C176.028 265.183 182.418 256.442 184.073 253.738Z" fill="url(#paint45_linear_107_140)" fill-opacity="0.8"/>
<path d="M234.059 253.999C219.87 231.284 227.543 208.08 232.95 199.929C234.738 196.779 235.903 195.11 236.988 192.347C229.1 203.392 216.998 213.141 217.162 230.904C217.581 235.429 218.092 243.443 225.701 252.247C230.078 257.312 233.006 261.62 249.125 271.818C249.505 272.071 249.891 272.314 250.282 272.546C249.889 272.3 249.504 272.058 249.125 271.818C241.117 266.483 235.763 256.726 234.059 253.999Z" fill="url(#paint46_linear_107_140)" fill-opacity="0.8"/>
<path d="M167.62 326.909C157.136 332.567 153.055 334.394 144.452 345.171C143.579 333.668 166.229 315.717 180.044 306.051C191.096 298.319 203.784 281.712 208.837 274.375C203.246 304.764 179 321.97 167.62 326.909Z" fill="url(#paint47_linear_107_140)"/>
<path d="M273.221 345.171C273.743 333.416 250.022 314.607 236.467 304.941C232.064 301.801 223.747 293.969 220.827 289.789C227.865 296.059 232.557 298.932 244.027 304.813C266.548 315.471 274.785 336.028 273.221 345.171Z" fill="url(#paint48_linear_107_140)"/>
<path d="M249.761 269.674C238.813 262.882 226.299 254.176 221.348 246.163C223.697 252.519 233.287 264.378 249.761 275.16C270.516 288.744 281.018 307.731 283.127 324.795C287.037 300.761 262.066 277.307 249.761 269.674Z" fill="url(#paint49_linear_107_140)"/>
<path d="M250.315 326.953C260.738 332.577 264.64 334.683 273.221 345.432C274.094 333.929 251.625 315.717 237.81 306.051C226.757 298.318 213.889 281.712 208.836 274.375C214.427 304.764 238.854 321.97 250.234 326.909L250.315 326.953Z" fill="url(#paint50_linear_107_140)"/>
<path d="M144.453 345.171C145.234 333.938 166.426 315.913 180.425 306.119C184.856 303.018 192.884 295.014 195.804 290.834C188.766 297.104 184.595 300.239 173.126 306.119C150.604 316.777 143.931 336.028 144.453 345.171Z" fill="url(#paint51_linear_107_140)"/>
<path d="M167.391 270.98C178.339 264.188 190.593 254.959 195.543 246.946C193.194 253.303 183.865 265.684 167.391 276.466C146.636 290.05 136.395 309.037 134.287 326.101C129.918 301.825 155.087 278.613 167.391 270.98Z" fill="url(#paint52_linear_107_140)"/>
<defs>
<linearGradient id="paint0_linear_107_140" x1="209.349" y1="142.712" x2="209.349" y2="84.1954" gradientUnits="userSpaceOnUse">
<stop stop-color="#01585F"/>
<stop offset="0.30739" stop-color="#026D74"/>
<stop offset="0.500412" stop-color="#00807B"/>
<stop offset="0.695865" stop-color="#04A387"/>
<stop offset="1" stop-color="#35C39D"/>
</linearGradient>
<linearGradient id="paint1_linear_107_140" x1="209.358" y1="122.335" x2="209.358" y2="76.8802" gradientUnits="userSpaceOnUse">
<stop stop-color="#33B6A0"/>
<stop offset="0.388465" stop-color="#82EACC"/>
<stop offset="0.897525" stop-color="#DBFCE9"/>
</linearGradient>
<linearGradient id="paint2_linear_107_140" x1="208.828" y1="113.977" x2="208.313" y2="67.7383" gradientUnits="userSpaceOnUse">
<stop stop-color="#0D9087"/>
<stop offset="0.402348" stop-color="#1CC0A5"/>
<stop offset="0.759515" stop-color="#89E9CD"/>
<stop offset="1" stop-color="#CCF8E7"/>
</linearGradient>
<linearGradient id="paint3_linear_107_140" x1="208.316" y1="68.7832" x2="208.275" y2="59.1174" gradientUnits="userSpaceOnUse">
<stop stop-color="#C4F5E0"/>
<stop offset="1" stop-color="#F3FFFF"/>
</linearGradient>
<linearGradient id="paint4_linear_107_140" x1="209.358" y1="92.8153" x2="209.358" y2="36.9107" gradientUnits="userSpaceOnUse">
<stop stop-color="#00957C"/>
<stop offset="0.332644" stop-color="#2FBC99"/>
<stop offset="0.676325" stop-color="#9CEBD1"/>
<stop offset="1" stop-color="#D9FAE7"/>
</linearGradient>
<linearGradient id="paint5_linear_107_140" x1="248.079" y1="197.05" x2="255.141" y2="183.478" gradientUnits="userSpaceOnUse">
<stop stop-color="#149083"/>
<stop offset="0.231327" stop-color="#55DBBA"/>
<stop offset="0.499044" stop-color="#A0EFC0"/>
<stop offset="0.765293" stop-color="#CCFED8"/>
<stop offset="1" stop-color="#D1FDEC"/>
</linearGradient>
<linearGradient id="paint6_linear_107_140" x1="248.079" y1="197.05" x2="255.141" y2="183.478" gradientUnits="userSpaceOnUse">
<stop offset="0.115553" stop-color="#057569"/>
<stop offset="0.366696" stop-color="#2DB5A1"/>
<stop offset="0.613502" stop-color="#25AC8E"/>
<stop offset="0.912621" stop-color="#1C8962"/>
</linearGradient>
<linearGradient id="paint7_linear_107_140" x1="242.765" y1="227.353" x2="273.072" y2="205.408" gradientUnits="userSpaceOnUse">
<stop stop-color="#00347F"/>
<stop offset="0.318374" stop-color="#055D8B"/>
<stop offset="0.570542" stop-color="#07898C"/>
<stop offset="0.875" stop-color="#16A88D"/>
</linearGradient>
<linearGradient id="paint8_linear_107_140" x1="234.33" y1="215.336" x2="271.406" y2="186.156" gradientUnits="userSpaceOnUse">
<stop stop-color="#3B79C2"/>
<stop offset="0.252572" stop-color="#88C1E6"/>
<stop offset="0.514898" stop-color="#9ED8F1"/>
<stop offset="0.75" stop-color="#ACF2EB"/>
</linearGradient>
<linearGradient id="paint9_linear_107_140" x1="257.789" y1="203.058" x2="269.287" y2="190.282" gradientUnits="userSpaceOnUse">
<stop stop-color="#8CE8C1" stop-opacity="0"/>
<stop offset="1" stop-color="#8DF1B5"/>
</linearGradient>
<linearGradient id="paint10_linear_107_140" x1="169.997" y1="197.05" x2="162.935" y2="183.478" gradientUnits="userSpaceOnUse">
<stop stop-color="#149083"/>
<stop offset="0.231327" stop-color="#55DBBA"/>
<stop offset="0.499044" stop-color="#A0EFC0"/>
<stop offset="0.765293" stop-color="#CCFED8"/>
<stop offset="1" stop-color="#D1FDEC"/>
</linearGradient>
<linearGradient id="paint11_linear_107_140" x1="169.997" y1="197.05" x2="162.935" y2="183.478" gradientUnits="userSpaceOnUse">
<stop offset="0.115553" stop-color="#057569"/>
<stop offset="0.366696" stop-color="#2DB5A1"/>
<stop offset="0.613502" stop-color="#25AC8E"/>
<stop offset="0.912621" stop-color="#1C8962"/>
</linearGradient>
<linearGradient id="paint12_linear_107_140" x1="174.973" y1="226.829" x2="144.667" y2="204.885" gradientUnits="userSpaceOnUse">
<stop stop-color="#00347F"/>
<stop offset="0.318374" stop-color="#055D8B"/>
<stop offset="0.570542" stop-color="#07898C"/>
<stop offset="0.875" stop-color="#16A88D"/>
</linearGradient>
<linearGradient id="paint13_linear_107_140" x1="183.409" y1="214.812" x2="146.332" y2="185.633" gradientUnits="userSpaceOnUse">
<stop stop-color="#3B79C2"/>
<stop offset="0.252572" stop-color="#88C1E6"/>
<stop offset="0.514898" stop-color="#9ED8F1"/>
<stop offset="0.75" stop-color="#ACF2EB"/>
</linearGradient>
<linearGradient id="paint14_linear_107_140" x1="159.949" y1="202.534" x2="148.452" y2="189.759" gradientUnits="userSpaceOnUse">
<stop stop-color="#8CE8C1" stop-opacity="0"/>
<stop offset="1" stop-color="#8DF1B5"/>
</linearGradient>
<linearGradient id="paint15_linear_107_140" x1="208.837" y1="335.505" x2="209.361" y2="314.867" gradientUnits="userSpaceOnUse">
<stop stop-color="#1350A8"/>
<stop offset="1" stop-color="#76C3EE"/>
</linearGradient>
<linearGradient id="paint16_linear_107_140" x1="208.837" y1="356.142" x2="208.837" y2="342.036" gradientUnits="userSpaceOnUse">
<stop stop-color="#073185"/>
</linearGradient>
<linearGradient id="paint17_linear_107_140" x1="208.837" y1="333.415" x2="208.837" y2="308.075" gradientUnits="userSpaceOnUse">
<stop stop-color="#1660CA"/>
<stop offset="0.335408" stop-color="#539BE4"/>
<stop offset="0.651811" stop-color="#8DCAF0"/>
<stop offset="0.918255" stop-color="#C7F8FC"/>
</linearGradient>
<linearGradient id="paint18_linear_107_140" x1="246.373" y1="375.379" x2="251.347" y2="342.205" gradientUnits="userSpaceOnUse">
<stop stop-color="#5E93D7"/>
<stop offset="1" stop-color="#AAD7FB"/>
</linearGradient>
<linearGradient id="paint19_linear_107_140" x1="249.762" y1="377.825" x2="263.366" y2="347.021" gradientUnits="userSpaceOnUse">
<stop stop-color="#002762"/>
<stop offset="1" stop-color="#3269AD"/>
</linearGradient>
<linearGradient id="paint20_linear_107_140" x1="240.117" y1="383.217" x2="248.49" y2="362.593" gradientUnits="userSpaceOnUse">
<stop offset="0.226429" stop-color="#2B59AE"/>
<stop offset="1" stop-color="#4484CB" stop-opacity="0"/>
</linearGradient>
<linearGradient id="paint21_linear_107_140" x1="171.576" y1="375.379" x2="166.602" y2="342.205" gradientUnits="userSpaceOnUse">
<stop stop-color="#5E93D7"/>
<stop offset="1" stop-color="#AAD7FB"/>
</linearGradient>
<linearGradient id="paint22_linear_107_140" x1="168.187" y1="377.825" x2="154.583" y2="347.021" gradientUnits="userSpaceOnUse">
<stop stop-color="#002762"/>
<stop offset="1" stop-color="#3269AD"/>
</linearGradient>
<linearGradient id="paint23_linear_107_140" x1="177.832" y1="383.217" x2="169.459" y2="362.593" gradientUnits="userSpaceOnUse">
<stop offset="0.226429" stop-color="#2B59AE"/>
<stop offset="1" stop-color="#4484CB" stop-opacity="0"/>
</linearGradient>
<linearGradient id="paint24_linear_107_140" x1="122.166" y1="292.293" x2="177.532" y2="226.055" gradientUnits="userSpaceOnUse">
<stop offset="0.0832449" stop-color="#00347F"/>
<stop offset="0.352553" stop-color="#055D8B"/>
<stop offset="0.658124" stop-color="#07898C"/>
<stop offset="0.941441" stop-color="#16A88D"/>
</linearGradient>
<linearGradient id="paint25_linear_107_140" x1="123.856" y1="282.127" x2="163.42" y2="223.475" gradientUnits="userSpaceOnUse">
<stop stop-color="#4B86CA"/>
<stop offset="0.309049" stop-color="#61C7D6"/>
<stop offset="0.573235" stop-color="#B5F2E7"/>
<stop offset="0.744859" stop-color="#E1FBF4"/>
<stop offset="0.891364" stop-color="#DEFAF3"/>
<stop offset="1" stop-color="#7BE6B8"/>
</linearGradient>
<linearGradient id="paint26_linear_107_140" x1="132.762" y1="204.015" x2="28.5387" y2="218.289" gradientUnits="userSpaceOnUse">
<stop stop-color="#44C2CA"/>
<stop offset="0.221727" stop-color="#41C1C5"/>
<stop offset="0.423772" stop-color="#3AD1B4"/>
<stop offset="0.645964" stop-color="#59DCB0"/>
<stop offset="1" stop-color="#17C193"/>
</linearGradient>
<linearGradient id="paint27_linear_107_140" x1="136.977" y1="197.368" x2="35.9679" y2="188.319" gradientUnits="userSpaceOnUse">
<stop stop-color="#56D1B4"/>
<stop offset="0.31994" stop-color="#CBF9E7"/>
<stop offset="0.660711" stop-color="#F0FEF4"/>
<stop offset="0.888965" stop-color="#ACF3C9"/>
</linearGradient>
<linearGradient id="paint28_linear_107_140" x1="133.815" y1="228.941" x2="19.6442" y2="226.116" gradientUnits="userSpaceOnUse">
<stop stop-color="#00347F"/>
<stop offset="0.261165" stop-color="#055D8B"/>
<stop offset="0.636627" stop-color="#07898C"/>
<stop offset="1" stop-color="#16A88D"/>
</linearGradient>
<linearGradient id="paint29_linear_107_140" x1="140.138" y1="217.255" x2="19.6311" y2="217.255" gradientUnits="userSpaceOnUse">
<stop stop-color="#A6FAFF"/>
<stop offset="1" stop-color="white"/>
</linearGradient>
<linearGradient id="paint30_linear_107_140" x1="161" y1="171.115" x2="69.4441" y2="91.5373" gradientUnits="userSpaceOnUse">
<stop offset="0.593138" stop-color="#4BD1B7"/>
<stop offset="0.700879" stop-color="#7AE7B9"/>
<stop offset="0.784675" stop-color="#8FEDBD"/>
<stop offset="0.934429" stop-color="#C2F5B7"/>
</linearGradient>
<linearGradient id="paint31_linear_107_140" x1="159.47" y1="173.154" x2="120.702" y2="120.868" gradientUnits="userSpaceOnUse">
<stop offset="0.169191" stop-color="#2F60BC" stop-opacity="0.9"/>
<stop offset="0.499756" stop-color="#79B2E5" stop-opacity="0.6"/>
<stop offset="0.649773" stop-color="#82C3E8" stop-opacity="0.5"/>
<stop offset="0.919072" stop-color="#8AD3EA" stop-opacity="0"/>
</linearGradient>
<linearGradient id="paint32_linear_107_140" x1="155.899" y1="165.249" x2="63.3138" y2="100.464" gradientUnits="userSpaceOnUse">
<stop offset="0.0463599" stop-color="#2D9C84"/>
<stop offset="0.166875" stop-color="#56D7B3"/>
<stop offset="0.341378" stop-color="#AAF7D7"/>
<stop offset="0.599957" stop-color="#F6FDF9"/>
<stop offset="0.7453" stop-color="#F6FDF9" stop-opacity="0.976471"/>
<stop offset="0.933182" stop-color="#E3FCD4"/>
</linearGradient>
<linearGradient id="paint33_linear_107_140" x1="153.094" y1="175.196" x2="65.5592" y2="99.189" gradientUnits="userSpaceOnUse">
<stop stop-color="#00347F"/>
<stop offset="0.236352" stop-color="#055D8B"/>
<stop offset="0.55659" stop-color="#07898C"/>
<stop offset="0.743206" stop-color="#16A88D"/>
<stop offset="1" stop-color="#57C49C"/>
</linearGradient>
<linearGradient id="paint34_linear_107_140" x1="296.193" y1="292.814" x2="240.827" y2="226.576" gradientUnits="userSpaceOnUse">
<stop offset="0.0832449" stop-color="#00347F"/>
<stop offset="0.352553" stop-color="#055D8B"/>
<stop offset="0.658124" stop-color="#07898C"/>
<stop offset="0.941441" stop-color="#16A88D"/>
</linearGradient>
<linearGradient id="paint35_linear_107_140" x1="294.503" y1="282.65" x2="254.939" y2="223.998" gradientUnits="userSpaceOnUse">
<stop stop-color="#4B86CA"/>
<stop offset="0.309049" stop-color="#61C7D6"/>
<stop offset="0.573235" stop-color="#B5F2E7"/>
<stop offset="0.744859" stop-color="#E1FBF4"/>
<stop offset="0.891364" stop-color="#DEFAF3"/>
<stop offset="1" stop-color="#7BE6B8"/>
</linearGradient>
<linearGradient id="paint36_linear_107_140" x1="286.043" y1="204.015" x2="390.266" y2="218.29" gradientUnits="userSpaceOnUse">
<stop stop-color="#44C2CA"/>
<stop offset="0.221727" stop-color="#41C1C5"/>
<stop offset="0.423772" stop-color="#3AD1B4"/>
<stop offset="0.645964" stop-color="#59DCB0"/>
<stop offset="1" stop-color="#17C193"/>
</linearGradient>
<linearGradient id="paint37_linear_107_140" x1="281.828" y1="197.368" x2="382.836" y2="188.319" gradientUnits="userSpaceOnUse">
<stop stop-color="#56D1B4"/>
<stop offset="0.31994" stop-color="#CBF9E7"/>
<stop offset="0.660711" stop-color="#F0FEF4"/>
<stop offset="0.888965" stop-color="#ACF3C9"/>
</linearGradient>
<linearGradient id="paint38_linear_107_140" x1="284.989" y1="228.942" x2="399.16" y2="226.116" gradientUnits="userSpaceOnUse">
<stop stop-color="#00347F"/>
<stop offset="0.261165" stop-color="#055D8B"/>
<stop offset="0.636627" stop-color="#07898C"/>
<stop offset="1" stop-color="#16A88D"/>
</linearGradient>
<linearGradient id="paint39_linear_107_140" x1="278.666" y1="217.255" x2="399.173" y2="217.255" gradientUnits="userSpaceOnUse">
<stop stop-color="#A6FAFF"/>
<stop offset="1" stop-color="white"/>
</linearGradient>
<linearGradient id="paint40_linear_107_140" x1="255.679" y1="171.594" x2="347.235" y2="92.0161" gradientUnits="userSpaceOnUse">
<stop offset="0.593138" stop-color="#4BD1B7"/>
<stop offset="0.700879" stop-color="#7AE7B9"/>
<stop offset="0.784675" stop-color="#8FEDBD"/>
<stop offset="0.934429" stop-color="#C2F5B7"/>
</linearGradient>
<linearGradient id="paint41_linear_107_140" x1="257.209" y1="173.633" x2="295.978" y2="121.347" gradientUnits="userSpaceOnUse">
<stop offset="0.169191" stop-color="#2F60BC" stop-opacity="0.9"/>
<stop offset="0.499756" stop-color="#79B2E5" stop-opacity="0.6"/>
<stop offset="0.649773" stop-color="#82C3E8" stop-opacity="0.5"/>
<stop offset="0.919072" stop-color="#8AD3EA" stop-opacity="0"/>
</linearGradient>
<linearGradient id="paint42_linear_107_140" x1="260.78" y1="165.727" x2="353.366" y2="100.943" gradientUnits="userSpaceOnUse">
<stop offset="0.0463599" stop-color="#2D9C84"/>
<stop offset="0.166875" stop-color="#56D7B3"/>
<stop offset="0.341378" stop-color="#AAF7D7"/>
<stop offset="0.599957" stop-color="#F6FDF9"/>
<stop offset="0.7453" stop-color="#F6FDF9" stop-opacity="0.976471"/>
<stop offset="0.933182" stop-color="#E3FCD4"/>
</linearGradient>
<linearGradient id="paint43_linear_107_140" x1="263.585" y1="175.675" x2="351.12" y2="99.6678" gradientUnits="userSpaceOnUse">
<stop stop-color="#00347F"/>
<stop offset="0.236352" stop-color="#055D8B"/>
<stop offset="0.55659" stop-color="#07898C"/>
<stop offset="0.743206" stop-color="#16A88D"/>
<stop offset="1" stop-color="#57C49C"/>
</linearGradient>
<linearGradient id="paint44_linear_107_140" x1="208.836" y1="117.112" x2="208.836" y2="332.371" gradientUnits="userSpaceOnUse">
<stop offset="0.0771858" stop-color="#16A187"/>
<stop offset="0.191481" stop-color="#29C4A2"/>
<stop offset="0.308524" stop-color="#59D7C2"/>
<stop offset="0.394061" stop-color="#89EFE2"/>
<stop offset="0.483678" stop-color="#8EEDE6"/>
<stop offset="0.576245" stop-color="#92DEEC"/>
<stop offset="0.688263" stop-color="#81C7E9"/>
<stop offset="0.773648" stop-color="#78AFE5"/>
<stop offset="0.858944" stop-color="#598FD7"/>
<stop offset="0.929472" stop-color="#4478CA"/>
<stop offset="1" stop-color="#2F60BC"/>
</linearGradient>
<linearGradient id="paint45_linear_107_140" x1="206.23" y1="241.982" x2="206.23" y2="219.255" gradientUnits="userSpaceOnUse">
<stop stop-color="#162C56"/>
<stop offset="1" stop-color="#11559C"/>
</linearGradient>
<linearGradient id="paint46_linear_107_140" x1="211.441" y1="242.714" x2="211.23" y2="219.987" gradientUnits="userSpaceOnUse">
<stop stop-color="#162C56"/>
<stop offset="1" stop-color="#11559C"/>
</linearGradient>
<linearGradient id="paint47_linear_107_140" x1="208.978" y1="332.436" x2="208.978" y2="284.891" gradientUnits="userSpaceOnUse">
<stop stop-color="#162C56"/>
<stop offset="1" stop-color="#11559C"/>
</linearGradient>
<linearGradient id="paint48_linear_107_140" x1="276.088" y1="327.146" x2="208.14" y2="245.786" gradientUnits="userSpaceOnUse">
<stop stop-color="#2F60BC"/>
<stop offset="0.297283" stop-color="#9BC5F3"/>
<stop offset="0.580086" stop-color="#AEDAF8"/>
<stop offset="0.757014" stop-color="#87CFEA"/>
</linearGradient>
<linearGradient id="paint49_linear_107_140" x1="276.088" y1="327.146" x2="208.14" y2="245.786" gradientUnits="userSpaceOnUse">
<stop stop-color="#2F60BC"/>
<stop offset="0.297283" stop-color="#9BC5F3"/>
<stop offset="0.580086" stop-color="#AEDAF8"/>
<stop offset="0.757014" stop-color="#87CFEA"/>
</linearGradient>
<linearGradient id="paint50_linear_107_140" x1="208.875" y1="332.436" x2="208.875" y2="284.891" gradientUnits="userSpaceOnUse">
<stop stop-color="#162C56"/>
<stop offset="1" stop-color="#11559C"/>
</linearGradient>
<linearGradient id="paint51_linear_107_140" x1="141.064" y1="328.452" x2="209.012" y2="247.092" gradientUnits="userSpaceOnUse">
<stop stop-color="#2F60BC"/>
<stop offset="0.297283" stop-color="#9BC5F3"/>
<stop offset="0.580086" stop-color="#AEDAF8"/>
<stop offset="0.757014" stop-color="#87CFEA"/>
</linearGradient>
<linearGradient id="paint52_linear_107_140" x1="141.064" y1="328.452" x2="209.012" y2="247.092" gradientUnits="userSpaceOnUse">
<stop stop-color="#2F60BC"/>
<stop offset="0.297283" stop-color="#9BC5F3"/>
<stop offset="0.580086" stop-color="#AEDAF8"/>
<stop offset="0.757014" stop-color="#87CFEA"/>
</linearGradient>
</defs>
</svg>
