<svg width="150" height="215" viewBox="0 0 150 215" fill="none" xmlns="http://www.w3.org/2000/svg">
<path d="M35.6922 1.70039C35.6922 1.70039 53.3748 -1.75351 65.6689 10.5824C69.042 13.3842 73.2282 19.2032 75.3136 22.8605C75.3136 22.8605 84.5915 5.83702 96.6882 1.79597C108.785 -2.24508 115.456 1.79618 115.456 1.79618L112.995 6.64508C101.167 10.9555 84.2722 18.8701 85.8076 49.7164C86.2115 55.1377 87.4879 59.1781 87.7268 61.0645C88.0853 58.1011 90.1462 50.935 95.5225 45.978C102.243 39.7817 105.738 44.6309 105.738 51.0966C105.738 52.7951 104.883 56.4882 103.577 59.9561C102.812 61.9887 101.892 63.9439 100.899 65.375C96.598 71.5713 87.673 87.4123 93.9095 110.904C95.8592 116.332 101.703 128.273 112.328 138.067C114.888 140.426 117.97 142.26 121.06 144.31C136.974 154.871 143.999 166.671 145.522 171.251C157.619 199.269 139.438 214.086 139.438 214.086C137.556 210.315 128.856 200.077 116.49 195.227C106.598 191.348 96.9561 182.655 93.3719 178.794C80.4688 164.569 75.8093 148.98 75.0925 142.963C69.5011 173.352 45.0747 190.558 33.6949 195.497C23.2111 201.154 19.2706 203.049 10.6682 213.825C-17.8261 184.46 18.3736 148.89 33.964 139.461C42.5661 134.258 47.3146 126.889 50.8988 121.68C64.8772 98.835 56.7231 76.0613 50.8988 67.5302C49.1377 65.2223 47.5815 62.7091 46.4708 59.9561C45.3775 57.2462 44.716 54.304 44.716 51.0966C44.716 41.9344 49.8235 41.6675 56.0063 46.7862C60.1908 50.2505 62.5475 57.8317 62.7267 61.0645C67.4578 48.1332 63.6227 31.969 61.1138 25.5033C56.8127 15.8048 43.1928 8.7105 36.9204 6.37567L35.6922 1.70039Z" fill="url(#paint0_linear_107_236)"/>
<path d="M50.2898 122.392C64.2682 99.5462 56.0244 76.1527 50.5419 68.0526C48.7258 64.9195 47.7511 63.2314 46.6404 60.4785C54.6298 71.4504 66.6154 81.1162 66.6154 98.8803C66.2385 103.408 65.8014 111.427 58.274 120.302C53.9759 125.369 50.1045 129.046 34.3272 139.193C33.8322 139.528 33.3312 139.85 32.8251 140.156C33.3375 139.828 33.838 139.508 34.3272 139.193C42.2447 133.837 48.635 125.096 50.2898 122.392Z" fill="url(#paint1_linear_107_236)" fill-opacity="0.8"/>
<path d="M100.276 122.652C86.0871 99.9377 93.7596 76.7333 99.167 68.5827C100.954 65.4329 102.12 63.7636 103.205 61.0005C95.3171 72.0461 83.215 81.7949 83.3791 99.5582C83.7978 104.083 84.309 112.096 91.918 120.901C96.2947 125.966 99.2228 130.274 115.342 140.472C115.722 140.725 116.107 140.968 116.499 141.2C116.106 140.954 115.72 140.711 115.342 140.472C107.333 135.137 101.98 125.38 100.276 122.652Z" fill="url(#paint2_linear_107_236)" fill-opacity="0.8"/>
<path d="M33.8368 195.563C23.353 201.22 19.2714 203.048 10.6691 213.824C9.79535 202.322 32.4455 184.371 46.2608 174.705C57.3131 166.972 70.001 150.366 75.0537 143.029C69.4624 173.418 45.2167 190.624 33.8368 195.563Z" fill="url(#paint3_linear_107_236)"/>
<path d="M139.438 213.825C139.959 202.069 116.239 183.26 102.684 173.595C98.2804 170.455 89.9637 162.623 87.0438 158.443C94.0814 164.713 98.7734 167.586 110.243 173.466C132.765 184.125 141.002 204.682 139.438 213.825Z" fill="url(#paint4_linear_107_236)"/>
<path d="M115.978 138.328C105.03 131.536 92.5153 122.83 87.5651 114.816C89.9137 121.173 99.504 133.031 115.978 143.814C136.733 157.398 147.235 176.384 149.343 193.449C153.253 169.415 128.282 145.961 115.978 138.328Z" fill="url(#paint5_linear_107_236)"/>
<path d="M116.531 195.606C126.954 201.231 130.857 203.337 139.437 214.085C140.311 202.583 117.842 184.371 104.026 174.705C92.974 166.972 80.1053 150.366 75.0526 143.029C80.644 173.418 105.07 190.624 116.45 195.563L116.531 195.606Z" fill="url(#paint6_linear_107_236)"/>
<path d="M10.6693 213.825C11.4511 202.592 32.6427 184.567 46.6413 174.773C51.0726 171.672 59.1005 163.668 62.0203 159.488C54.9827 165.758 50.8121 168.892 39.3423 174.773C16.8207 185.431 10.1479 204.682 10.6693 213.825Z" fill="url(#paint7_linear_107_236)"/>
<path d="M33.6076 139.634C44.556 132.842 56.8094 123.613 61.7595 115.6C59.4109 121.957 50.0815 134.337 33.6076 145.12C12.8527 158.704 2.61192 177.691 0.50329 194.755C-3.8654 170.479 21.3032 147.267 33.6076 139.634Z" fill="url(#paint8_linear_107_236)"/>
<defs>
<linearGradient id="paint0_linear_107_236" x1="75.0529" y1="-14.2343" x2="75.0529" y2="201.025" gradientUnits="userSpaceOnUse">
<stop offset="0.0771858" stop-color="#16A187"/>
<stop offset="0.191481" stop-color="#29C4A2"/>
<stop offset="0.308524" stop-color="#59D7C2"/>
<stop offset="0.394061" stop-color="#89EFE2"/>
<stop offset="0.483678" stop-color="#8EEDE6"/>
<stop offset="0.576245" stop-color="#92DEEC"/>
<stop offset="0.688263" stop-color="#81C7E9"/>
<stop offset="0.773648" stop-color="#78AFE5"/>
<stop offset="0.858944" stop-color="#598FD7"/>
<stop offset="0.929472" stop-color="#4478CA"/>
<stop offset="1" stop-color="#2F60BC"/>
</linearGradient>
<linearGradient id="paint1_linear_107_236" x1="72.4464" y1="110.636" x2="72.4464" y2="87.9084" gradientUnits="userSpaceOnUse">
<stop stop-color="#162C56"/>
<stop offset="1" stop-color="#11559C"/>
</linearGradient>
<linearGradient id="paint2_linear_107_236" x1="77.6572" y1="111.368" x2="77.4462" y2="88.6411" gradientUnits="userSpaceOnUse">
<stop stop-color="#162C56"/>
<stop offset="1" stop-color="#11559C"/>
</linearGradient>
<linearGradient id="paint3_linear_107_236" x1="75.195" y1="201.09" x2="75.195" y2="153.545" gradientUnits="userSpaceOnUse">
<stop stop-color="#162C56"/>
<stop offset="1" stop-color="#11559C"/>
</linearGradient>
<linearGradient id="paint4_linear_107_236" x1="142.305" y1="195.8" x2="74.3568" y2="114.439" gradientUnits="userSpaceOnUse">
<stop stop-color="#2F60BC"/>
<stop offset="0.297283" stop-color="#9BC5F3"/>
<stop offset="0.580086" stop-color="#AEDAF8"/>
<stop offset="0.757014" stop-color="#87CFEA"/>
</linearGradient>
<linearGradient id="paint5_linear_107_236" x1="142.305" y1="195.8" x2="74.3568" y2="114.439" gradientUnits="userSpaceOnUse">
<stop stop-color="#2F60BC"/>
<stop offset="0.297283" stop-color="#9BC5F3"/>
<stop offset="0.580086" stop-color="#AEDAF8"/>
<stop offset="0.757014" stop-color="#87CFEA"/>
</linearGradient>
<linearGradient id="paint6_linear_107_236" x1="75.092" y1="201.09" x2="75.092" y2="153.545" gradientUnits="userSpaceOnUse">
<stop stop-color="#162C56"/>
<stop offset="1" stop-color="#11559C"/>
</linearGradient>
<linearGradient id="paint7_linear_107_236" x1="7.28059" y1="197.106" x2="75.2287" y2="115.746" gradientUnits="userSpaceOnUse">
<stop stop-color="#2F60BC"/>
<stop offset="0.297283" stop-color="#9BC5F3"/>
<stop offset="0.580086" stop-color="#AEDAF8"/>
<stop offset="0.757014" stop-color="#87CFEA"/>
</linearGradient>
<linearGradient id="paint8_linear_107_236" x1="7.28059" y1="197.106" x2="75.2287" y2="115.746" gradientUnits="userSpaceOnUse">
<stop stop-color="#2F60BC"/>
<stop offset="0.297283" stop-color="#9BC5F3"/>
<stop offset="0.580086" stop-color="#AEDAF8"/>
<stop offset="0.757014" stop-color="#87CFEA"/>
</linearGradient>
</defs>
</svg>
