<svg width="118" height="83" viewBox="0 0 118 83" fill="none" xmlns="http://www.w3.org/2000/svg">
<path d="M58.6511 56.9496C53.6985 48.59 39.7093 32.7416 32.8451 25.8624C38.2322 18.9832 50.9875 4.17978 58.9118 0C65.0809 4.61518 78.8267 16.2489 84.4571 25.8624C80.2865 28.9972 64.6465 47.8063 58.6511 56.9496Z" fill="url(#paint0_linear_107_235)"/>
<path d="M58.6511 57.2109C53.6985 48.8514 39.7093 33.003 32.8451 26.1238C33.8683 26.3801 36.5729 26.7425 39.3618 27.7047C45.0991 29.6841 52.8779 33.1176 58.9118 35.7895C64.6119 33.1117 72.9901 29.6777 78.7225 27.7047C81.3786 26.7905 83.4667 26.19 84.4571 26.1238C80.2865 29.2586 64.6465 48.0676 58.6511 57.2109Z" fill="url(#paint1_linear_107_235)"/>
<path d="M39.3618 27.4433C36.5729 26.4811 33.8683 26.1188 32.8451 25.8624C38.2322 18.9832 50.9875 4.17978 58.9118 0C65.0809 4.61518 78.8267 16.2489 84.4571 25.8624C83.4667 25.9286 81.3786 26.5291 78.7225 27.4433C75.3338 22.7276 65.6891 13.0618 58.9118 7.57586C51.8738 12.5394 45.3571 19.7796 39.3618 27.4433Z" fill="url(#paint2_linear_107_235)"/>
<path d="M92.0164 45.0992C95.5615 65.5802 82.198 78.1892 75.0731 81.9336C85.326 79.4084 107.656 71.0663 114.955 57.9C122.254 44.7337 108.786 32.0375 101.14 27.3351C96.6215 24.7228 88.4714 24.6183 92.0164 45.0992Z" fill="url(#paint3_linear_107_235)"/>
<path d="M101.916 28.089C101.651 27.9164 101.392 27.7523 101.14 27.5969C101.385 27.7355 101.646 27.8995 101.916 28.089C109.653 33.1389 122.012 45.4306 114.955 58.1618C107.656 71.3281 85.3258 79.6701 75.0729 82.1954C82.0433 79.496 97.745 70.6489 104.789 56.8556C113.075 40.6305 106.228 31.1139 101.916 28.089Z" fill="url(#paint4_linear_107_235)"/>
<path d="M75.0729 82.1962C82.1911 78.4553 95.5362 65.8665 92.0262 45.4197C92.0228 45.4003 92.0195 45.381 92.0163 45.3618C92.0196 45.3811 92.0229 45.4004 92.0262 45.4197C92.7007 49.2699 96.1733 56.8564 104.789 56.8564C97.7451 70.6497 82.0433 79.4968 75.0729 82.1962Z" fill="url(#paint5_linear_107_235)"/>
<path d="M25.0387 45.0992C21.4937 65.5802 34.8572 78.1892 41.9821 81.9336C31.7292 79.4084 9.39875 71.0663 2.10008 57.9C-5.19859 44.7337 8.26919 32.0375 15.9154 27.3351C20.4336 24.7228 28.5838 24.6183 25.0387 45.0992Z" fill="url(#paint6_linear_107_235)"/>
<path d="M15.1395 28.089C15.4039 27.9164 15.6629 27.7523 15.9156 27.5969C15.6698 27.7355 15.4096 27.8995 15.1395 28.089C7.40194 33.1389 -4.95718 45.4306 2.10029 58.1618C9.39896 71.3281 31.7294 79.6701 41.9823 82.1954C35.0119 79.496 19.3101 70.6489 12.2663 56.8556C3.98056 40.6305 10.8277 31.1139 15.1395 28.089Z" fill="url(#paint7_linear_107_235)"/>
<path d="M41.9821 82.1962C34.8639 78.4553 21.5188 65.8665 25.0288 45.4197C25.0322 45.4003 25.0355 45.381 25.0388 45.3618C25.0354 45.3811 25.0321 45.4004 25.0288 45.4197C24.3543 49.2699 20.8817 56.8564 12.2661 56.8564C19.3099 70.6497 35.0117 79.4968 41.9821 82.1962Z" fill="url(#paint8_linear_107_235)"/>
<defs>
<linearGradient id="paint0_linear_107_235" x1="58.3905" y1="29.781" x2="58.9141" y2="9.14333" gradientUnits="userSpaceOnUse">
<stop stop-color="#1350A8"/>
<stop offset="1" stop-color="#76C3EE"/>
</linearGradient>
<linearGradient id="paint1_linear_107_235" x1="58.3905" y1="50.4188" x2="58.3905" y2="36.312" gradientUnits="userSpaceOnUse">
<stop stop-color="#073185"/>
</linearGradient>
<linearGradient id="paint2_linear_107_235" x1="58.3905" y1="27.6911" x2="58.3905" y2="2.35113" gradientUnits="userSpaceOnUse">
<stop stop-color="#1660CA"/>
<stop offset="0.335408" stop-color="#539BE4"/>
<stop offset="0.651811" stop-color="#8DCAF0"/>
<stop offset="0.918255" stop-color="#C7F8FC"/>
</linearGradient>
<linearGradient id="paint3_linear_107_235" x1="95.9264" y1="69.6552" x2="100.9" y2="36.4813" gradientUnits="userSpaceOnUse">
<stop stop-color="#5E93D7"/>
<stop offset="1" stop-color="#AAD7FB"/>
</linearGradient>
<linearGradient id="paint4_linear_107_235" x1="99.3149" y1="72.101" x2="112.919" y2="41.297" gradientUnits="userSpaceOnUse">
<stop stop-color="#002762"/>
<stop offset="1" stop-color="#3269AD"/>
</linearGradient>
<linearGradient id="paint5_linear_107_235" x1="89.6703" y1="77.4934" x2="98.0429" y2="56.8689" gradientUnits="userSpaceOnUse">
<stop offset="0.226429" stop-color="#2B59AE"/>
<stop offset="1" stop-color="#4484CB" stop-opacity="0"/>
</linearGradient>
<linearGradient id="paint6_linear_107_235" x1="21.1287" y1="69.6552" x2="16.1549" y2="36.4813" gradientUnits="userSpaceOnUse">
<stop stop-color="#5E93D7"/>
<stop offset="1" stop-color="#AAD7FB"/>
</linearGradient>
<linearGradient id="paint7_linear_107_235" x1="17.7403" y1="72.101" x2="4.13598" y2="41.297" gradientUnits="userSpaceOnUse">
<stop stop-color="#002762"/>
<stop offset="1" stop-color="#3269AD"/>
</linearGradient>
<linearGradient id="paint8_linear_107_235" x1="27.3848" y1="77.4934" x2="19.0121" y2="56.8689" gradientUnits="userSpaceOnUse">
<stop offset="0.226429" stop-color="#2B59AE"/>
<stop offset="1" stop-color="#4484CB" stop-opacity="0"/>
</linearGradient>
</defs>
</svg>
