<svg width="215" height="120" viewBox="0 0 215 120" fill="none" xmlns="http://www.w3.org/2000/svg">
<path d="M106.873 119.648C100.878 109.459 88.8873 95.6142 67.252 98.4876C61.1698 84.1196 39.4128 53.868 0 49.8972C35.8677 47.1803 52.1333 60.0857 59.6927 65.5717C67.252 71.0577 106.873 100.316 106.873 119.648C108.959 105.541 123.295 90.6504 138.675 77.8498C145.104 72.538 159.163 61.3919 163.959 59.302C169.955 56.6897 180.121 50.9425 189.244 49.8975C196.543 49.0615 208.881 49.5487 214.268 49.897C188.723 49.897 152.751 76.2824 147.016 98.4876C126.58 93.2629 111.739 110.417 106.873 119.648Z" fill="url(#paint0_linear_108_245)"/>
<path d="M144.149 61.7827C165.784 36.704 196.021 42.8431 214.268 49.8965C208.881 49.5482 196.543 49.1911 189.244 50.027C180.121 51.072 169.955 56.8192 163.959 59.4315C159.163 61.5214 145.104 72.6675 138.675 77.9793C123.494 90.6143 109.33 105.286 106.96 119.229C106.932 119.414 106.903 119.597 106.873 119.777C106.859 119.38 106.842 118.965 106.82 118.532C105.204 99.2128 67.0914 71.0706 59.6927 65.7012C52.1333 60.2152 35.8677 47.1796 0 49.8965C14.5973 41.7981 44.574 34.1438 68.5553 60.4765C73.5949 67.9653 86.4665 83.7854 94.8827 90.7799C104.969 99.1623 106.465 111.267 106.82 118.532C106.855 118.951 106.873 119.366 106.873 119.777C106.9 119.595 106.929 119.412 106.96 119.229C108.101 111.82 108.469 100.688 120.167 89.4737C129.359 80.6626 136.85 70.9259 144.149 61.7827Z" fill="url(#paint1_linear_108_245)"/>
<path d="M68.3539 60.7156C57.5831 14.2446 153.995 10.3504 144.538 62.0136C137.182 71.1001 129.632 80.7763 120.369 89.5327C108.285 100.956 108.197 112.292 106.971 119.648C106.092 111.811 105.658 99.6577 94.8868 90.8308C86.4049 83.8797 73.4328 68.1578 68.3539 60.7156Z" fill="url(#paint2_linear_108_245)"/>
<path d="M143.941 62.2477C153.325 10.2616 57.66 14.1802 68.3474 60.9415C71.1622 22.7292 142.064 21.423 143.941 62.2477Z" fill="url(#paint3_linear_108_245)"/>
<path d="M23.1994 33.4386C10.8959 39.2903 2.69362 46.413 6.10352e-05 49.8962C14.5974 41.7978 44.5741 34.5355 68.5554 60.8681C57.8681 14.1068 153.533 10.1882 144.149 62.1743C165.784 37.0956 196.021 42.8428 214.268 49.8962C187.68 27.4298 177.192 27.2609 168.391 29.781C161.092 31.8709 153.185 43.5394 149.101 49.3737L155.357 37.0956C162.656 19.854 151.708 16.4578 145.452 16.4578C139.196 16.4578 136.068 16.4578 121.992 15.413C110.731 14.5771 106.178 4.78936 105.309 0C102.442 15.9354 84.9774 16.7191 75.8541 16.4578C68.5554 16.2488 63.7765 17.5899 62.2994 18.2866C50.5694 23.8186 58.3894 38.9242 62.2994 47.8063C57.0861 39.708 51.2645 33.6126 48.2234 31.8711C45.0085 29.9554 35.5029 27.5869 23.1994 33.4386Z" fill="url(#paint4_linear_108_245)"/>
<defs>
<linearGradient id="paint0_linear_108_245" x1="107.125" y1="108.153" x2="107.125" y2="49.6358" gradientUnits="userSpaceOnUse">
<stop stop-color="#01585F"/>
<stop offset="0.30739" stop-color="#026D74"/>
<stop offset="0.500412" stop-color="#00807B"/>
<stop offset="0.695865" stop-color="#04A387"/>
<stop offset="1" stop-color="#35C39D"/>
</linearGradient>
<linearGradient id="paint1_linear_108_245" x1="107.134" y1="87.7758" x2="107.134" y2="42.3206" gradientUnits="userSpaceOnUse">
<stop stop-color="#33B6A0"/>
<stop offset="0.388465" stop-color="#82EACC"/>
<stop offset="0.897525" stop-color="#DBFCE9"/>
</linearGradient>
<linearGradient id="paint2_linear_108_245" x1="106.604" y1="79.4175" x2="106.089" y2="33.1787" gradientUnits="userSpaceOnUse">
<stop stop-color="#0D9087"/>
<stop offset="0.402348" stop-color="#1CC0A5"/>
<stop offset="0.759515" stop-color="#89E9CD"/>
<stop offset="1" stop-color="#CCF8E7"/>
</linearGradient>
<linearGradient id="paint3_linear_108_245" x1="106.092" y1="34.2236" x2="106.051" y2="24.5579" gradientUnits="userSpaceOnUse">
<stop stop-color="#C4F5E0"/>
<stop offset="1" stop-color="#F3FFFF"/>
</linearGradient>
<linearGradient id="paint4_linear_108_245" x1="107.134" y1="58.2557" x2="107.134" y2="2.35113" gradientUnits="userSpaceOnUse">
<stop stop-color="#00957C"/>
<stop offset="0.332644" stop-color="#2FBC99"/>
<stop offset="0.676325" stop-color="#9CEBD1"/>
<stop offset="1" stop-color="#D9FAE7"/>
</linearGradient>
</defs>
</svg>
