<svg width="380" height="197" viewBox="0 0 380 197" fill="none" xmlns="http://www.w3.org/2000/svg">
<path d="M142.607 173.832C164.697 161.634 157.872 144.846 150.215 138.536C137.536 128.089 115.841 138.536 107.67 157.455C101.133 172.59 106.449 189.739 109.924 196.422C111.614 193.975 120.518 186.031 142.607 173.832Z" fill="url(#paint0_linear_108_248)"/>
<path d="M107.324 157.455C100.787 172.59 106.103 189.739 109.578 196.422C109.578 171.122 136.72 147.105 150.15 138.352C137.471 127.904 115.495 138.536 107.324 157.455Z" fill="url(#paint1_linear_108_248)"/>
<path d="M1.52588e-05 117.823C59.0104 48.5017 120.507 87.6733 120.507 115.438C120.126 126.132 116.018 139.046 100.633 147.023C81.4024 156.994 58.8336 158.557 35.5643 142.275C13.1721 126.607 13.6986 126.133 1.52588e-05 117.823Z" fill="url(#paint2_linear_108_248)"/>
<path d="M1.52588e-05 117.823C59.0104 48.5017 120.507 87.6733 120.507 115.438C116.166 109.428 101.951 96.7415 79.822 94.0826C52.161 90.759 18.9672 100.968 1.52588e-05 117.823Z" fill="url(#paint3_linear_108_248)"/>
<path d="M100.633 147.148C116.018 139.171 120.126 126.257 120.507 115.563C113.97 122.293 95.0543 134.422 71.9189 135.753C59.5373 136.465 44.2579 134.091 25.2904 125.511C20.812 123.485 1.29227 116.551 7.62939e-05 117.948C13.6987 126.258 13.1721 126.732 35.5643 142.4C58.8336 158.682 81.4025 157.119 100.633 147.148Z" fill="url(#paint4_linear_108_248)"/>
<path d="M71.9189 135.753C95.0543 134.422 113.97 122.293 120.507 115.563C88.7789 142.163 41.887 133.018 25.2904 125.511C44.2579 134.091 59.5373 136.465 71.9189 135.753Z" fill="url(#paint5_linear_108_248)"/>
<path d="M142.951 81.108C150.093 58.408 145.297 2.04045 50.6202 0C42.4586 56.8776 100.356 94.1159 142.951 81.108Z" fill="url(#paint6_linear_108_248)"/>
<path d="M112.548 15.5574C137.636 34.5928 147.487 66.4297 142.949 80.8516C120.111 87.8261 81.6529 61.8315 62.5573 44.6338C110.898 44.6338 107.402 32.1579 112.548 15.5574Z" fill="url(#paint7_linear_108_248)"/>
<path d="M142.951 81.108C150.093 58.408 145.297 2.04045 50.6202 0C80.6555 6.3254 140.094 34.9428 142.951 81.108Z" fill="url(#paint8_linear_108_248)"/>
<path d="M143.156 81.108C100.561 94.1159 42.4084 56.8776 50.57 0C59.684 23.4652 100.255 71.926 143.156 81.108Z" fill="url(#paint9_linear_108_248)"/>
<path d="M236.49 174.354C214.4 162.155 221.225 145.368 228.882 139.057C241.561 128.61 263.256 139.057 271.427 157.976C277.964 173.111 272.648 190.26 269.173 196.943C267.482 194.496 258.579 186.552 236.49 174.354Z" fill="url(#paint10_linear_108_248)"/>
<path d="M271.773 157.978C278.31 173.113 272.994 190.262 269.519 196.945C269.519 171.645 242.377 147.628 228.947 138.875C241.626 128.427 263.602 139.059 271.773 157.978Z" fill="url(#paint11_linear_108_248)"/>
<path d="M379.542 117.824C320.532 48.5019 259.036 87.6736 259.035 115.438C259.416 126.132 263.524 139.047 278.909 147.023C298.14 156.994 320.709 158.557 343.978 142.275C366.37 126.607 365.844 126.133 379.542 117.824Z" fill="url(#paint12_linear_108_248)"/>
<path d="M379.542 117.824C320.532 48.5019 259.036 87.6736 259.035 115.438C263.377 109.428 277.592 96.7418 299.72 94.0829C327.381 90.7593 360.575 100.969 379.542 117.824Z" fill="url(#paint13_linear_108_248)"/>
<path d="M278.909 147.148C263.524 139.172 259.416 126.257 259.035 115.563C265.572 122.293 284.488 134.422 307.623 135.753C320.005 136.465 335.284 134.091 354.252 125.511C358.73 123.485 378.25 116.551 379.542 117.949C365.844 126.258 366.37 126.732 343.978 142.4C320.709 158.683 298.14 157.119 278.909 147.148Z" fill="url(#paint14_linear_108_248)"/>
<path d="M307.623 135.753C284.488 134.422 265.572 122.293 259.035 115.563C290.763 142.163 337.655 133.019 354.252 125.511C335.284 134.091 320.005 136.465 307.623 135.753Z" fill="url(#paint15_linear_108_248)"/>
<path d="M234.467 81.5868C227.325 58.8867 232.12 2.51921 326.797 0.47876C334.959 57.3564 277.061 94.5947 234.467 81.5868Z" fill="url(#paint16_linear_108_248)"/>
<path d="M264.869 16.0364C239.782 35.0718 229.931 66.9087 234.468 81.3306C257.306 88.3051 295.765 62.3105 314.86 45.1128C266.52 45.1128 270.015 32.6369 264.869 16.0364Z" fill="url(#paint17_linear_108_248)"/>
<path d="M234.467 81.5868C227.325 58.8867 232.12 2.51921 326.797 0.47876C296.762 6.80416 237.323 35.4215 234.467 81.5868Z" fill="url(#paint18_linear_108_248)"/>
<path d="M234.262 81.5868C276.856 94.5947 335.009 57.3564 326.847 0.47876C317.733 23.944 277.162 72.4047 234.262 81.5868Z" fill="url(#paint19_linear_108_248)"/>
<defs>
<linearGradient id="paint0_linear_108_248" x1="102.535" y1="200.755" x2="157.901" y2="134.518" gradientUnits="userSpaceOnUse">
<stop offset="0.0832449" stop-color="#00347F"/>
<stop offset="0.352553" stop-color="#055D8B"/>
<stop offset="0.658124" stop-color="#07898C"/>
<stop offset="0.941441" stop-color="#16A88D"/>
</linearGradient>
<linearGradient id="paint1_linear_108_248" x1="104.225" y1="190.59" x2="143.789" y2="131.937" gradientUnits="userSpaceOnUse">
<stop stop-color="#4B86CA"/>
<stop offset="0.309049" stop-color="#61C7D6"/>
<stop offset="0.573235" stop-color="#B5F2E7"/>
<stop offset="0.744859" stop-color="#E1FBF4"/>
<stop offset="0.891364" stop-color="#DEFAF3"/>
<stop offset="1" stop-color="#7BE6B8"/>
</linearGradient>
<linearGradient id="paint2_linear_108_248" x1="113.131" y1="112.477" x2="8.90771" y2="126.752" gradientUnits="userSpaceOnUse">
<stop stop-color="#44C2CA"/>
<stop offset="0.221727" stop-color="#41C1C5"/>
<stop offset="0.423772" stop-color="#3AD1B4"/>
<stop offset="0.645964" stop-color="#59DCB0"/>
<stop offset="1" stop-color="#17C193"/>
</linearGradient>
<linearGradient id="paint3_linear_108_248" x1="117.346" y1="105.83" x2="16.3369" y2="96.7815" gradientUnits="userSpaceOnUse">
<stop stop-color="#56D1B4"/>
<stop offset="0.31994" stop-color="#CBF9E7"/>
<stop offset="0.660711" stop-color="#F0FEF4"/>
<stop offset="0.888965" stop-color="#ACF3C9"/>
</linearGradient>
<linearGradient id="paint4_linear_108_248" x1="114.184" y1="137.404" x2="0.0132071" y2="134.579" gradientUnits="userSpaceOnUse">
<stop stop-color="#00347F"/>
<stop offset="0.261165" stop-color="#055D8B"/>
<stop offset="0.636627" stop-color="#07898C"/>
<stop offset="1" stop-color="#16A88D"/>
</linearGradient>
<linearGradient id="paint5_linear_108_248" x1="120.507" y1="125.717" x2="7.62939e-05" y2="125.717" gradientUnits="userSpaceOnUse">
<stop stop-color="#A6FAFF"/>
<stop offset="1" stop-color="white"/>
</linearGradient>
<linearGradient id="paint6_linear_108_248" x1="141.369" y1="79.5777" x2="49.8131" y2="-6.42506e-06" gradientUnits="userSpaceOnUse">
<stop offset="0.593138" stop-color="#4BD1B7"/>
<stop offset="0.700879" stop-color="#7AE7B9"/>
<stop offset="0.784675" stop-color="#8FEDBD"/>
<stop offset="0.934429" stop-color="#C2F5B7"/>
</linearGradient>
<linearGradient id="paint7_linear_108_248" x1="139.839" y1="81.617" x2="101.071" y2="29.3304" gradientUnits="userSpaceOnUse">
<stop offset="0.169191" stop-color="#2F60BC" stop-opacity="0.9"/>
<stop offset="0.499756" stop-color="#79B2E5" stop-opacity="0.6"/>
<stop offset="0.649773" stop-color="#82C3E8" stop-opacity="0.5"/>
<stop offset="0.919072" stop-color="#8AD3EA" stop-opacity="0"/>
</linearGradient>
<linearGradient id="paint8_linear_108_248" x1="136.268" y1="73.7114" x2="43.6828" y2="8.92699" gradientUnits="userSpaceOnUse">
<stop offset="0.0463599" stop-color="#2D9C84"/>
<stop offset="0.166875" stop-color="#56D7B3"/>
<stop offset="0.341378" stop-color="#AAF7D7"/>
<stop offset="0.599957" stop-color="#F6FDF9"/>
<stop offset="0.7453" stop-color="#F6FDF9" stop-opacity="0.976471"/>
<stop offset="0.933182" stop-color="#E3FCD4"/>
</linearGradient>
<linearGradient id="paint9_linear_108_248" x1="133.463" y1="83.6586" x2="45.9282" y2="7.65169" gradientUnits="userSpaceOnUse">
<stop stop-color="#00347F"/>
<stop offset="0.236352" stop-color="#055D8B"/>
<stop offset="0.55659" stop-color="#07898C"/>
<stop offset="0.743206" stop-color="#16A88D"/>
<stop offset="1" stop-color="#57C49C"/>
</linearGradient>
<linearGradient id="paint10_linear_108_248" x1="276.562" y1="201.277" x2="221.196" y2="135.039" gradientUnits="userSpaceOnUse">
<stop offset="0.0832449" stop-color="#00347F"/>
<stop offset="0.352553" stop-color="#055D8B"/>
<stop offset="0.658124" stop-color="#07898C"/>
<stop offset="0.941441" stop-color="#16A88D"/>
</linearGradient>
<linearGradient id="paint11_linear_108_248" x1="274.872" y1="191.113" x2="235.308" y2="132.46" gradientUnits="userSpaceOnUse">
<stop stop-color="#4B86CA"/>
<stop offset="0.309049" stop-color="#61C7D6"/>
<stop offset="0.573235" stop-color="#B5F2E7"/>
<stop offset="0.744859" stop-color="#E1FBF4"/>
<stop offset="0.891364" stop-color="#DEFAF3"/>
<stop offset="1" stop-color="#7BE6B8"/>
</linearGradient>
<linearGradient id="paint12_linear_108_248" x1="266.412" y1="112.478" x2="370.635" y2="126.752" gradientUnits="userSpaceOnUse">
<stop stop-color="#44C2CA"/>
<stop offset="0.221727" stop-color="#41C1C5"/>
<stop offset="0.423772" stop-color="#3AD1B4"/>
<stop offset="0.645964" stop-color="#59DCB0"/>
<stop offset="1" stop-color="#17C193"/>
</linearGradient>
<linearGradient id="paint13_linear_108_248" x1="262.197" y1="105.83" x2="363.205" y2="96.7818" gradientUnits="userSpaceOnUse">
<stop stop-color="#56D1B4"/>
<stop offset="0.31994" stop-color="#CBF9E7"/>
<stop offset="0.660711" stop-color="#F0FEF4"/>
<stop offset="0.888965" stop-color="#ACF3C9"/>
</linearGradient>
<linearGradient id="paint14_linear_108_248" x1="265.358" y1="137.404" x2="379.529" y2="134.579" gradientUnits="userSpaceOnUse">
<stop stop-color="#00347F"/>
<stop offset="0.261165" stop-color="#055D8B"/>
<stop offset="0.636627" stop-color="#07898C"/>
<stop offset="1" stop-color="#16A88D"/>
</linearGradient>
<linearGradient id="paint15_linear_108_248" x1="259.035" y1="125.718" x2="379.542" y2="125.718" gradientUnits="userSpaceOnUse">
<stop stop-color="#A6FAFF"/>
<stop offset="1" stop-color="white"/>
</linearGradient>
<linearGradient id="paint16_linear_108_248" x1="236.048" y1="80.0564" x2="327.604" y2="0.478753" gradientUnits="userSpaceOnUse">
<stop offset="0.593138" stop-color="#4BD1B7"/>
<stop offset="0.700879" stop-color="#7AE7B9"/>
<stop offset="0.784675" stop-color="#8FEDBD"/>
<stop offset="0.934429" stop-color="#C2F5B7"/>
</linearGradient>
<linearGradient id="paint17_linear_108_248" x1="237.578" y1="82.096" x2="276.347" y2="29.8094" gradientUnits="userSpaceOnUse">
<stop offset="0.169191" stop-color="#2F60BC" stop-opacity="0.9"/>
<stop offset="0.499756" stop-color="#79B2E5" stop-opacity="0.6"/>
<stop offset="0.649773" stop-color="#82C3E8" stop-opacity="0.5"/>
<stop offset="0.919072" stop-color="#8AD3EA" stop-opacity="0"/>
</linearGradient>
<linearGradient id="paint18_linear_108_248" x1="241.149" y1="74.1901" x2="333.735" y2="9.40575" gradientUnits="userSpaceOnUse">
<stop offset="0.0463599" stop-color="#2D9C84"/>
<stop offset="0.166875" stop-color="#56D7B3"/>
<stop offset="0.341378" stop-color="#AAF7D7"/>
<stop offset="0.599957" stop-color="#F6FDF9"/>
<stop offset="0.7453" stop-color="#F6FDF9" stop-opacity="0.976471"/>
<stop offset="0.933182" stop-color="#E3FCD4"/>
</linearGradient>
<linearGradient id="paint19_linear_108_248" x1="243.954" y1="84.1373" x2="331.489" y2="8.13045" gradientUnits="userSpaceOnUse">
<stop stop-color="#00347F"/>
<stop offset="0.236352" stop-color="#055D8B"/>
<stop offset="0.55659" stop-color="#07898C"/>
<stop offset="0.743206" stop-color="#16A88D"/>
<stop offset="1" stop-color="#57C49C"/>
</linearGradient>
</defs>
</svg>
