<svg width="427" height="427" viewBox="0 0 427 427" fill="none" xmlns="http://www.w3.org/2000/svg">
<path fill-rule="evenodd" clip-rule="evenodd" d="M193.323 167.638C193.014 168.245 192.566 168.906 192.318 169.894C192.231 170.244 192.099 171.008 192.099 172.041V172.135L192.309 173.185L192.325 173.271L192.358 173.353L192.788 174.427L193.438 175.294L193.511 175.391L193.605 175.467L194.562 176.233L194.696 176.339L194.858 176.394C196.069 176.797 198.997 177.516 201.509 175.46C203.691 173.675 203.008 171.092 203.008 170.509V170.369L202.968 170.234L202.394 168.32L202.37 168.241L202.333 168.167L202.068 167.638H212.203V180.091L213.571 179.44L215.531 178.507L217.633 177.777C218.698 177.527 219.917 178.099 220.714 178.896C221.578 179.76 221.582 180.761 221.582 181.09V181.129L221.585 181.169C221.601 181.368 221.529 181.996 221.289 182.733C221.049 183.471 220.717 184.072 220.385 184.357C220.1 184.601 219.528 184.766 218.781 184.808C218.078 184.848 217.425 184.769 217.179 184.72L213.393 183.773L212.203 183.475V195.747C196.835 195.351 184.443 182.993 183.994 167.638H193.323ZM226.207 159.82C227.831 158.491 229.773 158.828 230.891 159.176L231.606 159.75L232.032 160.317L232.336 161.076L232.49 161.847C232.483 162.68 232.376 163.253 232.329 163.44C232.143 164.182 231.9 164.439 231.444 165.35L231.432 165.375L231.421 165.401L230.847 166.741L230.274 168.075H241.914C241.252 183.095 229.157 195.143 214.117 195.732V185.927L216.756 186.586L216.778 186.592L216.801 186.596L217.17 186.656C217.607 186.713 218.232 186.755 218.889 186.718C219.724 186.671 220.843 186.484 221.63 185.81C222.369 185.177 222.835 184.163 223.108 183.326C223.369 182.525 223.523 181.66 223.495 181.09H223.496C223.496 180.655 223.499 178.975 222.067 177.542C221.021 176.497 219.129 175.428 217.139 175.925L217.097 175.935L217.057 175.95L214.855 176.715L214.806 176.733L214.758 176.755L214.117 177.061V168.075H227.532L225.92 164.85L225.407 163.139C225.376 161.875 224.987 160.819 226.207 159.82ZM212.387 147.872L209.748 147.212L209.726 147.207L209.703 147.203L209.334 147.143C208.897 147.086 208.272 147.044 207.615 147.081C206.78 147.128 205.661 147.315 204.874 147.989C204.135 148.622 203.669 149.636 203.396 150.473C203.135 151.274 202.981 152.138 203.009 152.708H203.008C203.008 153.144 203.005 154.824 204.437 156.256C205.482 157.302 207.374 158.371 209.365 157.874L209.407 157.864L209.447 157.849L211.648 157.083L211.698 157.066L211.746 157.043L212.387 156.738V165.724H198.972L200.584 168.949L201.097 170.66C201.128 171.924 201.517 172.98 200.297 173.979C198.673 175.308 196.731 174.971 195.613 174.623L194.897 174.049L194.472 173.482L194.168 172.723L194.014 171.952C194.021 171.119 194.128 170.546 194.175 170.359C194.36 169.617 194.604 169.36 195.06 168.449L195.072 168.424L195.083 168.398L195.657 167.058L196.229 165.724H184.002C184.549 150.396 196.997 138.101 212.387 137.801V147.872ZM214.301 137.827C229.482 138.517 241.618 150.885 241.937 166.161H233.181C233.49 165.553 233.938 164.893 234.186 163.905C234.273 163.555 234.405 162.791 234.405 161.758V161.664L234.195 160.614L234.179 160.528L234.146 160.446L233.716 159.372L233.065 158.504L232.993 158.408L232.898 158.332L231.941 157.566L231.808 157.459L231.646 157.405C230.435 157.001 227.507 156.283 224.995 158.338C222.813 160.124 223.496 162.707 223.496 163.29V163.43L223.536 163.565L224.11 165.479L224.134 165.558L224.171 165.631L224.436 166.161H214.301V153.708L212.933 154.359L210.973 155.292L208.871 156.022C207.806 156.272 206.587 155.7 205.79 154.903C204.926 154.038 204.922 153.038 204.922 152.708V152.669L204.919 152.629C204.903 152.43 204.975 151.802 205.215 151.066C205.455 150.328 205.787 149.727 206.119 149.442C206.404 149.198 206.976 149.033 207.723 148.991C208.426 148.951 209.079 149.03 209.325 149.079L213.111 150.026L214.301 150.324V137.827Z" fill="url(#paint0_linear_188_85)"/>
<circle cx="193.28" cy="178.29" r="6.04307" fill="#7894D2"/>
<path d="M183.811 199.442C183.033 200.802 181.324 202.33 180.536 202.33C179.222 202.33 178.04 201.41 177.777 200.753C177.57 200.37 177.63 199.088 178.04 198.52C178.491 197.897 180.644 195.218 181.247 194.615C181.851 194.011 186.527 190.391 188.94 190.09C191.353 189.788 202.063 184.961 204.476 182.849C206.89 180.738 207.493 178.626 208.85 177.872C210.208 177.118 215.858 177.072 216.845 177.872C217.846 178.683 220.163 182.095 222.275 184.056C223.964 185.625 229.616 187.727 232.23 188.581C235.046 189.687 241.22 192.322 243.392 194.011C245.564 195.701 247.589 198.303 248.192 199.308C248.455 199.965 248.039 200.873 247.141 201.804C246.064 202.922 244.448 202.458 243.996 202.308C243.543 202.157 242.638 200.799 241.281 199.14C240.195 197.813 237.309 196.073 236.001 195.369C236.001 197.883 235.874 202.983 235.85 203.363C235.763 204.766 235.85 206.508 235.096 206.35H224.688C223.414 206.35 223.606 203.066 223.573 202.708C223.516 202.108 223.281 194.464 223.331 190.693C222.426 190.241 220.314 189.155 219.107 188.43C217.599 187.525 212.621 181.492 212.621 181.794C212.621 182.095 208.096 186.771 207.04 187.676C206.196 188.4 203.169 189.989 201.761 190.693C201.811 194.866 201.616 203.173 201.61 203.514C201.567 206.033 200.775 205.875 200.554 205.86C197.538 205.86 191.233 205.799 190.147 205.558C189.061 205.317 188.789 202.861 188.789 202.609V195.369C187.482 196.224 184.543 198.163 183.811 199.442Z" fill="url(#paint1_linear_188_85)"/>
<circle cx="231.902" cy="178.29" r="6.04307" fill="#00AD8B"/>
<path d="M177.876 166.419L178.412 166.419L177.876 166.419ZM184.568 149.078C184.531 148.785 184.263 148.577 183.969 148.614L179.186 149.215C178.893 149.252 178.685 149.52 178.722 149.813C178.759 150.107 179.027 150.315 179.32 150.278L183.572 149.743L184.106 153.995C184.143 154.288 184.411 154.496 184.704 154.459C184.998 154.423 185.206 154.155 185.169 153.861L184.568 149.078ZM182.871 181.685L183.271 181.329C179.47 177.047 178.412 171.843 178.412 166.419L177.876 166.419L177.341 166.419C177.341 171.976 178.425 177.484 182.47 182.04L182.871 181.685ZM177.876 166.419L178.412 166.419C178.412 161.037 179.846 155.414 184.459 149.474L184.036 149.145L183.613 148.816C178.845 154.956 177.341 160.814 177.341 166.419L177.876 166.419Z" fill="url(#paint2_linear_188_85)"/>
<path d="M168.438 176.024C175.317 154.159 170.698 99.8667 79.506 97.9014C71.6448 152.685 127.412 188.553 168.438 176.024Z" fill="url(#paint3_linear_188_85)"/>
<path d="M139.155 112.884C163.319 131.219 172.807 161.884 168.437 175.775C146.439 182.493 109.396 157.455 91.0037 140.891C137.565 140.891 134.198 128.874 139.155 112.884Z" fill="url(#paint4_linear_188_85)"/>
<path d="M168.438 176.024C175.317 154.16 170.698 99.8667 79.506 97.9014C108.436 103.994 165.687 131.558 168.438 176.024Z" fill="url(#paint5_linear_188_85)"/>
<path d="M168.636 176.024C127.609 188.553 71.5968 152.685 79.458 97.9014C88.2365 120.503 127.314 167.18 168.636 176.024Z" fill="url(#paint6_linear_188_85)"/>
<path d="M280.866 301.19C292.517 328.177 275.005 342.45 275.005 342.45C273.193 338.817 264.813 328.956 252.902 324.285C243.374 320.548 234.087 312.175 230.635 308.456C218.207 294.755 213.719 279.74 213.028 273.944C207.643 303.214 184.116 319.787 173.155 324.544C163.057 329.994 159.261 331.818 150.976 342.198C123.53 313.914 158.397 279.653 173.414 270.571C179.258 268.604 192.417 261.832 194.098 250.487C197.774 243.134 204.183 228.112 204.603 226.852C205.023 225.591 215.539 221.887 221.889 226.995C218.344 238.087 228.145 261.739 248.894 269.228C251.359 271.5 254.328 273.267 257.304 275.242C272.632 285.414 279.399 296.779 280.866 301.19Z" fill="url(#paint7_linear_188_85)"/>
<path d="M275.006 342.195C275.508 330.872 252.66 312.756 239.605 303.446C235.363 300.421 227.353 292.878 224.54 288.852C231.319 294.891 235.838 297.659 246.886 303.322C268.578 313.588 276.512 333.389 275.006 342.195Z" fill="url(#paint8_linear_188_85)"/>
<path d="M252.409 269.477C241.864 262.935 229.81 254.549 225.042 246.831C227.304 252.954 236.542 264.376 252.409 274.761C272.4 287.845 282.516 306.133 284.547 322.569C288.313 299.42 264.261 276.829 252.409 269.477Z" fill="url(#paint9_linear_188_85)"/>
<path d="M173.291 324.608C163.193 330.057 159.261 331.818 150.976 342.197C150.134 331.118 171.951 313.828 185.257 304.518C195.903 297.07 208.124 281.075 212.991 274.008C207.605 303.278 184.252 319.851 173.291 324.608Z" fill="url(#paint10_linear_188_85)" stroke="black" stroke-width="0.132397"/>
<path d="M168.107 265.335C189.383 253.586 182.81 237.416 175.434 231.338C163.222 221.275 142.326 231.338 134.456 249.56C128.16 264.138 133.28 280.656 136.627 287.093C138.255 284.736 146.831 277.084 168.107 265.335Z" fill="url(#paint11_linear_188_85)"/>
<path d="M134.123 249.56C127.827 264.138 132.947 280.656 136.295 287.093C136.295 262.724 162.438 239.591 175.374 231.16C163.161 221.097 141.994 231.338 134.123 249.56Z" fill="url(#paint12_linear_188_85)"/>
<path d="M258.535 265.838C237.258 254.089 243.832 237.919 251.207 231.841C263.419 221.778 284.316 231.841 292.186 250.064C298.482 264.641 293.362 281.159 290.015 287.596C288.387 285.239 279.811 277.587 258.535 265.838Z" fill="url(#paint13_linear_188_85)"/>
<path d="M292.52 250.065C298.816 264.643 293.696 281.161 290.349 287.598C290.349 263.229 264.206 240.097 251.27 231.665C263.482 221.602 284.65 231.843 292.52 250.065Z" fill="url(#paint14_linear_188_85)"/>
<path d="M213.243 359.057C208.472 351.005 194.998 335.74 188.387 329.114C193.576 322.488 205.861 308.23 213.494 304.204C219.436 308.649 232.676 319.854 238.099 329.114C234.082 332.134 219.018 350.25 213.243 359.057Z" fill="url(#paint15_linear_188_85)"/>
<path d="M213.243 359.308C208.472 351.256 194.998 335.991 188.387 329.365C189.372 329.612 191.977 329.961 194.664 330.887C200.19 332.794 207.682 336.101 213.494 338.675C218.984 336.096 227.054 332.788 232.575 330.887C235.134 330.007 237.145 329.429 238.099 329.365C234.082 332.384 219.018 350.501 213.243 359.308Z" fill="url(#paint16_linear_188_85)"/>
<path d="M194.664 330.637C191.977 329.71 189.372 329.361 188.387 329.114C193.576 322.488 205.861 308.23 213.494 304.204C219.436 308.649 232.676 319.854 238.099 329.114C237.145 329.178 235.134 329.756 232.575 330.637C229.311 326.095 220.022 316.785 213.494 311.501C206.715 316.281 200.438 323.255 194.664 330.637Z" fill="url(#paint17_linear_188_85)"/>
<path d="M245.379 347.641C248.794 367.368 235.922 379.513 229.06 383.119C238.935 380.687 260.444 372.652 267.474 359.97C274.504 347.289 261.532 335.06 254.167 330.531C249.815 328.014 241.965 327.914 245.379 347.641Z" fill="url(#paint18_linear_188_85)"/>
<path d="M254.914 331.259C254.66 331.093 254.41 330.935 254.167 330.785C254.404 330.919 254.654 331.077 254.914 331.259C262.367 336.123 274.271 347.963 267.474 360.225C260.444 372.907 238.935 380.942 229.06 383.374C235.773 380.774 250.897 372.253 257.682 358.967C265.663 343.339 259.067 334.173 254.914 331.259Z" fill="url(#paint19_linear_188_85)"/>
<path d="M229.06 383.373C235.916 379.77 248.77 367.645 245.389 347.95C245.386 347.932 245.382 347.913 245.379 347.895C245.382 347.913 245.386 347.932 245.389 347.95C246.039 351.659 249.383 358.966 257.682 358.966C250.897 372.252 235.773 380.773 229.06 383.373Z" fill="url(#paint20_linear_188_85)"/>
<path d="M180.868 347.641C177.454 367.368 190.325 379.513 197.188 383.119C187.312 380.687 165.804 372.652 158.774 359.97C151.744 347.289 164.716 335.06 172.081 330.531C176.433 328.014 184.283 327.914 180.868 347.641Z" fill="url(#paint21_linear_188_85)"/>
<path d="M171.333 331.259C171.588 331.093 171.837 330.935 172.081 330.785C171.844 330.919 171.593 331.077 171.333 331.259C163.88 336.123 151.976 347.963 158.774 360.225C165.804 372.907 187.312 380.942 197.188 383.374C190.474 380.774 175.35 372.253 168.566 358.967C160.585 343.339 167.18 334.173 171.333 331.259Z" fill="url(#paint22_linear_188_85)"/>
<path d="M197.188 383.373C190.332 379.77 177.478 367.645 180.859 347.95C180.862 347.932 180.865 347.913 180.868 347.895C180.865 347.913 180.862 347.932 180.859 347.95C180.209 351.659 176.864 358.966 168.566 358.966C175.35 372.252 190.474 380.773 197.188 383.373Z" fill="url(#paint23_linear_188_85)"/>
<path d="M252.941 324.65C262.98 330.068 266.739 332.096 275.004 342.449C275.845 331.37 254.203 313.828 240.896 304.518C230.251 297.07 217.856 281.075 212.989 274.008C218.374 303.278 241.902 319.851 252.863 324.608L252.941 324.65Z" fill="url(#paint24_linear_188_85)"/>
<path d="M256.585 176.482C249.706 154.618 254.325 100.325 345.517 98.3596C353.379 153.144 297.612 189.011 256.585 176.482Z" fill="url(#paint25_linear_188_85)"/>
<path d="M285.869 113.344C261.705 131.679 252.217 162.344 256.587 176.235C278.585 182.953 315.627 157.915 334.02 141.351C287.459 141.351 290.826 129.334 285.869 113.344Z" fill="url(#paint26_linear_188_85)"/>
<path d="M256.585 176.482C249.706 154.618 254.325 100.325 345.517 98.3596C316.588 104.452 259.337 132.016 256.585 176.482Z" fill="url(#paint27_linear_188_85)"/>
<path d="M256.388 176.482C297.415 189.011 353.427 153.144 345.566 98.3596C336.787 120.961 297.71 167.638 256.388 176.482Z" fill="url(#paint28_linear_188_85)"/>
<path d="M30.749 211.386C87.5873 144.616 146.82 182.346 146.82 209.089C146.454 219.389 142.497 231.828 127.678 239.511C109.155 249.115 87.417 250.621 65.0042 234.938C43.4362 219.846 43.9434 219.39 30.749 211.386Z" fill="url(#paint29_linear_188_85)"/>
<path d="M30.749 211.386C87.5873 144.616 146.82 182.346 146.82 209.089C142.639 203.299 128.947 191.08 107.633 188.519C80.9901 185.318 49.0181 195.152 30.749 211.386Z" fill="url(#paint30_linear_188_85)"/>
<path d="M127.678 239.633C142.497 231.95 146.454 219.511 146.82 209.211C140.524 215.693 122.305 227.376 100.021 228.657C88.0948 229.343 73.3778 227.057 55.1085 218.793C50.7949 216.841 31.9936 210.162 30.749 211.508C43.9434 219.512 43.4362 219.968 65.0042 235.06C87.417 250.743 109.155 249.237 127.678 239.633Z" fill="url(#paint31_linear_188_85)"/>
<path d="M100.021 228.657C122.305 227.376 140.524 215.693 146.82 209.211C116.26 234.831 71.0942 226.024 55.1085 218.793C73.3778 227.057 88.0948 229.343 100.021 228.657Z" fill="url(#paint32_linear_188_85)"/>
<path d="M237.304 235.255C226.049 249.142 233.843 257.315 241.37 262.042C221.141 253.638 216.135 231.053 224.603 221.073C231.924 212.445 235.893 212.144 249.536 205.316C260.45 199.854 265.06 187.283 266.001 181.68C269.765 185.882 269.451 194.986 268.824 199.013C266.472 223.174 247.521 222.649 237.304 235.255Z" fill="url(#paint33_linear_188_85)"/>
<path d="M396.32 211.387C339.482 144.617 280.249 182.347 280.249 209.09C280.616 219.39 284.573 231.829 299.391 239.512C317.914 249.116 339.652 250.622 362.065 234.939C383.633 219.847 383.126 219.391 396.32 211.387Z" fill="url(#paint34_linear_188_85)"/>
<path d="M396.32 211.387C339.482 144.617 280.249 182.347 280.249 209.09C284.431 203.3 298.122 191.081 319.436 188.52C346.079 185.319 378.051 195.153 396.32 211.387Z" fill="url(#paint35_linear_188_85)"/>
<path d="M299.391 239.634C284.573 231.951 280.616 219.512 280.249 209.212C286.545 215.694 304.765 227.376 327.049 228.658C338.975 229.344 353.691 227.057 371.961 218.793C376.274 216.842 395.076 210.163 396.32 211.509C383.126 219.513 383.633 219.969 362.065 235.061C339.652 250.744 317.914 249.238 299.391 239.634Z" fill="url(#paint36_linear_188_85)"/>
<path d="M327.049 228.658C304.765 227.376 286.545 215.694 280.249 209.212C310.809 234.832 355.975 226.024 371.961 218.793C353.691 227.057 338.975 229.344 327.049 228.658Z" fill="url(#paint37_linear_188_85)"/>
<path d="M150.976 342.198C151.729 331.378 172.141 314.017 185.624 304.583C189.892 301.597 197.625 293.887 200.437 289.861C193.659 295.9 189.642 298.919 178.594 304.583C156.901 314.849 150.474 333.391 150.976 342.198Z" fill="url(#paint38_linear_188_85)"/>
<path d="M173.07 270.738C183.616 264.196 195.418 255.307 200.186 247.589C197.924 253.711 188.938 265.636 173.07 276.022C153.079 289.106 143.215 307.394 141.184 323.83C136.977 300.448 161.219 278.09 173.07 270.738Z" fill="url(#paint39_linear_188_85)"/>
<path d="M188.708 235.258C199.763 248.99 192.527 257.26 185.291 262.428C205.965 254.158 209.878 231.056 201.41 221.076C194.089 212.448 190.12 212.147 176.477 205.319C165.563 199.857 160.952 187.286 160.011 181.683C156.248 185.885 156.561 194.989 157.189 199.016C159.541 223.177 178.533 222.618 188.708 235.258Z" fill="url(#paint40_linear_188_85)"/>
<path d="M175.373 101.756C164.999 56.9956 257.862 53.2447 248.753 103.006C241.988 111.363 235.568 120.238 227.188 128.364C218.784 126.264 204.078 126.789 197.775 128.364C189.772 120.942 179.746 108.163 175.373 101.756Z" fill="url(#paint41_linear_188_85)"/>
<path d="M248.178 103.232C257.216 53.1592 165.073 56.9335 175.367 101.974C178.078 65.1679 246.37 63.9097 248.178 103.232Z" fill="url(#paint42_linear_188_85)"/>
<path d="M248.378 102.786C269.217 78.6303 298.341 84.5435 315.916 91.3372C310.727 91.0017 298.843 90.6578 291.813 91.463C283.026 92.4695 273.234 98.0051 267.459 100.521C262.839 102.534 249.298 113.27 243.105 118.386C238.956 121.84 234.886 125.451 231.132 129.159C230.925 128.954 227.944 128.496 226.479 128.293C234.789 120.118 241.668 111.192 248.378 102.786Z" fill="url(#paint43_linear_188_85)"/>
<path d="M175.567 101.528C152.468 76.1644 123.595 83.537 109.535 91.3372C144.082 88.7204 159.749 101.276 167.03 106.56C170.853 109.334 183.186 118.419 194.041 129.117C195.253 128.846 197.802 128.391 198.233 128.322L198.143 128.238C190.211 120.76 179.893 107.957 175.567 101.528Z" fill="url(#paint44_linear_188_85)"/>
<path d="M131.88 75.4851C120.029 81.1214 112.129 87.982 109.535 91.337C123.595 83.5367 152.468 76.5416 175.567 101.905C165.273 56.8649 257.416 53.0906 248.378 103.163C269.217 79.0075 298.341 84.5432 315.916 91.337C290.307 69.6975 280.204 69.5349 271.727 71.9621C264.697 73.9751 257.081 85.2142 253.148 90.8337L259.174 79.0075C266.204 62.4005 255.659 59.1294 249.633 59.1294C243.607 59.1294 240.594 59.1294 227.036 58.123C216.19 57.3179 211.805 47.8904 210.968 43.2773C208.206 58.6262 191.384 59.381 182.597 59.1294C175.567 58.9281 170.964 60.2198 169.541 60.8908C158.243 66.2193 165.775 80.7689 169.541 89.324C164.519 81.5237 158.912 75.6527 155.983 73.9754C152.886 72.1302 143.731 69.8488 131.88 75.4851Z" fill="url(#paint45_linear_188_85)"/>
<path d="M174.311 138.14C168.453 124.301 147.497 95.1626 109.535 91.338C144.082 88.7211 159.749 101.152 167.03 106.436C176.24 113.134 190.946 125.74 194.098 129.118C205.118 126.694 218.676 126.254 231.087 129.168C231.266 128.55 238.583 121.899 243.47 117.861C249.663 112.745 262.379 103.155 267.459 100.397C272.995 97.3915 283.026 92.3448 291.813 91.3383C298.843 90.5331 310.727 91.0024 315.916 91.3379C291.311 91.3379 256.663 116.752 251.139 138.14C245.364 133.788 238.426 130.892 231.087 129.168C218.676 126.254 205.118 126.694 194.098 129.118C185.205 131.074 177.965 134.321 174.311 138.14Z" fill="url(#paint46_linear_188_85)"/>
<path d="M256.586 176.483C249.707 154.619 254.326 100.326 345.518 98.3608C353.379 153.145 297.612 189.013 256.586 176.483Z" fill="url(#paint47_linear_188_85)"/>
<path d="M285.87 113.346C261.706 131.681 252.217 162.346 256.588 176.237C278.585 182.955 315.628 157.917 334.021 141.352C287.46 141.352 290.826 129.335 285.87 113.346Z" fill="url(#paint48_linear_188_85)"/>
<path d="M256.586 176.483C249.707 154.619 254.326 100.326 345.518 98.3608C316.588 104.453 259.337 132.017 256.586 176.483Z" fill="url(#paint49_linear_188_85)"/>
<path d="M256.388 176.483C297.415 189.013 353.427 153.145 345.566 98.3608C336.787 120.962 297.71 167.639 256.388 176.483Z" fill="url(#paint50_linear_188_85)"/>
<path d="M249.536 205.32C260.451 199.857 265.061 187.287 266.002 181.684C266.837 186.718 266.728 198.485 257.136 205.574C245.248 214.361 227.158 216.428 220.756 235.258C220.291 229.742 221.6 224.617 224.603 221.077C231.924 212.449 235.894 212.148 249.536 205.32Z" fill="url(#paint51_linear_188_85)"/>
<path d="M396.32 211.385C339.482 144.615 280.249 182.345 280.249 209.088C280.616 219.388 284.573 231.827 299.391 239.51C317.914 249.114 339.652 250.62 362.065 234.937C383.633 219.845 383.126 219.389 396.32 211.385Z" fill="url(#paint52_linear_188_85)"/>
<path d="M396.32 211.385C339.482 144.615 280.249 182.345 280.249 209.088C284.431 203.299 298.122 191.08 319.436 188.519C346.079 185.317 378.051 195.151 396.32 211.385Z" fill="url(#paint53_linear_188_85)"/>
<path d="M299.391 239.632C284.573 231.949 280.616 219.51 280.249 209.21C286.545 215.692 304.765 227.375 327.049 228.656C338.975 229.342 353.691 227.056 371.961 218.792C376.274 216.84 395.076 210.161 396.32 211.507C383.126 219.511 383.633 219.967 362.065 235.059C339.652 250.742 317.914 249.236 299.391 239.632Z" fill="url(#paint54_linear_188_85)"/>
<path d="M327.049 228.656C304.765 227.375 286.545 215.692 280.249 209.21C310.809 234.83 355.975 226.023 371.961 218.792C353.691 227.056 338.975 229.342 327.049 228.656Z" fill="url(#paint55_linear_188_85)"/>
<path d="M176.753 205.432C165.839 199.97 161.229 187.399 160.288 181.796C159.453 186.831 159.562 198.597 169.153 205.686C181.041 214.473 199.131 216.54 205.533 235.371C205.998 229.854 204.69 224.729 201.686 221.189C194.365 212.561 190.396 212.26 176.753 205.432Z" fill="url(#paint56_linear_188_85)"/>
<defs>
<linearGradient id="paint0_linear_188_85" x1="221.233" y1="192.5" x2="199.556" y2="140.767" gradientUnits="userSpaceOnUse">
<stop stop-color="#002444"/>
<stop offset="1" stop-color="#86A0D3"/>
</linearGradient>
<linearGradient id="paint1_linear_188_85" x1="238.97" y1="190.037" x2="187.73" y2="190.53" gradientUnits="userSpaceOnUse">
<stop stop-color="#00AD8B"/>
<stop offset="1" stop-color="#7894D2"/>
</linearGradient>
<linearGradient id="paint2_linear_188_85" x1="180.956" y1="149.145" x2="180.956" y2="181.685" gradientUnits="userSpaceOnUse">
<stop offset="1" stop-color="#002444"/>
</linearGradient>
<linearGradient id="paint3_linear_188_85" x1="166.915" y1="174.55" x2="78.7287" y2="97.9014" gradientUnits="userSpaceOnUse">
<stop offset="0.593138" stop-color="#4BD1B7"/>
<stop offset="0.700879" stop-color="#7AE7B9"/>
<stop offset="0.784675" stop-color="#8FEDBD"/>
<stop offset="0.934429" stop-color="#C2F5B7"/>
</linearGradient>
<linearGradient id="paint4_linear_188_85" x1="165.441" y1="176.512" x2="128.1" y2="126.15" gradientUnits="userSpaceOnUse">
<stop offset="0.169191" stop-color="#2F60BC" stop-opacity="0.9"/>
<stop offset="0.499756" stop-color="#79B2E5" stop-opacity="0.6"/>
<stop offset="0.649773" stop-color="#82C3E8" stop-opacity="0.5"/>
<stop offset="0.919072" stop-color="#8AD3EA" stop-opacity="0"/>
</linearGradient>
<linearGradient id="paint5_linear_188_85" x1="162.002" y1="168.9" x2="72.824" y2="106.5" gradientUnits="userSpaceOnUse">
<stop offset="0.0463599" stop-color="#2D9C84"/>
<stop offset="0.166875" stop-color="#56D7B3"/>
<stop offset="0.341378" stop-color="#AAF7D7"/>
<stop offset="0.599957" stop-color="#F6FDF9"/>
<stop offset="0.7453" stop-color="#F6FDF9" stop-opacity="0.976471"/>
<stop offset="0.933182" stop-color="#E3FCD4"/>
</linearGradient>
<linearGradient id="paint6_linear_188_85" x1="159.3" y1="178.481" x2="74.987" y2="105.271" gradientUnits="userSpaceOnUse">
<stop stop-color="#00347F"/>
<stop offset="0.236352" stop-color="#055D8B"/>
<stop offset="0.55659" stop-color="#07898C"/>
<stop offset="0.743206" stop-color="#16A88D"/>
<stop offset="1" stop-color="#57C49C"/>
</linearGradient>
<linearGradient id="paint7_linear_188_85" x1="212.99" y1="122.533" x2="212.99" y2="329.869" gradientUnits="userSpaceOnUse">
<stop offset="0.0771858" stop-color="#16A187"/>
<stop offset="0.191481" stop-color="#29C4A2"/>
<stop offset="0.308524" stop-color="#59D7C2"/>
<stop offset="0.394061" stop-color="#89EFE2"/>
<stop offset="0.483678" stop-color="#8EEDE6"/>
<stop offset="0.576245" stop-color="#92DEEC"/>
<stop offset="0.688263" stop-color="#81C7E9"/>
<stop offset="0.773648" stop-color="#78AFE5"/>
<stop offset="0.858944" stop-color="#598FD7"/>
<stop offset="0.929472" stop-color="#4478CA"/>
<stop offset="1" stop-color="#2F60BC"/>
</linearGradient>
<linearGradient id="paint8_linear_188_85" x1="277.767" y1="324.834" x2="212.32" y2="246.468" gradientUnits="userSpaceOnUse">
<stop stop-color="#2F60BC"/>
<stop offset="0.297283" stop-color="#9BC5F3"/>
<stop offset="0.580086" stop-color="#AEDAF8"/>
<stop offset="0.757014" stop-color="#87CFEA"/>
</linearGradient>
<linearGradient id="paint9_linear_188_85" x1="277.767" y1="324.834" x2="212.32" y2="246.468" gradientUnits="userSpaceOnUse">
<stop stop-color="#2F60BC"/>
<stop offset="0.297283" stop-color="#9BC5F3"/>
<stop offset="0.580086" stop-color="#AEDAF8"/>
<stop offset="0.757014" stop-color="#87CFEA"/>
</linearGradient>
<linearGradient id="paint10_linear_188_85" x1="213.127" y1="329.932" x2="213.127" y2="284.137" gradientUnits="userSpaceOnUse">
<stop stop-color="#162C56"/>
<stop offset="1" stop-color="#11559C"/>
</linearGradient>
<linearGradient id="paint11_linear_188_85" x1="129.51" y1="291.267" x2="182.838" y2="227.467" gradientUnits="userSpaceOnUse">
<stop offset="0.0832449" stop-color="#00347F"/>
<stop offset="0.352553" stop-color="#055D8B"/>
<stop offset="0.658124" stop-color="#07898C"/>
<stop offset="0.941441" stop-color="#16A88D"/>
</linearGradient>
<linearGradient id="paint12_linear_188_85" x1="131.138" y1="281.475" x2="169.246" y2="224.982" gradientUnits="userSpaceOnUse">
<stop stop-color="#4B86CA"/>
<stop offset="0.309049" stop-color="#61C7D6"/>
<stop offset="0.573235" stop-color="#B5F2E7"/>
<stop offset="0.744859" stop-color="#E1FBF4"/>
<stop offset="0.891364" stop-color="#DEFAF3"/>
<stop offset="1" stop-color="#7BE6B8"/>
</linearGradient>
<linearGradient id="paint13_linear_188_85" x1="297.132" y1="291.77" x2="243.804" y2="227.971" gradientUnits="userSpaceOnUse">
<stop offset="0.0832449" stop-color="#00347F"/>
<stop offset="0.352553" stop-color="#055D8B"/>
<stop offset="0.658124" stop-color="#07898C"/>
<stop offset="0.941441" stop-color="#16A88D"/>
</linearGradient>
<linearGradient id="paint14_linear_188_85" x1="295.505" y1="281.981" x2="257.398" y2="225.487" gradientUnits="userSpaceOnUse">
<stop stop-color="#4B86CA"/>
<stop offset="0.309049" stop-color="#61C7D6"/>
<stop offset="0.573235" stop-color="#B5F2E7"/>
<stop offset="0.744859" stop-color="#E1FBF4"/>
<stop offset="0.891364" stop-color="#DEFAF3"/>
<stop offset="1" stop-color="#7BE6B8"/>
</linearGradient>
<linearGradient id="paint15_linear_188_85" x1="212.992" y1="332.888" x2="213.496" y2="313.01" gradientUnits="userSpaceOnUse">
<stop stop-color="#1350A8"/>
<stop offset="1" stop-color="#76C3EE"/>
</linearGradient>
<linearGradient id="paint16_linear_188_85" x1="212.992" y1="352.765" x2="212.992" y2="339.178" gradientUnits="userSpaceOnUse">
<stop stop-color="#073185"/>
</linearGradient>
<linearGradient id="paint17_linear_188_85" x1="212.992" y1="330.875" x2="212.992" y2="306.468" gradientUnits="userSpaceOnUse">
<stop stop-color="#1660CA"/>
<stop offset="0.335408" stop-color="#539BE4"/>
<stop offset="0.651811" stop-color="#8DCAF0"/>
<stop offset="0.918255" stop-color="#C7F8FC"/>
</linearGradient>
<linearGradient id="paint18_linear_188_85" x1="249.145" y1="371.293" x2="253.936" y2="339.34" gradientUnits="userSpaceOnUse">
<stop stop-color="#5E93D7"/>
<stop offset="1" stop-color="#AAD7FB"/>
</linearGradient>
<linearGradient id="paint19_linear_188_85" x1="252.409" y1="373.651" x2="265.513" y2="343.981" gradientUnits="userSpaceOnUse">
<stop stop-color="#002762"/>
<stop offset="1" stop-color="#3269AD"/>
</linearGradient>
<linearGradient id="paint20_linear_188_85" x1="243.12" y1="378.844" x2="251.184" y2="358.978" gradientUnits="userSpaceOnUse">
<stop offset="0.226429" stop-color="#2B59AE"/>
<stop offset="1" stop-color="#4484CB" stop-opacity="0"/>
</linearGradient>
<linearGradient id="paint21_linear_188_85" x1="177.102" y1="371.293" x2="172.311" y2="339.34" gradientUnits="userSpaceOnUse">
<stop stop-color="#5E93D7"/>
<stop offset="1" stop-color="#AAD7FB"/>
</linearGradient>
<linearGradient id="paint22_linear_188_85" x1="173.838" y1="373.651" x2="160.735" y2="343.981" gradientUnits="userSpaceOnUse">
<stop stop-color="#002762"/>
<stop offset="1" stop-color="#3269AD"/>
</linearGradient>
<linearGradient id="paint23_linear_188_85" x1="183.128" y1="378.844" x2="175.063" y2="358.978" gradientUnits="userSpaceOnUse">
<stop offset="0.226429" stop-color="#2B59AE"/>
<stop offset="1" stop-color="#4484CB" stop-opacity="0"/>
</linearGradient>
<linearGradient id="paint24_linear_188_85" x1="213.027" y1="329.932" x2="213.027" y2="284.137" gradientUnits="userSpaceOnUse">
<stop stop-color="#162C56"/>
<stop offset="1" stop-color="#11559C"/>
</linearGradient>
<linearGradient id="paint25_linear_188_85" x1="258.108" y1="175.008" x2="346.295" y2="98.3596" gradientUnits="userSpaceOnUse">
<stop offset="0.593138" stop-color="#4BD1B7"/>
<stop offset="0.700879" stop-color="#7AE7B9"/>
<stop offset="0.784675" stop-color="#8FEDBD"/>
<stop offset="0.934429" stop-color="#C2F5B7"/>
</linearGradient>
<linearGradient id="paint26_linear_188_85" x1="259.583" y1="176.973" x2="296.924" y2="126.611" gradientUnits="userSpaceOnUse">
<stop offset="0.169191" stop-color="#2F60BC" stop-opacity="0.9"/>
<stop offset="0.499756" stop-color="#79B2E5" stop-opacity="0.6"/>
<stop offset="0.649773" stop-color="#82C3E8" stop-opacity="0.5"/>
<stop offset="0.919072" stop-color="#8AD3EA" stop-opacity="0"/>
</linearGradient>
<linearGradient id="paint27_linear_188_85" x1="263.022" y1="169.358" x2="352.199" y2="106.958" gradientUnits="userSpaceOnUse">
<stop offset="0.0463599" stop-color="#2D9C84"/>
<stop offset="0.166875" stop-color="#56D7B3"/>
<stop offset="0.341378" stop-color="#AAF7D7"/>
<stop offset="0.599957" stop-color="#F6FDF9"/>
<stop offset="0.7453" stop-color="#F6FDF9" stop-opacity="0.976471"/>
<stop offset="0.933182" stop-color="#E3FCD4"/>
</linearGradient>
<linearGradient id="paint28_linear_188_85" x1="265.724" y1="178.939" x2="350.037" y2="105.73" gradientUnits="userSpaceOnUse">
<stop stop-color="#00347F"/>
<stop offset="0.236352" stop-color="#055D8B"/>
<stop offset="0.55659" stop-color="#07898C"/>
<stop offset="0.743206" stop-color="#16A88D"/>
<stop offset="1" stop-color="#57C49C"/>
</linearGradient>
<linearGradient id="paint29_linear_188_85" x1="139.716" y1="206.237" x2="39.3288" y2="219.986" gradientUnits="userSpaceOnUse">
<stop stop-color="#44C2CA"/>
<stop offset="0.221727" stop-color="#41C1C5"/>
<stop offset="0.423772" stop-color="#3AD1B4"/>
<stop offset="0.645964" stop-color="#59DCB0"/>
<stop offset="1" stop-color="#17C193"/>
</linearGradient>
<linearGradient id="paint30_linear_188_85" x1="143.775" y1="199.835" x2="46.4845" y2="191.119" gradientUnits="userSpaceOnUse">
<stop stop-color="#56D1B4"/>
<stop offset="0.31994" stop-color="#CBF9E7"/>
<stop offset="0.660711" stop-color="#F0FEF4"/>
<stop offset="0.888965" stop-color="#ACF3C9"/>
</linearGradient>
<linearGradient id="paint31_linear_188_85" x1="140.731" y1="230.248" x2="30.7616" y2="227.527" gradientUnits="userSpaceOnUse">
<stop stop-color="#00347F"/>
<stop offset="0.261165" stop-color="#055D8B"/>
<stop offset="0.636627" stop-color="#07898C"/>
<stop offset="1" stop-color="#16A88D"/>
</linearGradient>
<linearGradient id="paint32_linear_188_85" x1="146.82" y1="218.991" x2="30.749" y2="218.991" gradientUnits="userSpaceOnUse">
<stop stop-color="#A6FAFF"/>
<stop offset="1" stop-color="white"/>
</linearGradient>
<linearGradient id="paint33_linear_188_85" x1="245.192" y1="181.68" x2="245.192" y2="265.193" gradientUnits="userSpaceOnUse">
<stop stop-color="#7AB4E6"/>
<stop offset="0.25" stop-color="#5E95D9"/>
<stop offset="0.5" stop-color="#295EA0"/>
<stop offset="1" stop-color="#002762"/>
</linearGradient>
<linearGradient id="paint34_linear_188_85" x1="287.354" y1="206.238" x2="387.741" y2="219.987" gradientUnits="userSpaceOnUse">
<stop stop-color="#44C2CA"/>
<stop offset="0.221727" stop-color="#41C1C5"/>
<stop offset="0.423772" stop-color="#3AD1B4"/>
<stop offset="0.645964" stop-color="#59DCB0"/>
<stop offset="1" stop-color="#17C193"/>
</linearGradient>
<linearGradient id="paint35_linear_188_85" x1="283.294" y1="199.835" x2="380.585" y2="191.12" gradientUnits="userSpaceOnUse">
<stop stop-color="#56D1B4"/>
<stop offset="0.31994" stop-color="#CBF9E7"/>
<stop offset="0.660711" stop-color="#F0FEF4"/>
<stop offset="0.888965" stop-color="#ACF3C9"/>
</linearGradient>
<linearGradient id="paint36_linear_188_85" x1="286.339" y1="230.249" x2="396.308" y2="227.527" gradientUnits="userSpaceOnUse">
<stop stop-color="#00347F"/>
<stop offset="0.261165" stop-color="#055D8B"/>
<stop offset="0.636627" stop-color="#07898C"/>
<stop offset="1" stop-color="#16A88D"/>
</linearGradient>
<linearGradient id="paint37_linear_188_85" x1="280.249" y1="218.992" x2="396.32" y2="218.992" gradientUnits="userSpaceOnUse">
<stop stop-color="#A6FAFF"/>
<stop offset="1" stop-color="white"/>
</linearGradient>
<linearGradient id="paint38_linear_188_85" x1="147.712" y1="326.094" x2="213.159" y2="247.729" gradientUnits="userSpaceOnUse">
<stop stop-color="#2F60BC"/>
<stop offset="0.297283" stop-color="#9BC5F3"/>
<stop offset="0.580086" stop-color="#AEDAF8"/>
<stop offset="0.757014" stop-color="#87CFEA"/>
</linearGradient>
<linearGradient id="paint39_linear_188_85" x1="147.712" y1="326.094" x2="213.159" y2="247.729" gradientUnits="userSpaceOnUse">
<stop stop-color="#2F60BC"/>
<stop offset="0.297283" stop-color="#9BC5F3"/>
<stop offset="0.580086" stop-color="#AEDAF8"/>
<stop offset="0.757014" stop-color="#87CFEA"/>
</linearGradient>
<linearGradient id="paint40_linear_188_85" x1="180.82" y1="181.683" x2="180.82" y2="265.196" gradientUnits="userSpaceOnUse">
<stop stop-color="#7AB4E6"/>
<stop offset="0.25" stop-color="#5E95D9"/>
<stop offset="0.5" stop-color="#295EA0"/>
<stop offset="1" stop-color="#002762"/>
</linearGradient>
<linearGradient id="paint41_linear_188_85" x1="212.215" y1="119.77" x2="211.72" y2="75.2327" gradientUnits="userSpaceOnUse">
<stop stop-color="#0D9087"/>
<stop offset="0.402348" stop-color="#1CC0A5"/>
<stop offset="0.759515" stop-color="#89E9CD"/>
<stop offset="1" stop-color="#CCF8E7"/>
</linearGradient>
<linearGradient id="paint42_linear_188_85" x1="211.722" y1="76.2392" x2="211.683" y2="66.9292" gradientUnits="userSpaceOnUse">
<stop stop-color="#C4F5E0"/>
<stop offset="1" stop-color="#F3FFFF"/>
</linearGradient>
<linearGradient id="paint43_linear_188_85" x1="212.725" y1="127.822" x2="212.725" y2="84.0402" gradientUnits="userSpaceOnUse">
<stop stop-color="#33B6A0"/>
<stop offset="0.388465" stop-color="#82EACC"/>
<stop offset="0.897525" stop-color="#DBFCE9"/>
</linearGradient>
<linearGradient id="paint44_linear_188_85" x1="212.725" y1="127.822" x2="212.725" y2="84.0402" gradientUnits="userSpaceOnUse">
<stop stop-color="#33B6A0"/>
<stop offset="0.388465" stop-color="#82EACC"/>
<stop offset="0.897525" stop-color="#DBFCE9"/>
</linearGradient>
<linearGradient id="paint45_linear_188_85" x1="212.725" y1="99.3888" x2="212.725" y2="45.5419" gradientUnits="userSpaceOnUse">
<stop stop-color="#00957C"/>
<stop offset="0.332644" stop-color="#2FBC99"/>
<stop offset="0.676325" stop-color="#9CEBD1"/>
<stop offset="1" stop-color="#D9FAE7"/>
</linearGradient>
<linearGradient id="paint46_linear_188_85" x1="212.725" y1="138.14" x2="212.725" y2="90.8936" gradientUnits="userSpaceOnUse">
<stop stop-color="#01585F"/>
<stop offset="0.3" stop-color="#026D74"/>
<stop offset="0.5" stop-color="#00807B"/>
<stop offset="0.7" stop-color="#04A387"/>
<stop offset="0.9375" stop-color="#04A387"/>
<stop offset="1" stop-color="#35C39D"/>
</linearGradient>
<linearGradient id="paint47_linear_188_85" x1="258.109" y1="175.009" x2="346.295" y2="98.3609" gradientUnits="userSpaceOnUse">
<stop offset="0.593138" stop-color="#4BD1B7"/>
<stop offset="0.700879" stop-color="#7AE7B9"/>
<stop offset="0.784675" stop-color="#8FEDBD"/>
<stop offset="0.934429" stop-color="#C2F5B7"/>
</linearGradient>
<linearGradient id="paint48_linear_188_85" x1="259.583" y1="176.974" x2="296.925" y2="126.612" gradientUnits="userSpaceOnUse">
<stop offset="0.169191" stop-color="#2F60BC" stop-opacity="0.9"/>
<stop offset="0.499756" stop-color="#79B2E5" stop-opacity="0.6"/>
<stop offset="0.649773" stop-color="#82C3E8" stop-opacity="0.5"/>
<stop offset="0.919072" stop-color="#8AD3EA" stop-opacity="0"/>
</linearGradient>
<linearGradient id="paint49_linear_188_85" x1="263.022" y1="169.359" x2="352.2" y2="106.959" gradientUnits="userSpaceOnUse">
<stop offset="0.0463599" stop-color="#2D9C84"/>
<stop offset="0.166875" stop-color="#56D7B3"/>
<stop offset="0.341378" stop-color="#AAF7D7"/>
<stop offset="0.599957" stop-color="#F6FDF9"/>
<stop offset="0.7453" stop-color="#F6FDF9" stop-opacity="0.976471"/>
<stop offset="0.933182" stop-color="#E3FCD4"/>
</linearGradient>
<linearGradient id="paint50_linear_188_85" x1="265.724" y1="178.94" x2="350.037" y2="105.731" gradientUnits="userSpaceOnUse">
<stop stop-color="#00347F"/>
<stop offset="0.236352" stop-color="#055D8B"/>
<stop offset="0.55659" stop-color="#07898C"/>
<stop offset="0.743206" stop-color="#16A88D"/>
<stop offset="1" stop-color="#57C49C"/>
</linearGradient>
<linearGradient id="paint51_linear_188_85" x1="264.889" y1="177.663" x2="205.967" y2="247.44" gradientUnits="userSpaceOnUse">
<stop stop-color="#8FDFEA"/>
<stop offset="0.5" stop-color="#80C1E7"/>
<stop offset="1" stop-color="#77B0E4"/>
</linearGradient>
<linearGradient id="paint52_linear_188_85" x1="287.354" y1="206.236" x2="387.741" y2="219.986" gradientUnits="userSpaceOnUse">
<stop stop-color="#44C2CA"/>
<stop offset="0.221727" stop-color="#41C1C5"/>
<stop offset="0.423772" stop-color="#3AD1B4"/>
<stop offset="0.645964" stop-color="#59DCB0"/>
<stop offset="1" stop-color="#17C193"/>
</linearGradient>
<linearGradient id="paint53_linear_188_85" x1="283.294" y1="199.834" x2="380.585" y2="191.118" gradientUnits="userSpaceOnUse">
<stop stop-color="#56D1B4"/>
<stop offset="0.31994" stop-color="#CBF9E7"/>
<stop offset="0.660711" stop-color="#F0FEF4"/>
<stop offset="0.888965" stop-color="#ACF3C9"/>
</linearGradient>
<linearGradient id="paint54_linear_188_85" x1="286.339" y1="230.247" x2="396.308" y2="227.526" gradientUnits="userSpaceOnUse">
<stop stop-color="#00347F"/>
<stop offset="0.261165" stop-color="#055D8B"/>
<stop offset="0.636627" stop-color="#07898C"/>
<stop offset="1" stop-color="#16A88D"/>
</linearGradient>
<linearGradient id="paint55_linear_188_85" x1="280.249" y1="218.99" x2="396.32" y2="218.99" gradientUnits="userSpaceOnUse">
<stop stop-color="#A6FAFF"/>
<stop offset="1" stop-color="white"/>
</linearGradient>
<linearGradient id="paint56_linear_188_85" x1="157.38" y1="176.628" x2="215.269" y2="242.27" gradientUnits="userSpaceOnUse">
<stop stop-color="#91E3EA"/>
<stop offset="0.25" stop-color="#88D2E9"/>
<stop offset="1" stop-color="#75ABE3"/>
</linearGradient>
</defs>
</svg>
