<svg width="428" height="428" viewBox="0 0 428 428" fill="none" xmlns="http://www.w3.org/2000/svg">
<path d="M166.16 173.746C173.039 151.882 168.42 97.5889 77.2282 95.6235C69.367 150.408 125.134 186.275 166.16 173.746Z" fill="url(#paint0_linear_188_532)"/>
<path d="M136.877 110.607C161.041 128.941 170.529 159.606 166.159 173.498C144.162 180.215 107.119 155.178 88.7259 138.613C135.287 138.613 131.92 126.596 136.877 110.607Z" fill="url(#paint1_linear_188_532)"/>
<path d="M166.16 173.746C173.039 151.882 168.42 97.5889 77.2282 95.6235C106.158 101.716 163.409 129.28 166.16 173.746Z" fill="url(#paint2_linear_188_532)"/>
<path d="M166.358 173.746C125.332 186.275 69.3195 150.408 77.1807 95.6235C85.9592 118.225 125.037 164.902 166.358 173.746Z" fill="url(#paint3_linear_188_532)"/>
<path d="M278.589 298.913C290.24 325.899 272.728 340.172 272.728 340.172C270.915 336.539 262.535 326.678 250.625 322.007C241.097 318.27 231.81 309.898 228.358 306.178C215.93 292.477 211.442 277.462 210.751 271.667C205.366 300.937 181.838 317.509 170.877 322.267C160.779 327.716 156.984 329.541 148.698 339.92C121.253 311.636 156.12 277.375 171.136 268.293C176.981 266.326 190.14 259.555 191.82 248.21C195.497 240.856 201.905 225.834 202.326 224.574C202.746 223.313 213.262 219.609 219.612 224.717C216.067 235.809 225.868 259.461 246.616 266.95C249.082 269.222 252.051 270.989 255.027 272.964C270.355 283.136 277.121 294.501 278.589 298.913Z" fill="url(#paint4_linear_188_532)"/>
<path d="M272.728 339.918C273.23 328.595 250.382 310.478 237.327 301.168C233.085 298.143 225.075 290.6 222.262 286.574C229.041 292.613 233.56 295.381 244.608 301.044C266.3 311.311 274.234 331.111 272.728 339.918Z" fill="url(#paint5_linear_188_532)"/>
<path d="M250.131 267.199C239.586 260.657 227.532 252.271 222.764 244.553C225.027 250.676 234.264 262.098 250.131 272.483C270.122 285.567 280.238 303.855 282.269 320.291C286.035 297.142 261.983 274.552 250.131 267.199Z" fill="url(#paint6_linear_188_532)"/>
<path d="M171.013 322.33C160.915 327.779 156.984 329.54 148.698 339.92C147.856 328.84 169.673 311.55 182.98 302.24C193.625 294.792 205.846 278.797 210.713 271.73C205.327 301 181.974 317.573 171.013 322.33Z" fill="url(#paint7_linear_188_532)" stroke="black" stroke-width="0.132397"/>
<path d="M165.83 263.057C187.106 251.308 180.533 235.138 173.157 229.06C160.945 218.997 140.048 229.06 132.178 247.283C125.882 261.86 131.002 278.378 134.349 284.815C135.978 282.458 144.553 274.806 165.83 263.057Z" fill="url(#paint8_linear_188_532)"/>
<path d="M131.846 247.282C125.55 261.86 130.67 278.378 134.017 284.815C134.017 260.446 160.16 237.313 173.096 228.882C160.883 218.819 139.716 229.06 131.846 247.282Z" fill="url(#paint9_linear_188_532)"/>
<path d="M256.257 263.56C234.98 251.811 241.554 235.641 248.929 229.563C261.142 219.5 282.038 229.563 289.908 247.786C296.204 262.364 291.084 278.882 287.737 285.318C286.109 282.961 277.533 275.31 256.257 263.56Z" fill="url(#paint10_linear_188_532)"/>
<path d="M290.242 247.788C296.538 262.365 291.418 278.883 288.071 285.32C288.071 260.951 261.928 237.819 248.992 229.388C261.204 219.324 282.372 229.565 290.242 247.788Z" fill="url(#paint11_linear_188_532)"/>
<path d="M210.966 356.779C206.195 348.727 192.721 333.462 186.109 326.836C191.298 320.21 203.584 305.952 211.217 301.926C217.159 306.371 230.398 317.577 235.822 326.836C231.805 329.856 216.74 347.972 210.966 356.779Z" fill="url(#paint12_linear_188_532)"/>
<path d="M210.966 357.03C206.195 348.978 192.721 333.713 186.109 327.087C187.095 327.334 189.7 327.683 192.386 328.61C197.912 330.516 205.405 333.823 211.217 336.397C216.707 333.818 224.777 330.51 230.298 328.61C232.856 327.729 234.868 327.151 235.822 327.087C231.805 330.106 216.74 348.223 210.966 357.03Z" fill="url(#paint13_linear_188_532)"/>
<path d="M192.386 328.359C189.7 327.432 187.095 327.083 186.109 326.836C191.298 320.21 203.584 305.952 211.217 301.926C217.159 306.371 230.398 317.577 235.822 326.836C234.868 326.9 232.856 327.478 230.298 328.359C227.034 323.817 217.744 314.507 211.217 309.223C204.438 314.004 198.161 320.977 192.386 328.359Z" fill="url(#paint14_linear_188_532)"/>
<path d="M243.102 345.363C246.517 365.09 233.645 377.235 226.782 380.842C236.658 378.409 258.166 370.374 265.196 357.693C272.226 345.011 259.254 332.782 251.889 328.253C247.538 325.737 239.687 325.636 243.102 345.363Z" fill="url(#paint15_linear_188_532)"/>
<path d="M252.637 328.982C252.382 328.815 252.133 328.657 251.889 328.508C252.126 328.641 252.377 328.799 252.637 328.982C260.09 333.846 271.994 345.685 265.196 357.947C258.166 370.629 236.658 378.664 226.782 381.096C233.496 378.496 248.62 369.975 255.404 356.689C263.385 341.061 256.79 331.895 252.637 328.982Z" fill="url(#paint16_linear_188_532)"/>
<path d="M226.782 381.096C233.638 377.492 246.492 365.367 243.112 345.673C243.108 345.654 243.105 345.635 243.102 345.617C243.105 345.636 243.108 345.654 243.112 345.673C243.761 349.381 247.106 356.688 255.404 356.688C248.62 369.974 233.496 378.495 226.782 381.096Z" fill="url(#paint17_linear_188_532)"/>
<path d="M178.59 345.363C175.176 365.09 188.048 377.235 194.91 380.842C185.035 378.409 163.526 370.374 156.496 357.693C149.466 345.011 162.438 332.782 169.803 328.253C174.155 325.737 182.005 325.636 178.59 345.363Z" fill="url(#paint18_linear_188_532)"/>
<path d="M169.055 328.982C169.31 328.815 169.56 328.657 169.803 328.508C169.566 328.641 169.316 328.799 169.055 328.982C161.603 333.846 149.698 345.685 156.496 357.947C163.526 370.629 185.035 378.664 194.91 381.096C188.196 378.496 173.073 369.975 166.288 356.689C158.307 341.061 164.902 331.895 169.055 328.982Z" fill="url(#paint19_linear_188_532)"/>
<path d="M194.91 381.096C188.054 377.492 175.2 365.367 178.581 345.673C178.584 345.654 178.587 345.635 178.59 345.617C178.587 345.636 178.584 345.654 178.581 345.673C177.931 349.381 174.586 356.688 166.288 356.688C173.073 369.974 188.196 378.495 194.91 381.096Z" fill="url(#paint20_linear_188_532)"/>
<path d="M250.664 322.372C260.703 327.79 264.462 329.818 272.726 340.171C273.568 329.092 251.925 311.55 238.619 302.24C227.973 294.792 215.578 278.797 210.711 271.73C216.097 301 239.624 317.573 250.585 322.33L250.664 322.372Z" fill="url(#paint21_linear_188_532)"/>
<path d="M254.308 174.204C247.429 152.34 252.048 98.0471 343.24 96.0818C351.101 150.866 295.334 186.734 254.308 174.204Z" fill="url(#paint22_linear_188_532)"/>
<path d="M283.592 111.067C259.428 129.401 249.939 160.066 254.31 173.958C276.307 180.675 313.35 155.638 331.743 139.073C285.182 139.073 288.548 127.056 283.592 111.067Z" fill="url(#paint23_linear_188_532)"/>
<path d="M254.308 174.204C247.429 152.34 252.048 98.0471 343.24 96.0818C314.31 102.174 257.059 129.738 254.308 174.204Z" fill="url(#paint24_linear_188_532)"/>
<path d="M254.111 174.204C295.137 186.734 351.15 150.866 343.289 96.0818C334.51 118.683 295.432 165.36 254.111 174.204Z" fill="url(#paint25_linear_188_532)"/>
<path d="M28.4717 209.108C85.31 142.338 144.543 180.068 144.543 206.811C144.176 217.111 140.219 229.55 125.401 237.233C106.878 246.837 85.1397 248.343 62.7269 232.66C41.1589 217.568 41.666 217.112 28.4717 209.108Z" fill="url(#paint26_linear_188_532)"/>
<path d="M28.4717 209.108C85.31 142.338 144.543 180.068 144.543 206.811C140.361 201.022 126.67 188.803 105.356 186.241C78.7127 183.04 46.7407 192.874 28.4717 209.108Z" fill="url(#paint27_linear_188_532)"/>
<path d="M125.401 237.355C140.219 229.672 144.176 217.233 144.543 206.933C138.247 213.415 120.027 225.098 97.7433 226.38C85.8175 227.066 71.1005 224.779 52.8311 216.515C48.5175 214.563 29.7163 207.885 28.4717 209.23C41.666 217.234 41.1589 217.69 62.7269 232.782C85.1397 248.465 106.878 246.959 125.401 237.355Z" fill="url(#paint28_linear_188_532)"/>
<path d="M97.7433 226.38C120.027 225.098 138.247 213.415 144.543 206.933C113.983 232.553 68.8168 223.746 52.8311 216.515C71.1005 224.779 85.8175 227.066 97.7433 226.38Z" fill="url(#paint29_linear_188_532)"/>
<path d="M235.027 232.977C223.771 246.864 231.565 255.037 239.092 259.764C218.863 251.36 213.857 228.775 222.325 218.795C229.646 210.168 233.615 209.866 247.258 203.038C258.172 197.576 262.783 185.005 263.723 179.403C267.487 183.604 267.173 192.709 266.546 196.735C264.194 220.896 245.243 220.371 235.027 232.977Z" fill="url(#paint30_linear_188_532)"/>
<path d="M394.043 209.109C337.204 142.339 277.971 180.069 277.971 206.812C278.338 217.112 282.295 229.551 297.113 237.234C315.636 246.838 337.374 248.344 359.787 232.661C381.355 217.569 380.848 217.113 394.043 209.109Z" fill="url(#paint31_linear_188_532)"/>
<path d="M394.043 209.109C337.204 142.339 277.971 180.069 277.971 206.812C282.153 201.023 295.844 188.803 317.159 186.242C343.801 183.041 375.773 192.875 394.043 209.109Z" fill="url(#paint32_linear_188_532)"/>
<path d="M297.114 237.356C282.295 229.673 278.338 217.234 277.972 206.934C284.268 213.416 302.487 225.098 324.771 226.38C336.697 227.066 351.414 224.78 369.684 216.515C373.997 214.564 392.798 207.885 394.043 209.231C380.849 217.235 381.356 217.691 359.788 232.783C337.375 248.466 315.637 246.96 297.114 237.356Z" fill="url(#paint33_linear_188_532)"/>
<path d="M324.771 226.38C302.487 225.098 284.268 213.416 277.972 206.934C308.532 232.554 353.698 223.747 369.684 216.515C351.414 224.78 336.697 227.066 324.771 226.38Z" fill="url(#paint34_linear_188_532)"/>
<path d="M148.698 339.921C149.451 329.101 169.863 311.739 183.346 302.306C187.615 299.319 195.347 291.609 198.159 287.583C191.381 293.622 187.364 296.642 176.316 302.306C154.623 312.572 148.196 331.114 148.698 339.921Z" fill="url(#paint35_linear_188_532)"/>
<path d="M170.792 268.46C181.338 261.918 193.14 253.029 197.908 245.311C195.646 251.434 186.66 263.359 170.792 273.744C150.802 286.829 140.938 305.116 138.907 321.552C134.699 298.17 158.941 275.813 170.792 268.46Z" fill="url(#paint36_linear_188_532)"/>
<path d="M186.431 232.98C197.486 246.712 190.249 254.982 183.013 260.151C203.688 251.881 207.601 228.778 199.132 218.799C191.811 210.171 187.842 209.869 174.199 203.041C163.285 197.579 158.675 185.008 157.734 179.406C153.971 183.608 154.284 192.712 154.911 196.739C157.264 220.899 176.256 220.34 186.431 232.98Z" fill="url(#paint37_linear_188_532)"/>
<path d="M173.096 99.4784C162.721 54.718 255.584 50.9671 246.475 100.729C239.71 109.085 233.291 117.96 224.911 126.087C216.507 123.986 201.8 124.511 195.498 126.087C187.495 118.665 177.468 105.886 173.096 99.4784Z" fill="url(#paint38_linear_188_532)"/>
<path d="M245.9 100.954C254.939 50.8816 162.795 54.6559 173.089 99.6961C175.801 62.8903 244.092 61.6322 245.9 100.954Z" fill="url(#paint39_linear_188_532)"/>
<path d="M246.1 100.508C266.939 76.3525 296.063 82.2656 313.638 89.0594C308.449 88.7239 296.565 88.38 289.535 89.1851C280.748 90.1916 270.956 95.7273 265.181 98.2435C260.562 100.256 247.02 110.992 240.827 116.109C236.678 119.562 232.608 123.173 228.854 126.881C228.647 126.676 225.666 126.218 224.201 126.015C232.511 117.84 239.39 108.914 246.1 100.508Z" fill="url(#paint40_linear_188_532)"/>
<path d="M173.289 99.25C150.19 73.8866 121.317 81.2591 107.257 89.0594C141.804 86.4425 157.471 98.9984 164.752 104.282C168.575 107.056 180.908 116.141 191.763 126.84C192.975 126.568 195.524 126.113 195.955 126.044L195.866 125.96C187.934 118.482 177.615 105.679 173.289 99.25Z" fill="url(#paint41_linear_188_532)"/>
<path d="M129.602 73.2073C117.752 78.8436 109.851 85.7042 107.257 89.0591C121.317 81.2589 150.19 74.2638 173.289 99.6272C162.995 54.587 255.138 50.8127 246.1 100.885C266.939 76.7297 296.063 82.2654 313.638 89.0591C288.029 67.4197 277.926 67.257 269.449 69.6843C262.419 71.6973 254.804 82.9363 250.87 88.5559L256.896 76.7297C263.926 60.1227 253.381 56.8516 247.355 56.8516C241.329 56.8516 238.317 56.8516 224.759 55.8452C213.912 55.04 209.527 45.6126 208.69 40.9995C205.928 56.3484 189.106 57.1032 180.319 56.8516C173.289 56.6503 168.686 57.942 167.263 58.613C155.965 63.9414 163.497 78.491 167.263 87.0462C162.242 79.2459 156.634 73.3749 153.705 71.6975C150.609 69.8523 141.453 67.571 129.602 73.2073Z" fill="url(#paint42_linear_188_532)"/>
<path d="M172.033 135.862C166.175 122.023 145.219 92.8848 107.257 89.0602C141.804 86.4433 157.471 98.8737 164.752 104.158C173.962 110.856 188.669 123.462 191.82 126.84C202.84 124.416 216.398 123.976 228.81 126.891C228.988 126.272 236.305 119.621 241.192 115.583C247.385 110.467 260.101 100.877 265.181 98.1188C270.717 95.1137 280.748 90.067 289.535 89.0605C296.565 88.2553 308.449 88.7245 313.638 89.06C289.033 89.06 254.385 114.474 248.862 135.862C243.086 131.51 236.148 128.614 228.81 126.891C216.398 123.976 202.84 124.416 191.82 126.84C182.927 128.796 175.687 132.043 172.033 135.862Z" fill="url(#paint43_linear_188_532)"/>
<path d="M254.309 174.206C247.43 152.341 252.048 98.0486 343.241 96.0833C351.102 150.867 295.335 186.735 254.309 174.206Z" fill="url(#paint44_linear_188_532)"/>
<path d="M283.592 111.068C259.428 129.403 249.94 160.068 254.31 173.959C276.308 180.677 313.351 155.639 331.743 139.074C285.182 139.074 288.549 127.058 283.592 111.068Z" fill="url(#paint45_linear_188_532)"/>
<path d="M254.309 174.206C247.43 152.341 252.048 98.0486 343.241 96.0833C314.311 102.176 257.06 129.74 254.309 174.206Z" fill="url(#paint46_linear_188_532)"/>
<path d="M254.11 174.206C295.137 186.735 351.149 150.867 343.288 96.0833C334.51 118.685 295.432 165.362 254.11 174.206Z" fill="url(#paint47_linear_188_532)"/>
<path d="M247.258 203.042C258.173 197.579 262.783 185.009 263.724 179.406C264.559 184.441 264.45 196.207 254.858 203.296C242.971 212.083 224.88 214.15 218.478 232.98C218.013 227.464 219.322 222.339 222.325 218.799C229.647 210.171 233.616 209.87 247.258 203.042Z" fill="url(#paint48_linear_188_532)"/>
<path d="M394.043 209.108C337.204 142.338 277.971 180.067 277.971 206.81C278.338 217.11 282.295 229.55 297.113 237.233C315.636 246.836 337.374 248.342 359.787 232.659C381.355 217.568 380.848 217.111 394.043 209.108Z" fill="url(#paint49_linear_188_532)"/>
<path d="M394.043 209.108C337.204 142.338 277.971 180.067 277.971 206.81C282.153 201.021 295.844 188.802 317.159 186.241C343.801 183.039 375.773 192.873 394.043 209.108Z" fill="url(#paint50_linear_188_532)"/>
<path d="M297.114 237.354C282.295 229.671 278.338 217.232 277.972 206.932C284.268 213.414 302.487 225.097 324.771 226.379C336.697 227.065 351.414 224.778 369.684 216.514C373.997 214.562 392.798 207.884 394.043 209.229C380.849 217.233 381.356 217.689 359.788 232.781C337.375 248.464 315.637 246.958 297.114 237.354Z" fill="url(#paint51_linear_188_532)"/>
<path d="M324.771 226.379C302.487 225.097 284.268 213.414 277.972 206.932C308.532 232.552 353.698 223.745 369.684 216.514C351.414 224.778 336.697 227.065 324.771 226.379Z" fill="url(#paint52_linear_188_532)"/>
<path d="M174.476 203.154C163.562 197.692 158.951 185.121 158.011 179.519C157.175 184.553 157.285 196.319 166.876 203.408C178.764 212.195 196.854 214.263 203.256 233.093C203.721 227.577 202.413 222.451 199.409 218.911C192.088 210.283 188.119 209.982 174.476 203.154Z" fill="url(#paint53_linear_188_532)"/>
<path d="M194.695 173.726C188.258 173.9 184.727 170.807 181.135 170.111C176.453 172.409 175.932 187.528 180.043 191.852L183.929 190.291C184.961 190.127 188.407 188.817 190.738 189.514C193.574 190.361 197.309 189.106 202.462 186.364C206.723 184.096 214.993 177.134 216.08 177.306C217.167 177.479 219.77 181.634 220.733 182.583C221.696 183.532 222.376 182.765 223.185 182.177C223.833 181.707 224.004 181.034 223.702 180.429L218.871 173.771C217.147 173.099 213.041 171.491 210.407 170.435C207.773 169.379 205.948 169.779 205.365 170.111L199.569 172.29L194.695 173.726Z" fill="url(#paint54_linear_188_532)"/>
<path d="M208.868 185.286C212.622 182.699 215.166 180.716 216.066 180.063L218.024 182.763C219.863 185.296 223.817 184.878 225.166 183.898C226.516 182.919 226.135 180.311 224.968 178.136C223.802 175.961 222.08 173.777 220.855 172.468C219.876 171.42 218.584 171.231 218.454 171.051C220.449 170.015 224.497 169.688 225.811 169.833C227.454 170.015 231.334 172.144 234.112 172.188C236.335 172.223 241.62 170.861 241.69 171.085C246.172 175.936 246.398 185.523 243.369 190.056C243.013 190.59 240.445 189.926 238.523 190.002C236.6 190.078 235.65 190.713 235.416 191.02L233.256 192.587C233.235 192.557 233.11 192.309 232.783 191.557C232.376 190.616 231.298 189.888 229.5 189.681C227.702 189.475 226.499 191.035 226.245 191.631C225.991 192.228 225.851 192.603 224.92 192.455C224.175 192.337 223.345 192.682 223.023 192.87C222.762 193.014 222.125 193.412 221.674 193.849C221.222 194.287 220.847 195.044 220.716 195.369L218.803 195.383C218.247 195.374 217.344 195.947 216.873 196.509C216.402 197.07 216.142 197.772 216.07 198.052C215.493 198.014 214.168 198.005 213.487 198.278C212.807 198.552 209.011 201.069 207.198 202.293L205.391 202.642C204.462 202.813 202.515 203.108 202.163 202.925C201.721 202.695 201.264 202.066 201.249 201.665C201.233 201.265 201.773 200.873 202.198 200.702C202.538 200.565 203.32 200.482 203.669 200.458L206.032 200.117C207.935 198.828 211.867 196.158 212.37 195.793C213 195.336 212.584 194.951 212.413 194.526C212.242 194.101 211.465 193.977 211.13 194.083C210.795 194.189 210.19 194.491 209.2 195.209C208.408 195.783 205.757 197.341 204.53 198.048C202.62 198.381 198.716 198.97 198.023 198.924C197.157 198.865 196.414 198.031 196.693 197.279C196.971 196.528 197.487 196.291 198.427 195.884C199.179 195.557 201.563 195.348 202.661 195.283C204.363 194.095 207.945 191.587 208.665 191.064C209.565 190.412 209.238 189.962 208.912 189.512C208.579 189.053 208.126 188.983 207.49 189.445C206.86 189.902 205.535 190.726 203.85 191.811C202.632 192.596 201.762 193.097 201.74 193.067L196.32 194.116C195.748 194.211 194.136 194.135 193.15 193.532C192.979 193.107 192.611 192.412 193.838 192.209C195.064 192.006 196.045 191.843 198.506 190.882C200.967 189.92 204.564 188.252 208.868 185.286Z" fill="url(#paint55_linear_188_532)"/>
<rect x="230.06" y="191.48" width="5.86331" height="2.89034" rx="1.44517" transform="rotate(60.5161 230.06 191.48)" stroke="#FF4105" stroke-width="0.222334"/>
<rect x="230.102" y="191.328" width="6.08564" height="3.11267" rx="1.55634" transform="rotate(60.5161 230.102 191.328)" fill="url(#paint56_linear_188_532)"/>
<rect x="225.343" y="194.232" width="6.08564" height="3.11267" rx="1.55634" transform="rotate(60.5161 225.343 194.232)" fill="url(#paint57_linear_188_532)"/>
<rect x="220.632" y="196.827" width="6.08564" height="3.11267" rx="1.55634" transform="rotate(60.5161 220.632 196.827)" fill="url(#paint58_linear_188_532)"/>
<rect x="215.561" y="199.681" width="6.08564" height="3.11267" rx="1.55634" transform="rotate(60.5161 215.561 199.681)" fill="url(#paint59_linear_188_532)"/>
<path d="M210.944 202.598L210.946 202.597C211.62 203.57 211.866 204.103 212.063 205.083L210.108 206.364C208.968 206.905 208.386 207.101 207.517 207.145C206.557 207.338 205.543 207.34 205.086 207.013C204.514 206.604 204.472 205.673 204.957 205.321C205.586 204.864 206.211 205.346 208.026 204.441C209.235 203.838 210.404 202.99 210.944 202.598Z" fill="url(#paint60_linear_188_532)"/>
<path d="M212.026 136.662C219.598 136.663 225.737 142.802 225.737 150.374C225.737 157.947 219.598 164.085 212.026 164.085C204.453 164.085 198.314 157.947 198.314 150.374C198.314 142.802 204.453 136.662 212.026 136.662ZM211.868 139.306C205.6 139.306 200.518 144.388 200.518 150.656C200.518 156.923 205.6 162.004 211.868 162.004C218.135 162.004 223.216 156.923 223.216 150.656C223.216 144.388 218.135 139.306 211.868 139.306ZM211.909 148.941C211.909 143.432 219.359 143.175 219.359 148.121C219.359 153.067 216.262 154.479 211.909 157.998C208.209 154.8 204.504 153.067 204.503 148.121C204.503 143.175 211.908 143.542 211.909 148.941Z" fill="url(#paint61_linear_188_532)"/>
<defs>
<linearGradient id="paint0_linear_188_532" x1="164.637" y1="172.272" x2="76.4508" y2="95.6236" gradientUnits="userSpaceOnUse">
<stop offset="0.593138" stop-color="#4BD1B7"/>
<stop offset="0.700879" stop-color="#7AE7B9"/>
<stop offset="0.784675" stop-color="#8FEDBD"/>
<stop offset="0.934429" stop-color="#C2F5B7"/>
</linearGradient>
<linearGradient id="paint1_linear_188_532" x1="163.164" y1="174.235" x2="125.822" y2="123.873" gradientUnits="userSpaceOnUse">
<stop offset="0.169191" stop-color="#2F60BC" stop-opacity="0.9"/>
<stop offset="0.499756" stop-color="#79B2E5" stop-opacity="0.6"/>
<stop offset="0.649773" stop-color="#82C3E8" stop-opacity="0.5"/>
<stop offset="0.919072" stop-color="#8AD3EA" stop-opacity="0"/>
</linearGradient>
<linearGradient id="paint2_linear_188_532" x1="159.724" y1="166.622" x2="70.5461" y2="104.222" gradientUnits="userSpaceOnUse">
<stop offset="0.0463599" stop-color="#2D9C84"/>
<stop offset="0.166875" stop-color="#56D7B3"/>
<stop offset="0.341378" stop-color="#AAF7D7"/>
<stop offset="0.599957" stop-color="#F6FDF9"/>
<stop offset="0.7453" stop-color="#F6FDF9" stop-opacity="0.976471"/>
<stop offset="0.933182" stop-color="#E3FCD4"/>
</linearGradient>
<linearGradient id="paint3_linear_188_532" x1="157.023" y1="176.203" x2="72.7097" y2="102.994" gradientUnits="userSpaceOnUse">
<stop stop-color="#00347F"/>
<stop offset="0.236352" stop-color="#055D8B"/>
<stop offset="0.55659" stop-color="#07898C"/>
<stop offset="0.743206" stop-color="#16A88D"/>
<stop offset="1" stop-color="#57C49C"/>
</linearGradient>
<linearGradient id="paint4_linear_188_532" x1="210.713" y1="120.255" x2="210.713" y2="327.591" gradientUnits="userSpaceOnUse">
<stop offset="0.0771858" stop-color="#16A187"/>
<stop offset="0.191481" stop-color="#29C4A2"/>
<stop offset="0.308524" stop-color="#59D7C2"/>
<stop offset="0.394061" stop-color="#89EFE2"/>
<stop offset="0.483678" stop-color="#8EEDE6"/>
<stop offset="0.576245" stop-color="#92DEEC"/>
<stop offset="0.688263" stop-color="#81C7E9"/>
<stop offset="0.773648" stop-color="#78AFE5"/>
<stop offset="0.858944" stop-color="#598FD7"/>
<stop offset="0.929472" stop-color="#4478CA"/>
<stop offset="1" stop-color="#2F60BC"/>
</linearGradient>
<linearGradient id="paint5_linear_188_532" x1="275.489" y1="322.556" x2="210.042" y2="244.19" gradientUnits="userSpaceOnUse">
<stop stop-color="#2F60BC"/>
<stop offset="0.297283" stop-color="#9BC5F3"/>
<stop offset="0.580086" stop-color="#AEDAF8"/>
<stop offset="0.757014" stop-color="#87CFEA"/>
</linearGradient>
<linearGradient id="paint6_linear_188_532" x1="275.489" y1="322.556" x2="210.042" y2="244.19" gradientUnits="userSpaceOnUse">
<stop stop-color="#2F60BC"/>
<stop offset="0.297283" stop-color="#9BC5F3"/>
<stop offset="0.580086" stop-color="#AEDAF8"/>
<stop offset="0.757014" stop-color="#87CFEA"/>
</linearGradient>
<linearGradient id="paint7_linear_188_532" x1="210.849" y1="327.654" x2="210.849" y2="281.859" gradientUnits="userSpaceOnUse">
<stop stop-color="#162C56"/>
<stop offset="1" stop-color="#11559C"/>
</linearGradient>
<linearGradient id="paint8_linear_188_532" x1="127.232" y1="288.989" x2="180.56" y2="225.189" gradientUnits="userSpaceOnUse">
<stop offset="0.0832449" stop-color="#00347F"/>
<stop offset="0.352553" stop-color="#055D8B"/>
<stop offset="0.658124" stop-color="#07898C"/>
<stop offset="0.941441" stop-color="#16A88D"/>
</linearGradient>
<linearGradient id="paint9_linear_188_532" x1="128.86" y1="279.198" x2="166.968" y2="222.704" gradientUnits="userSpaceOnUse">
<stop stop-color="#4B86CA"/>
<stop offset="0.309049" stop-color="#61C7D6"/>
<stop offset="0.573235" stop-color="#B5F2E7"/>
<stop offset="0.744859" stop-color="#E1FBF4"/>
<stop offset="0.891364" stop-color="#DEFAF3"/>
<stop offset="1" stop-color="#7BE6B8"/>
</linearGradient>
<linearGradient id="paint10_linear_188_532" x1="294.854" y1="289.492" x2="241.526" y2="225.693" gradientUnits="userSpaceOnUse">
<stop offset="0.0832449" stop-color="#00347F"/>
<stop offset="0.352553" stop-color="#055D8B"/>
<stop offset="0.658124" stop-color="#07898C"/>
<stop offset="0.941441" stop-color="#16A88D"/>
</linearGradient>
<linearGradient id="paint11_linear_188_532" x1="293.227" y1="279.703" x2="255.12" y2="223.209" gradientUnits="userSpaceOnUse">
<stop stop-color="#4B86CA"/>
<stop offset="0.309049" stop-color="#61C7D6"/>
<stop offset="0.573235" stop-color="#B5F2E7"/>
<stop offset="0.744859" stop-color="#E1FBF4"/>
<stop offset="0.891364" stop-color="#DEFAF3"/>
<stop offset="1" stop-color="#7BE6B8"/>
</linearGradient>
<linearGradient id="paint12_linear_188_532" x1="210.714" y1="330.611" x2="211.219" y2="310.733" gradientUnits="userSpaceOnUse">
<stop stop-color="#1350A8"/>
<stop offset="1" stop-color="#76C3EE"/>
</linearGradient>
<linearGradient id="paint13_linear_188_532" x1="210.714" y1="350.488" x2="210.714" y2="336.9" gradientUnits="userSpaceOnUse">
<stop stop-color="#073185"/>
</linearGradient>
<linearGradient id="paint14_linear_188_532" x1="210.714" y1="328.598" x2="210.714" y2="304.19" gradientUnits="userSpaceOnUse">
<stop stop-color="#1660CA"/>
<stop offset="0.335408" stop-color="#539BE4"/>
<stop offset="0.651811" stop-color="#8DCAF0"/>
<stop offset="0.918255" stop-color="#C7F8FC"/>
</linearGradient>
<linearGradient id="paint15_linear_188_532" x1="246.868" y1="369.015" x2="251.659" y2="337.062" gradientUnits="userSpaceOnUse">
<stop stop-color="#5E93D7"/>
<stop offset="1" stop-color="#AAD7FB"/>
</linearGradient>
<linearGradient id="paint16_linear_188_532" x1="250.132" y1="371.374" x2="263.236" y2="341.703" gradientUnits="userSpaceOnUse">
<stop stop-color="#002762"/>
<stop offset="1" stop-color="#3269AD"/>
</linearGradient>
<linearGradient id="paint17_linear_188_532" x1="240.842" y1="376.566" x2="248.907" y2="356.701" gradientUnits="userSpaceOnUse">
<stop offset="0.226429" stop-color="#2B59AE"/>
<stop offset="1" stop-color="#4484CB" stop-opacity="0"/>
</linearGradient>
<linearGradient id="paint18_linear_188_532" x1="174.824" y1="369.015" x2="170.034" y2="337.062" gradientUnits="userSpaceOnUse">
<stop stop-color="#5E93D7"/>
<stop offset="1" stop-color="#AAD7FB"/>
</linearGradient>
<linearGradient id="paint19_linear_188_532" x1="171.56" y1="371.374" x2="158.457" y2="341.703" gradientUnits="userSpaceOnUse">
<stop stop-color="#002762"/>
<stop offset="1" stop-color="#3269AD"/>
</linearGradient>
<linearGradient id="paint20_linear_188_532" x1="180.85" y1="376.566" x2="172.786" y2="356.701" gradientUnits="userSpaceOnUse">
<stop offset="0.226429" stop-color="#2B59AE"/>
<stop offset="1" stop-color="#4484CB" stop-opacity="0"/>
</linearGradient>
<linearGradient id="paint21_linear_188_532" x1="210.749" y1="327.654" x2="210.749" y2="281.859" gradientUnits="userSpaceOnUse">
<stop stop-color="#162C56"/>
<stop offset="1" stop-color="#11559C"/>
</linearGradient>
<linearGradient id="paint22_linear_188_532" x1="255.831" y1="172.73" x2="344.017" y2="96.0818" gradientUnits="userSpaceOnUse">
<stop offset="0.593138" stop-color="#4BD1B7"/>
<stop offset="0.700879" stop-color="#7AE7B9"/>
<stop offset="0.784675" stop-color="#8FEDBD"/>
<stop offset="0.934429" stop-color="#C2F5B7"/>
</linearGradient>
<linearGradient id="paint23_linear_188_532" x1="257.305" y1="174.695" x2="294.647" y2="124.333" gradientUnits="userSpaceOnUse">
<stop offset="0.169191" stop-color="#2F60BC" stop-opacity="0.9"/>
<stop offset="0.499756" stop-color="#79B2E5" stop-opacity="0.6"/>
<stop offset="0.649773" stop-color="#82C3E8" stop-opacity="0.5"/>
<stop offset="0.919072" stop-color="#8AD3EA" stop-opacity="0"/>
</linearGradient>
<linearGradient id="paint24_linear_188_532" x1="260.744" y1="167.08" x2="349.922" y2="104.68" gradientUnits="userSpaceOnUse">
<stop offset="0.0463599" stop-color="#2D9C84"/>
<stop offset="0.166875" stop-color="#56D7B3"/>
<stop offset="0.341378" stop-color="#AAF7D7"/>
<stop offset="0.599957" stop-color="#F6FDF9"/>
<stop offset="0.7453" stop-color="#F6FDF9" stop-opacity="0.976471"/>
<stop offset="0.933182" stop-color="#E3FCD4"/>
</linearGradient>
<linearGradient id="paint25_linear_188_532" x1="263.446" y1="176.661" x2="347.76" y2="103.452" gradientUnits="userSpaceOnUse">
<stop stop-color="#00347F"/>
<stop offset="0.236352" stop-color="#055D8B"/>
<stop offset="0.55659" stop-color="#07898C"/>
<stop offset="0.743206" stop-color="#16A88D"/>
<stop offset="1" stop-color="#57C49C"/>
</linearGradient>
<linearGradient id="paint26_linear_188_532" x1="137.438" y1="203.959" x2="37.0515" y2="217.708" gradientUnits="userSpaceOnUse">
<stop stop-color="#44C2CA"/>
<stop offset="0.221727" stop-color="#41C1C5"/>
<stop offset="0.423772" stop-color="#3AD1B4"/>
<stop offset="0.645964" stop-color="#59DCB0"/>
<stop offset="1" stop-color="#17C193"/>
</linearGradient>
<linearGradient id="paint27_linear_188_532" x1="141.498" y1="197.557" x2="44.2072" y2="188.841" gradientUnits="userSpaceOnUse">
<stop stop-color="#56D1B4"/>
<stop offset="0.31994" stop-color="#CBF9E7"/>
<stop offset="0.660711" stop-color="#F0FEF4"/>
<stop offset="0.888965" stop-color="#ACF3C9"/>
</linearGradient>
<linearGradient id="paint28_linear_188_532" x1="138.453" y1="227.97" x2="28.4843" y2="225.249" gradientUnits="userSpaceOnUse">
<stop stop-color="#00347F"/>
<stop offset="0.261165" stop-color="#055D8B"/>
<stop offset="0.636627" stop-color="#07898C"/>
<stop offset="1" stop-color="#16A88D"/>
</linearGradient>
<linearGradient id="paint29_linear_188_532" x1="144.543" y1="216.714" x2="28.4717" y2="216.714" gradientUnits="userSpaceOnUse">
<stop stop-color="#A6FAFF"/>
<stop offset="1" stop-color="white"/>
</linearGradient>
<linearGradient id="paint30_linear_188_532" x1="242.914" y1="179.403" x2="242.914" y2="262.915" gradientUnits="userSpaceOnUse">
<stop stop-color="#7AB4E6"/>
<stop offset="0.25" stop-color="#5E95D9"/>
<stop offset="0.5" stop-color="#295EA0"/>
<stop offset="1" stop-color="#002762"/>
</linearGradient>
<linearGradient id="paint31_linear_188_532" x1="285.076" y1="203.96" x2="385.463" y2="217.709" gradientUnits="userSpaceOnUse">
<stop stop-color="#44C2CA"/>
<stop offset="0.221727" stop-color="#41C1C5"/>
<stop offset="0.423772" stop-color="#3AD1B4"/>
<stop offset="0.645964" stop-color="#59DCB0"/>
<stop offset="1" stop-color="#17C193"/>
</linearGradient>
<linearGradient id="paint32_linear_188_532" x1="281.016" y1="197.558" x2="378.307" y2="188.842" gradientUnits="userSpaceOnUse">
<stop stop-color="#56D1B4"/>
<stop offset="0.31994" stop-color="#CBF9E7"/>
<stop offset="0.660711" stop-color="#F0FEF4"/>
<stop offset="0.888965" stop-color="#ACF3C9"/>
</linearGradient>
<linearGradient id="paint33_linear_188_532" x1="284.061" y1="227.971" x2="394.03" y2="225.249" gradientUnits="userSpaceOnUse">
<stop stop-color="#00347F"/>
<stop offset="0.261165" stop-color="#055D8B"/>
<stop offset="0.636627" stop-color="#07898C"/>
<stop offset="1" stop-color="#16A88D"/>
</linearGradient>
<linearGradient id="paint34_linear_188_532" x1="277.972" y1="216.714" x2="394.043" y2="216.714" gradientUnits="userSpaceOnUse">
<stop stop-color="#A6FAFF"/>
<stop offset="1" stop-color="white"/>
</linearGradient>
<linearGradient id="paint35_linear_188_532" x1="145.434" y1="323.817" x2="210.882" y2="245.451" gradientUnits="userSpaceOnUse">
<stop stop-color="#2F60BC"/>
<stop offset="0.297283" stop-color="#9BC5F3"/>
<stop offset="0.580086" stop-color="#AEDAF8"/>
<stop offset="0.757014" stop-color="#87CFEA"/>
</linearGradient>
<linearGradient id="paint36_linear_188_532" x1="145.434" y1="323.817" x2="210.882" y2="245.451" gradientUnits="userSpaceOnUse">
<stop stop-color="#2F60BC"/>
<stop offset="0.297283" stop-color="#9BC5F3"/>
<stop offset="0.580086" stop-color="#AEDAF8"/>
<stop offset="0.757014" stop-color="#87CFEA"/>
</linearGradient>
<linearGradient id="paint37_linear_188_532" x1="178.543" y1="179.406" x2="178.543" y2="262.918" gradientUnits="userSpaceOnUse">
<stop stop-color="#7AB4E6"/>
<stop offset="0.25" stop-color="#5E95D9"/>
<stop offset="0.5" stop-color="#295EA0"/>
<stop offset="1" stop-color="#002762"/>
</linearGradient>
<linearGradient id="paint38_linear_188_532" x1="209.938" y1="117.492" x2="209.442" y2="72.9551" gradientUnits="userSpaceOnUse">
<stop stop-color="#0D9087"/>
<stop offset="0.402348" stop-color="#1CC0A5"/>
<stop offset="0.759515" stop-color="#89E9CD"/>
<stop offset="1" stop-color="#CCF8E7"/>
</linearGradient>
<linearGradient id="paint39_linear_188_532" x1="209.444" y1="73.9616" x2="209.405" y2="64.6516" gradientUnits="userSpaceOnUse">
<stop stop-color="#C4F5E0"/>
<stop offset="1" stop-color="#F3FFFF"/>
</linearGradient>
<linearGradient id="paint40_linear_188_532" x1="210.448" y1="125.544" x2="210.448" y2="81.7624" gradientUnits="userSpaceOnUse">
<stop stop-color="#33B6A0"/>
<stop offset="0.388465" stop-color="#82EACC"/>
<stop offset="0.897525" stop-color="#DBFCE9"/>
</linearGradient>
<linearGradient id="paint41_linear_188_532" x1="210.448" y1="125.544" x2="210.448" y2="81.7624" gradientUnits="userSpaceOnUse">
<stop stop-color="#33B6A0"/>
<stop offset="0.388465" stop-color="#82EACC"/>
<stop offset="0.897525" stop-color="#DBFCE9"/>
</linearGradient>
<linearGradient id="paint42_linear_188_532" x1="210.448" y1="97.111" x2="210.448" y2="43.2641" gradientUnits="userSpaceOnUse">
<stop stop-color="#00957C"/>
<stop offset="0.332644" stop-color="#2FBC99"/>
<stop offset="0.676325" stop-color="#9CEBD1"/>
<stop offset="1" stop-color="#D9FAE7"/>
</linearGradient>
<linearGradient id="paint43_linear_188_532" x1="210.448" y1="135.862" x2="210.448" y2="88.6157" gradientUnits="userSpaceOnUse">
<stop stop-color="#01585F"/>
<stop offset="0.3" stop-color="#026D74"/>
<stop offset="0.5" stop-color="#00807B"/>
<stop offset="0.7" stop-color="#04A387"/>
<stop offset="0.9375" stop-color="#04A387"/>
<stop offset="1" stop-color="#35C39D"/>
</linearGradient>
<linearGradient id="paint44_linear_188_532" x1="255.832" y1="172.732" x2="344.018" y2="96.0833" gradientUnits="userSpaceOnUse">
<stop offset="0.593138" stop-color="#4BD1B7"/>
<stop offset="0.700879" stop-color="#7AE7B9"/>
<stop offset="0.784675" stop-color="#8FEDBD"/>
<stop offset="0.934429" stop-color="#C2F5B7"/>
</linearGradient>
<linearGradient id="paint45_linear_188_532" x1="257.306" y1="174.696" x2="294.647" y2="124.334" gradientUnits="userSpaceOnUse">
<stop offset="0.169191" stop-color="#2F60BC" stop-opacity="0.9"/>
<stop offset="0.499756" stop-color="#79B2E5" stop-opacity="0.6"/>
<stop offset="0.649773" stop-color="#82C3E8" stop-opacity="0.5"/>
<stop offset="0.919072" stop-color="#8AD3EA" stop-opacity="0"/>
</linearGradient>
<linearGradient id="paint46_linear_188_532" x1="260.745" y1="167.082" x2="349.923" y2="104.682" gradientUnits="userSpaceOnUse">
<stop offset="0.0463599" stop-color="#2D9C84"/>
<stop offset="0.166875" stop-color="#56D7B3"/>
<stop offset="0.341378" stop-color="#AAF7D7"/>
<stop offset="0.599957" stop-color="#F6FDF9"/>
<stop offset="0.7453" stop-color="#F6FDF9" stop-opacity="0.976471"/>
<stop offset="0.933182" stop-color="#E3FCD4"/>
</linearGradient>
<linearGradient id="paint47_linear_188_532" x1="263.446" y1="176.663" x2="347.759" y2="103.453" gradientUnits="userSpaceOnUse">
<stop stop-color="#00347F"/>
<stop offset="0.236352" stop-color="#055D8B"/>
<stop offset="0.55659" stop-color="#07898C"/>
<stop offset="0.743206" stop-color="#16A88D"/>
<stop offset="1" stop-color="#57C49C"/>
</linearGradient>
<linearGradient id="paint48_linear_188_532" x1="262.611" y1="175.385" x2="203.689" y2="245.162" gradientUnits="userSpaceOnUse">
<stop stop-color="#8FDFEA"/>
<stop offset="0.5" stop-color="#80C1E7"/>
<stop offset="1" stop-color="#77B0E4"/>
</linearGradient>
<linearGradient id="paint49_linear_188_532" x1="285.076" y1="203.958" x2="385.463" y2="217.708" gradientUnits="userSpaceOnUse">
<stop stop-color="#44C2CA"/>
<stop offset="0.221727" stop-color="#41C1C5"/>
<stop offset="0.423772" stop-color="#3AD1B4"/>
<stop offset="0.645964" stop-color="#59DCB0"/>
<stop offset="1" stop-color="#17C193"/>
</linearGradient>
<linearGradient id="paint50_linear_188_532" x1="281.016" y1="197.556" x2="378.307" y2="188.84" gradientUnits="userSpaceOnUse">
<stop stop-color="#56D1B4"/>
<stop offset="0.31994" stop-color="#CBF9E7"/>
<stop offset="0.660711" stop-color="#F0FEF4"/>
<stop offset="0.888965" stop-color="#ACF3C9"/>
</linearGradient>
<linearGradient id="paint51_linear_188_532" x1="284.061" y1="227.969" x2="394.03" y2="225.248" gradientUnits="userSpaceOnUse">
<stop stop-color="#00347F"/>
<stop offset="0.261165" stop-color="#055D8B"/>
<stop offset="0.636627" stop-color="#07898C"/>
<stop offset="1" stop-color="#16A88D"/>
</linearGradient>
<linearGradient id="paint52_linear_188_532" x1="277.972" y1="216.713" x2="394.043" y2="216.713" gradientUnits="userSpaceOnUse">
<stop stop-color="#A6FAFF"/>
<stop offset="1" stop-color="white"/>
</linearGradient>
<linearGradient id="paint53_linear_188_532" x1="155.103" y1="174.35" x2="212.992" y2="239.992" gradientUnits="userSpaceOnUse">
<stop stop-color="#91E3EA"/>
<stop offset="0.25" stop-color="#88D2E9"/>
<stop offset="1" stop-color="#75ABE3"/>
</linearGradient>
<linearGradient id="paint54_linear_188_532" x1="228.201" y1="176.08" x2="184.706" y2="187.954" gradientUnits="userSpaceOnUse">
<stop stop-color="#6C9ADD"/>
<stop offset="1" stop-color="#00AD8B"/>
</linearGradient>
<linearGradient id="paint55_linear_188_532" x1="242.679" y1="178.476" x2="199.279" y2="157.194" gradientUnits="userSpaceOnUse">
<stop stop-color="#6C9ADD"/>
<stop offset="1" stop-color="#00AD8B"/>
</linearGradient>
<linearGradient id="paint56_linear_188_532" x1="233.144" y1="191.328" x2="228.853" y2="201.118" gradientUnits="userSpaceOnUse">
<stop stop-color="#6C9ADD"/>
<stop offset="1" stop-color="#00AD8B"/>
</linearGradient>
<linearGradient id="paint57_linear_188_532" x1="228.386" y1="194.232" x2="222.17" y2="200.937" gradientUnits="userSpaceOnUse">
<stop stop-color="#6C9ADD"/>
<stop offset="1" stop-color="#00AD8B"/>
</linearGradient>
<linearGradient id="paint58_linear_188_532" x1="223.675" y1="196.827" x2="219.546" y2="204.124" gradientUnits="userSpaceOnUse">
<stop stop-color="#6C9ADD"/>
<stop offset="1" stop-color="#00AD8B"/>
</linearGradient>
<linearGradient id="paint59_linear_188_532" x1="218.603" y1="199.681" x2="214.868" y2="206.91" gradientUnits="userSpaceOnUse">
<stop stop-color="#6C9ADD"/>
<stop offset="1" stop-color="#00AD8B"/>
</linearGradient>
<linearGradient id="paint60_linear_188_532" x1="215.39" y1="198.775" x2="197.189" y2="206.522" gradientUnits="userSpaceOnUse">
<stop stop-color="#6C9ADD"/>
<stop offset="1" stop-color="#00AD8B"/>
</linearGradient>
<linearGradient id="paint61_linear_188_532" x1="212.191" y1="143.651" x2="212.191" y2="158.581" gradientUnits="userSpaceOnUse">
<stop stop-color="#86A0D3"/>
<stop offset="1" stop-color="#002444"/>
</linearGradient>
</defs>
</svg>
