<svg width="428" height="428" viewBox="0 0 428 428" fill="none" xmlns="http://www.w3.org/2000/svg">
<path d="M166.16 173.747C173.039 151.882 168.42 97.5895 77.2282 95.6241C69.367 150.408 125.134 186.276 166.16 173.747Z" fill="url(#paint0_linear_188_240)"/>
<path d="M136.877 110.607C161.041 128.942 170.529 159.607 166.159 173.498C144.162 180.216 107.119 155.178 88.7259 138.613C135.287 138.613 131.92 126.597 136.877 110.607Z" fill="url(#paint1_linear_188_240)"/>
<path d="M166.16 173.747C173.039 151.882 168.42 97.5895 77.2282 95.6241C106.158 101.717 163.409 129.281 166.16 173.747Z" fill="url(#paint2_linear_188_240)"/>
<path d="M166.358 173.747C125.331 186.276 69.319 150.408 77.1802 95.6241C85.9587 118.226 125.037 164.903 166.358 173.747Z" fill="url(#paint3_linear_188_240)"/>
<path d="M278.589 298.913C290.24 325.9 272.728 340.172 272.728 340.172C270.915 336.539 262.535 326.678 250.625 322.007C241.097 318.271 231.81 309.898 228.358 306.179C215.93 292.478 211.442 277.462 210.751 271.667C205.366 300.937 181.838 317.51 170.877 322.267C160.779 327.716 156.984 329.541 148.698 339.92C121.253 311.636 156.12 277.376 171.136 268.294C176.981 266.326 190.14 259.555 191.82 248.21C195.497 240.857 201.905 225.835 202.326 224.574C202.746 223.314 213.262 219.609 219.612 224.718C216.067 235.81 225.868 259.462 246.616 266.95C249.082 269.223 252.051 270.99 255.027 272.964C270.355 283.136 277.121 294.502 278.589 298.913Z" fill="url(#paint4_linear_188_240)"/>
<path d="M272.728 339.918C273.23 328.595 250.382 310.478 237.327 301.168C233.085 298.144 225.075 290.6 222.262 286.574C229.041 292.613 233.56 295.381 244.608 301.045C266.3 311.311 274.234 331.111 272.728 339.918Z" fill="url(#paint5_linear_188_240)"/>
<path d="M250.131 267.199C239.586 260.657 227.532 252.272 222.764 244.554C225.027 250.676 234.264 262.098 250.131 272.484C270.122 285.568 280.238 303.855 282.269 320.292C286.035 297.142 261.983 274.552 250.131 267.199Z" fill="url(#paint6_linear_188_240)"/>
<path d="M171.013 322.331C160.915 327.78 156.984 329.54 148.698 339.92C147.856 328.841 169.673 311.55 182.98 302.24C193.625 294.792 205.846 278.797 210.713 271.731C205.327 301.001 181.974 317.573 171.013 322.331Z" fill="url(#paint7_linear_188_240)" stroke="black" stroke-width="0.132397"/>
<path d="M165.83 263.057C187.106 251.308 180.533 235.138 173.157 229.061C160.945 218.997 140.048 229.061 132.178 247.283C125.882 261.861 131.002 278.379 134.349 284.816C135.978 282.458 144.553 274.807 165.83 263.057Z" fill="url(#paint8_linear_188_240)"/>
<path d="M131.846 247.283C125.55 261.86 130.67 278.378 134.017 284.815C134.017 260.446 160.16 237.314 173.096 228.883C160.883 218.819 139.716 229.06 131.846 247.283Z" fill="url(#paint9_linear_188_240)"/>
<path d="M256.257 263.561C234.98 251.811 241.554 235.642 248.929 229.564C261.142 219.501 282.038 229.564 289.908 247.786C296.204 262.364 291.084 278.882 287.737 285.319C286.109 282.962 277.533 275.31 256.257 263.561Z" fill="url(#paint10_linear_188_240)"/>
<path d="M290.242 247.788C296.538 262.366 291.418 278.884 288.071 285.32C288.071 260.952 261.928 237.819 248.992 229.388C261.204 219.325 282.372 229.566 290.242 247.788Z" fill="url(#paint11_linear_188_240)"/>
<path d="M210.965 356.78C206.195 348.728 192.72 333.463 186.109 326.837C191.298 320.211 203.584 305.952 211.216 301.926C217.158 306.371 230.398 317.577 235.821 326.837C231.804 329.856 216.74 347.973 210.965 356.78Z" fill="url(#paint12_linear_188_240)"/>
<path d="M210.965 357.03C206.195 348.978 192.72 333.713 186.109 327.087C187.094 327.334 189.699 327.683 192.386 328.61C197.912 330.517 205.404 333.824 211.216 336.397C216.706 333.818 224.776 330.51 230.298 328.61C232.856 327.729 234.867 327.151 235.821 327.087C231.804 330.107 216.74 348.223 210.965 357.03Z" fill="url(#paint13_linear_188_240)"/>
<path d="M192.386 328.359C189.699 327.433 187.094 327.084 186.109 326.837C191.298 320.211 203.584 305.952 211.216 301.926C217.158 306.371 230.398 317.577 235.821 326.837C234.867 326.9 232.856 327.479 230.298 328.359C227.034 323.817 217.744 314.507 211.216 309.223C204.437 314.004 198.16 320.978 192.386 328.359Z" fill="url(#paint14_linear_188_240)"/>
<path d="M243.101 345.363C246.516 365.09 233.644 377.235 226.782 380.842C236.657 378.41 258.166 370.375 265.196 357.693C272.226 345.011 259.254 332.782 251.889 328.253C247.537 325.737 239.687 325.636 243.101 345.363Z" fill="url(#paint15_linear_188_240)"/>
<path d="M252.637 328.982C252.382 328.816 252.132 328.658 251.889 328.508C252.126 328.641 252.376 328.799 252.637 328.982C260.089 333.846 271.993 345.685 265.196 357.948C258.166 370.63 236.657 378.664 226.782 381.097C233.496 378.497 248.619 369.975 255.404 356.69C263.385 341.062 256.79 331.895 252.637 328.982Z" fill="url(#paint16_linear_188_240)"/>
<path d="M226.782 381.096C233.638 377.493 246.492 365.367 243.111 345.673C243.108 345.654 243.105 345.636 243.101 345.617C243.105 345.636 243.108 345.654 243.111 345.673C243.761 349.382 247.105 356.689 255.404 356.689C248.619 369.974 233.496 378.496 226.782 381.096Z" fill="url(#paint17_linear_188_240)"/>
<path d="M178.59 345.363C175.176 365.09 188.048 377.235 194.91 380.842C185.035 378.41 163.526 370.375 156.496 357.693C149.466 345.011 162.438 332.782 169.803 328.253C174.155 325.737 182.005 325.636 178.59 345.363Z" fill="url(#paint18_linear_188_240)"/>
<path d="M169.055 328.982C169.31 328.816 169.56 328.658 169.803 328.508C169.566 328.641 169.316 328.799 169.055 328.982C161.603 333.846 149.698 345.685 156.496 357.948C163.526 370.63 185.035 378.664 194.91 381.097C188.196 378.497 173.073 369.975 166.288 356.69C158.307 341.062 164.902 331.895 169.055 328.982Z" fill="url(#paint19_linear_188_240)"/>
<path d="M194.91 381.096C188.054 377.493 175.2 365.367 178.581 345.673C178.584 345.654 178.587 345.636 178.59 345.617C178.587 345.636 178.584 345.654 178.581 345.673C177.931 349.382 174.586 356.689 166.288 356.689C173.073 369.974 188.196 378.496 194.91 381.096Z" fill="url(#paint20_linear_188_240)"/>
<path d="M250.663 322.373C260.702 327.79 264.461 329.819 272.726 340.172C273.567 329.092 251.925 311.55 238.618 302.24C227.973 294.792 215.578 278.797 210.711 271.731C216.097 301.001 239.624 317.573 250.585 322.331L250.663 322.373Z" fill="url(#paint21_linear_188_240)"/>
<path d="M254.308 174.204C247.429 152.34 252.048 98.0471 343.24 96.0818C351.101 150.866 295.334 186.734 254.308 174.204Z" fill="url(#paint22_linear_188_240)"/>
<path d="M283.592 111.067C259.428 129.402 249.939 160.067 254.31 173.958C276.307 180.676 313.35 155.638 331.743 139.073C285.182 139.073 288.548 127.057 283.592 111.067Z" fill="url(#paint23_linear_188_240)"/>
<path d="M254.308 174.204C247.429 152.34 252.048 98.0471 343.24 96.0818C314.31 102.174 257.059 129.738 254.308 174.204Z" fill="url(#paint24_linear_188_240)"/>
<path d="M254.11 174.204C295.137 186.734 351.149 150.866 343.288 96.0818C334.51 118.683 295.432 165.36 254.11 174.204Z" fill="url(#paint25_linear_188_240)"/>
<path d="M28.4712 209.109C85.3095 142.339 144.542 180.068 144.542 206.811C144.176 217.111 140.219 229.551 125.4 237.234C106.877 246.837 85.1392 248.343 62.7264 232.66C41.1584 217.569 41.6656 217.112 28.4712 209.109Z" fill="url(#paint26_linear_188_240)"/>
<path d="M28.4712 209.109C85.3095 142.338 144.542 180.068 144.542 206.811C140.361 201.022 126.669 188.803 105.355 186.242C78.7122 183.04 46.7402 192.874 28.4712 209.109Z" fill="url(#paint27_linear_188_240)"/>
<path d="M125.4 237.356C140.219 229.673 144.176 217.233 144.542 206.933C138.246 213.416 120.027 225.098 97.7428 226.38C85.817 227.066 71.1 224.779 52.8306 216.515C48.517 214.564 29.7158 207.885 28.4712 209.231C41.6656 217.234 41.1584 217.691 62.7264 232.783C85.1392 248.465 106.877 246.96 125.4 237.356Z" fill="url(#paint28_linear_188_240)"/>
<path d="M97.7428 226.38C120.027 225.098 138.246 213.416 144.542 206.933C113.982 232.554 68.8163 223.746 52.8306 216.515C71.1 224.779 85.817 227.066 97.7428 226.38Z" fill="url(#paint29_linear_188_240)"/>
<path d="M235.027 232.977C223.771 246.864 231.565 255.037 239.092 259.764C218.863 251.36 213.857 228.775 222.325 218.796C229.646 210.168 233.615 209.867 247.258 203.038C258.172 197.576 262.783 185.005 263.723 179.403C267.487 183.605 267.173 192.709 266.546 196.736C264.194 220.897 245.243 220.371 235.027 232.977Z" fill="url(#paint30_linear_188_240)"/>
<path d="M394.043 209.11C337.204 142.339 277.971 180.069 277.971 206.812C278.338 217.112 282.295 229.551 297.113 237.235C315.636 246.838 337.374 248.344 359.787 232.661C381.355 217.57 380.848 217.113 394.043 209.11Z" fill="url(#paint31_linear_188_240)"/>
<path d="M394.043 209.11C337.204 142.339 277.971 180.069 277.971 206.812C282.153 201.023 295.844 188.804 317.159 186.243C343.801 183.041 375.773 192.875 394.043 209.11Z" fill="url(#paint32_linear_188_240)"/>
<path d="M297.113 237.357C282.295 229.674 278.338 217.234 277.971 206.934C284.267 213.417 302.487 225.099 324.771 226.381C336.697 227.067 351.414 224.78 369.683 216.516C373.997 214.565 392.798 207.886 394.043 209.232C380.848 217.235 381.355 217.692 359.787 232.784C337.374 248.466 315.636 246.961 297.113 237.357Z" fill="url(#paint33_linear_188_240)"/>
<path d="M324.771 226.381C302.487 225.099 284.267 213.417 277.971 206.934C308.531 232.555 353.697 223.747 369.683 216.516C351.414 224.78 336.697 227.067 324.771 226.381Z" fill="url(#paint34_linear_188_240)"/>
<path d="M148.698 339.921C149.451 329.101 169.863 311.739 183.346 302.306C187.615 299.319 195.347 291.609 198.159 287.584C191.381 293.622 187.364 296.642 176.316 302.306C154.623 312.572 148.196 331.114 148.698 339.921Z" fill="url(#paint35_linear_188_240)"/>
<path d="M170.792 268.46C181.338 261.918 193.14 253.029 197.908 245.311C195.646 251.434 186.66 263.359 170.792 273.744C150.802 286.829 140.938 305.116 138.907 321.552C134.699 298.17 158.941 275.813 170.792 268.46Z" fill="url(#paint36_linear_188_240)"/>
<path d="M186.431 232.98C197.486 246.712 190.249 254.982 183.013 260.151C203.688 251.881 207.601 228.778 199.132 218.799C191.811 210.171 187.842 209.87 174.199 203.042C163.285 197.579 158.675 185.009 157.734 179.406C153.971 183.608 154.284 192.712 154.911 196.739C157.264 220.9 176.256 220.341 186.431 232.98Z" fill="url(#paint37_linear_188_240)"/>
<path d="M173.096 99.4787C162.721 54.7182 255.584 50.9674 246.475 100.729C239.71 109.086 233.291 117.96 224.911 126.087C216.507 123.986 201.8 124.511 195.498 126.087C187.495 118.665 177.468 105.886 173.096 99.4787Z" fill="url(#paint38_linear_188_240)"/>
<path d="M245.9 100.954C254.939 50.8818 162.795 54.6562 173.089 99.6963C175.801 62.8905 244.092 61.6324 245.9 100.954Z" fill="url(#paint39_linear_188_240)"/>
<path d="M246.1 100.509C266.939 76.353 296.063 82.2661 313.638 89.0599C308.449 88.7244 296.565 88.3805 289.535 89.1856C280.748 90.1921 270.956 95.7278 265.181 98.244C260.562 100.257 247.02 110.993 240.827 116.109C236.678 119.562 232.608 123.174 228.854 126.882C228.647 126.677 225.666 126.219 224.201 126.015C232.511 117.841 239.39 108.914 246.1 100.509Z" fill="url(#paint40_linear_188_240)"/>
<path d="M173.289 99.2505C150.19 73.8871 121.317 81.2596 107.257 89.0599C141.804 86.443 157.471 98.9989 164.752 104.283C168.575 107.057 180.908 116.141 191.763 126.84C192.975 126.568 195.524 126.114 195.955 126.045L195.866 125.96C187.934 118.482 177.615 105.679 173.289 99.2505Z" fill="url(#paint41_linear_188_240)"/>
<path d="M129.602 73.2078C117.752 78.8441 109.851 85.7047 107.257 89.0596C121.317 81.2594 150.19 74.2643 173.289 99.6277C162.995 54.5875 255.138 50.8132 246.1 100.886C266.939 76.7302 296.063 82.2658 313.638 89.0596C288.029 67.4202 277.926 67.2575 269.449 69.6848C262.419 71.6978 254.804 82.9368 250.87 88.5564L256.896 76.7302C263.926 60.1232 253.381 56.852 247.355 56.852C241.329 56.852 238.317 56.852 224.759 55.8456C213.912 55.0405 209.527 45.6131 208.69 41C205.928 56.3489 189.106 57.1037 180.319 56.852C173.289 56.6507 168.686 57.9425 167.263 58.6135C155.965 63.9419 163.497 78.4915 167.263 87.0466C162.242 79.2464 156.634 73.3754 153.705 71.698C150.609 69.8528 141.453 67.5714 129.602 73.2078Z" fill="url(#paint42_linear_188_240)"/>
<path d="M172.033 135.862C166.175 122.023 145.219 92.885 107.257 89.0604C141.804 86.4435 157.471 98.8739 164.752 104.158C173.962 110.856 188.669 123.462 191.82 126.84C202.84 124.416 216.398 123.976 228.81 126.891C228.988 126.272 236.305 119.621 241.192 115.584C247.385 110.467 260.101 100.877 265.181 98.1191C270.717 95.1139 280.748 90.0672 289.535 89.0607C296.565 88.2555 308.449 88.7248 313.638 89.0603C289.033 89.0603 254.385 114.474 248.862 135.862C243.086 131.51 236.148 128.614 228.81 126.891C216.398 123.976 202.84 124.416 191.82 126.84C182.927 128.796 175.687 132.043 172.033 135.862Z" fill="url(#paint43_linear_188_240)"/>
<path d="M254.309 174.206C247.43 152.341 252.048 98.0484 343.241 96.083C351.102 150.867 295.335 186.735 254.309 174.206Z" fill="url(#paint44_linear_188_240)"/>
<path d="M283.592 111.068C259.428 129.403 249.94 160.068 254.31 173.959C276.308 180.677 313.351 155.639 331.743 139.075C285.182 139.075 288.549 127.058 283.592 111.068Z" fill="url(#paint45_linear_188_240)"/>
<path d="M254.309 174.206C247.43 152.341 252.048 98.0484 343.241 96.083C314.311 102.176 257.06 129.74 254.309 174.206Z" fill="url(#paint46_linear_188_240)"/>
<path d="M254.11 174.206C295.137 186.735 351.149 150.867 343.288 96.083C334.51 118.685 295.432 165.362 254.11 174.206Z" fill="url(#paint47_linear_188_240)"/>
<path d="M247.258 203.042C258.173 197.579 262.783 185.009 263.724 179.406C264.559 184.441 264.45 196.207 254.858 203.296C242.971 212.083 224.88 214.15 218.478 232.98C218.013 227.464 219.322 222.339 222.325 218.799C229.647 210.171 233.616 209.87 247.258 203.042Z" fill="url(#paint48_linear_188_240)"/>
<path d="M394.043 209.107C337.204 142.337 277.971 180.067 277.971 206.81C278.338 217.11 282.295 229.549 297.113 237.232C315.636 246.836 337.374 248.342 359.787 232.659C381.355 217.567 380.848 217.111 394.043 209.107Z" fill="url(#paint49_linear_188_240)"/>
<path d="M394.043 209.107C337.204 142.337 277.971 180.067 277.971 206.81C282.153 201.021 295.844 188.802 317.159 186.241C343.801 183.039 375.773 192.873 394.043 209.107Z" fill="url(#paint50_linear_188_240)"/>
<path d="M297.113 237.355C282.295 229.672 278.338 217.232 277.971 206.932C284.267 213.414 302.487 225.097 324.771 226.379C336.697 227.065 351.414 224.778 369.683 216.514C373.997 214.563 392.798 207.884 394.043 209.23C380.848 217.233 381.355 217.69 359.787 232.781C337.374 248.464 315.636 246.958 297.113 237.355Z" fill="url(#paint51_linear_188_240)"/>
<path d="M324.771 226.379C302.487 225.097 284.267 213.414 277.971 206.932C308.531 232.553 353.697 223.745 369.683 216.514C351.414 224.778 336.697 227.065 324.771 226.379Z" fill="url(#paint52_linear_188_240)"/>
<path d="M174.476 203.154C163.562 197.692 158.951 185.121 158.011 179.519C157.175 184.553 157.285 196.319 166.876 203.409C178.764 212.195 196.854 214.263 203.256 233.093C203.721 227.577 202.413 222.451 199.409 218.911C192.088 210.284 188.119 209.982 174.476 203.154Z" fill="url(#paint53_linear_188_240)"/>
<path d="M210.606 187.142C207.309 187.081 204.788 185.028 203.065 181.881C201.367 178.779 200.473 174.652 200.405 170.477H210.606V187.142ZM221.069 170.477C221.011 174.652 220.127 178.779 218.436 181.881C216.781 184.918 214.381 186.935 211.252 187.127V170.477H221.069ZM227.978 170.477C227.8 178.428 222.201 185.042 214.731 186.766C216.489 185.792 217.911 184.178 218.996 182.187C220.75 178.968 221.648 174.729 221.707 170.477H227.978ZM199.767 170.477C199.835 174.729 200.744 178.968 202.505 182.187C203.561 184.115 204.932 185.69 206.618 186.672C199.34 184.814 193.929 178.291 193.754 170.477H199.767ZM206.47 153.541C204.804 154.526 203.455 156.086 202.42 157.992C200.654 161.244 199.78 165.536 199.763 169.83H193.752C193.868 162.01 199.226 155.461 206.47 153.541ZM210.606 169.83H200.4C200.417 165.611 201.279 161.43 202.981 158.296C204.696 155.137 207.238 153.079 210.606 153.036V169.83ZM211.252 153.052C214.409 153.257 216.813 155.272 218.462 158.296C220.172 161.43 221.044 165.611 221.072 169.83H211.252V153.052ZM214.728 153.409C222.241 155.141 227.861 161.819 227.979 169.83H221.709C221.682 165.536 220.796 161.243 219.022 157.991C217.934 155.997 216.504 154.382 214.728 153.409Z" fill="url(#paint54_linear_188_240)"/>
<path d="M189.76 152.795V151.269H192.107L190.464 152.677C190.229 152.834 189.76 153.076 189.76 152.795Z" fill="#4980D0"/>
<path d="M199.616 140.475C200.523 140.475 201.259 141.21 201.259 142.117V149.627C201.259 150.534 200.523 151.269 199.616 151.27H186.474C185.566 151.27 184.831 150.534 184.831 149.627V142.117C184.831 141.21 185.567 140.475 186.474 140.475H199.616ZM193.044 144.704C192.461 144.704 191.988 145.177 191.988 145.76C191.988 146.343 192.461 146.817 193.044 146.817C193.627 146.817 194.1 146.343 194.1 145.76C194.099 145.177 193.627 144.704 193.044 144.704ZM190.137 144.699C189.554 144.699 189.081 145.173 189.081 145.756C189.081 146.339 189.554 146.812 190.137 146.812C190.72 146.812 191.192 146.339 191.192 145.756C191.192 145.173 190.72 144.699 190.137 144.699ZM195.861 144.699C195.278 144.699 194.806 145.173 194.806 145.756C194.806 146.339 195.278 146.811 195.861 146.812C196.445 146.812 196.918 146.339 196.918 145.756C196.918 145.173 196.445 144.699 195.861 144.699Z" fill="url(#paint55_linear_188_240)"/>
<path d="M187.321 163.284C187.868 163.284 188.311 163.727 188.311 164.274V175.567C188.311 176.114 187.868 176.558 187.321 176.558H175.235C174.688 176.558 174.245 176.114 174.245 175.567V164.274C174.245 163.727 174.688 163.284 175.235 163.284H187.321ZM175.434 173.784C175.215 173.784 175.038 173.962 175.038 174.181V175.171C175.038 175.39 175.215 175.567 175.434 175.567H177.811C178.03 175.567 178.208 175.39 178.208 175.171V174.181C178.208 173.962 178.03 173.784 177.811 173.784H175.434ZM179.99 173.784C179.771 173.784 179.593 173.962 179.593 174.181V175.171C179.593 175.39 179.771 175.567 179.99 175.567H182.367C182.586 175.567 182.763 175.39 182.763 175.171V174.181C182.763 173.962 182.586 173.784 182.367 173.784H179.99ZM184.349 173.784C184.13 173.784 183.953 173.962 183.953 174.181V175.171C183.953 175.39 184.13 175.567 184.349 175.567H186.727C186.946 175.567 187.123 175.39 187.123 175.171V174.181C187.123 173.962 186.946 173.784 186.727 173.784H184.349ZM176.423 166.85C176.095 166.85 175.829 167.117 175.829 167.445V172.2C175.829 172.528 176.095 172.795 176.423 172.795H179.99C180.318 172.795 180.583 172.528 180.583 172.2V167.445C180.583 167.117 180.318 166.851 179.99 166.85H176.423ZM182.764 166.85C182.436 166.85 182.169 167.117 182.169 167.445V172.2C182.169 172.528 182.436 172.795 182.764 172.795H186.331C186.659 172.795 186.924 172.528 186.924 172.2V167.445C186.924 167.117 186.659 166.851 186.331 166.85H182.764ZM175.434 164.077C175.215 164.077 175.038 164.255 175.038 164.474V165.464C175.038 165.683 175.215 165.86 175.434 165.86H177.811C178.03 165.86 178.208 165.683 178.208 165.464V164.474C178.208 164.255 178.03 164.077 177.811 164.077H175.434ZM179.99 164.077C179.771 164.077 179.593 164.255 179.593 164.474V165.464C179.593 165.683 179.771 165.86 179.99 165.86H182.367C182.586 165.86 182.763 165.683 182.763 165.464V164.474C182.763 164.255 182.586 164.077 182.367 164.077H179.99ZM184.349 164.077C184.13 164.077 183.953 164.255 183.953 164.474V165.464C183.953 165.683 184.13 165.86 184.349 165.86H186.727C186.946 165.86 187.123 165.682 187.123 165.464V164.474C187.123 164.255 186.946 164.077 186.727 164.077H184.349Z" fill="url(#paint56_linear_188_240)"/>
<path fill-rule="evenodd" clip-rule="evenodd" d="M191.167 190.519C191.532 190.062 195.455 189.915 195.911 190.519C196.161 190.849 196.272 191.41 196.323 191.851H200.382C200.886 191.851 201.294 192.259 201.294 192.763V200.337C201.294 200.84 200.885 201.249 200.382 201.249H187.06C186.556 201.249 186.148 200.84 186.147 200.337V192.763C186.148 192.259 186.556 191.851 187.06 191.851H190.778C190.843 191.378 190.96 190.777 191.167 190.519ZM193.812 194.226C192.501 194.226 191.439 195.287 191.439 196.598C191.44 197.908 192.501 198.97 193.812 198.97C195.122 198.97 196.184 197.908 196.184 196.598C196.184 195.287 195.122 194.226 193.812 194.226Z" fill="url(#paint57_linear_188_240)"/>
<path d="M233.81 191.418C234.356 191.418 234.8 191.862 234.8 192.409V200.66C234.8 201.206 234.356 201.65 233.81 201.65H221.763C221.216 201.65 220.772 201.206 220.772 200.66V192.409C220.772 191.862 221.216 191.418 221.763 191.418H233.81ZM230.47 193.814C230.28 193.494 229.817 193.494 229.628 193.814L226.938 198.354L225.418 195.786C225.287 195.565 224.968 195.565 224.837 195.786L222.508 199.719C222.375 199.944 222.537 200.229 222.798 200.229H226.512C226.561 200.246 226.614 200.256 226.671 200.256H233.427C233.806 200.256 234.041 199.844 233.848 199.518L230.47 193.814ZM226.759 192.917C226.247 192.918 225.831 193.333 225.831 193.845C225.831 194.357 226.247 194.773 226.759 194.773C227.271 194.773 227.686 194.357 227.687 193.845C227.687 193.333 227.271 192.917 226.759 192.917Z" fill="url(#paint58_linear_188_240)"/>
<path d="M235.696 168.427V174.596C236.908 175.099 237.534 175.43 238.73 175.809C240.045 175.776 242.836 175.668 243.484 175.506C244.293 175.304 244.697 175.203 245.102 174.394C245.506 173.584 246.113 168.528 246.113 168.022C246.113 167.516 246.012 167.112 245.709 166.808C245.466 166.566 245.001 166.505 244.798 166.505C243.855 166.572 241.906 166.647 241.663 166.404C241.36 166.1 241.764 165.393 241.764 164.786C241.764 164.179 241.764 163.066 241.461 162.46C241.158 161.853 240.753 161.448 240.146 161.044C239.539 160.639 239.236 161.145 239.236 162.156C239.236 163.168 238.73 164.583 237.618 166.1C236.728 167.314 235.966 168.157 235.696 168.427Z" fill="url(#paint59_linear_188_240)"/>
<path d="M232.461 168.995C232.461 168.659 232.733 168.388 233.068 168.388H234.686C235.021 168.388 235.293 168.659 235.293 168.995V174.051C235.293 174.387 235.021 174.658 234.686 174.658H233.068C232.733 174.658 232.461 174.387 232.461 174.051V168.995Z" fill="url(#paint60_linear_188_240)"/>
<path d="M226.518 153.727L224.44 149.535C224.004 149.454 223.065 149.446 222.688 149.318C222.149 149.135 221.89 148.952 221.445 148.206C221.065 147.569 220.784 146.195 220.788 144.684C220.794 142.736 221.347 142.32 222.023 141.91L226.096 141.231C225.989 142.631 226.186 143.865 226.413 144.882C226.676 146.058 227.69 149.705 228.358 150.053C228.544 150.15 228.993 150.403 229.353 150.64C229.713 150.878 230.558 152.51 230.35 152.847C230.161 153.074 229.621 153.28 228.346 153.616C227.071 153.952 226.596 153.83 226.518 153.727Z" fill="url(#paint61_linear_188_240)"/>
<path fill-rule="evenodd" clip-rule="evenodd" d="M234.397 136.841C237.569 136.957 238.475 147.156 237.521 149.173C237.41 149.406 237.338 149.723 237.028 149.958C236.621 150.266 236.13 150.322 235.751 150.252C235.314 150.17 233.118 149.548 232.453 149.265C231.788 148.982 230.378 148.851 229.947 148.877C229.603 148.898 228.644 148.74 228.637 148.633C228.228 147.968 228.084 147.569 227.881 146.843C227.702 146.278 227.311 144.935 227.173 144.08C227.035 143.225 226.821 141.835 226.89 141.183C226.924 140.857 230.709 140.088 231.41 139.182C232.296 138.035 233.335 137.122 234.397 136.841ZM234.962 138.522C234.692 138.165 234.249 137.992 233.91 138.189C233.691 138.315 233.562 138.551 233.482 138.755C233.4 138.966 233.354 139.188 233.327 139.336L233.325 139.344L233.325 139.352C233.212 140.397 233.183 141.446 233.631 142.467L233.701 142.626L233.872 142.592C233.964 142.573 234.071 142.524 234.161 142.482C234.262 142.436 234.364 142.387 234.473 142.345C234.699 142.257 234.885 142.226 235.022 142.285C235.272 142.392 235.482 142.604 235.599 142.973C235.709 143.321 235.699 143.683 235.619 143.982C235.536 144.289 235.39 144.489 235.268 144.56C235.256 144.566 235.214 144.582 235.126 144.592C235.044 144.601 234.946 144.604 234.841 144.604C234.737 144.604 234.632 144.6 234.536 144.597C234.445 144.594 234.353 144.593 234.288 144.596L234.121 144.607L234.089 144.771C234.073 144.854 234.076 144.95 234.086 145.043C234.096 145.139 234.114 145.248 234.139 145.363C234.19 145.592 234.268 145.859 234.356 146.125C234.531 146.654 234.757 147.208 234.917 147.485C235.029 147.678 235.193 147.99 235.384 148.201C235.48 148.307 235.605 148.413 235.758 148.456C235.927 148.504 236.099 148.467 236.254 148.35C236.468 148.187 236.578 147.905 236.636 147.707C236.666 147.602 236.686 147.504 236.698 147.434C236.704 147.399 236.709 147.37 236.712 147.349C236.713 147.339 236.714 147.33 236.715 147.325C236.715 147.322 236.716 147.319 236.716 147.318L236.717 147.316L236.716 147.314L236.715 147.313C237.1 144.661 236.958 142.571 235.565 139.604L235.567 139.604L235.467 139.393L235.467 139.392L235.464 139.386L235.459 139.378C235.4 139.276 235.334 139.143 235.246 138.981C235.163 138.828 235.066 138.66 234.962 138.522ZM234.126 138.562C234.203 138.518 234.42 138.52 234.619 138.783C234.702 138.892 234.786 139.036 234.867 139.186C234.94 139.321 235.017 139.473 235.077 139.58L235.078 139.579L235.099 139.625C236.437 142.413 236.647 144.373 236.354 146.772L236.289 147.26L236.287 147.268L236.287 147.273C236.287 147.277 236.286 147.283 236.285 147.291C236.282 147.307 236.279 147.331 236.274 147.36C236.264 147.419 236.247 147.5 236.222 147.586C236.168 147.773 236.088 147.934 235.993 148.006C235.934 148.051 235.901 148.049 235.876 148.042C235.836 148.031 235.777 147.993 235.703 147.911C235.552 147.745 235.419 147.492 235.29 147.268C235.153 147.031 234.938 146.511 234.765 145.99C234.68 145.732 234.607 145.48 234.56 145.27C234.54 145.178 234.527 145.097 234.518 145.028C234.52 145.028 234.522 145.028 234.524 145.028C234.617 145.031 234.729 145.034 234.841 145.035C234.951 145.035 235.069 145.032 235.174 145.02C235.273 145.009 235.391 144.986 235.484 144.933C235.747 144.781 235.938 144.453 236.035 144.093C236.134 143.724 236.147 143.278 236.01 142.843C235.859 142.366 235.567 142.05 235.191 141.889C234.885 141.759 234.556 141.85 234.316 141.943C234.192 141.992 234.074 142.048 233.981 142.091C233.97 142.096 233.959 142.1 233.949 142.105C233.628 141.251 233.65 140.361 233.753 139.405C233.779 139.263 233.819 139.079 233.884 138.911C233.954 138.732 234.038 138.613 234.126 138.562Z" fill="url(#paint62_linear_188_240)"/>
<defs>
<linearGradient id="paint0_linear_188_240" x1="164.637" y1="172.273" x2="76.4508" y2="95.6242" gradientUnits="userSpaceOnUse">
<stop offset="0.593138" stop-color="#4BD1B7"/>
<stop offset="0.700879" stop-color="#7AE7B9"/>
<stop offset="0.784675" stop-color="#8FEDBD"/>
<stop offset="0.934429" stop-color="#C2F5B7"/>
</linearGradient>
<linearGradient id="paint1_linear_188_240" x1="163.164" y1="174.235" x2="125.822" y2="123.873" gradientUnits="userSpaceOnUse">
<stop offset="0.169191" stop-color="#2F60BC" stop-opacity="0.9"/>
<stop offset="0.499756" stop-color="#79B2E5" stop-opacity="0.6"/>
<stop offset="0.649773" stop-color="#82C3E8" stop-opacity="0.5"/>
<stop offset="0.919072" stop-color="#8AD3EA" stop-opacity="0"/>
</linearGradient>
<linearGradient id="paint2_linear_188_240" x1="159.724" y1="166.622" x2="70.5461" y2="104.223" gradientUnits="userSpaceOnUse">
<stop offset="0.0463599" stop-color="#2D9C84"/>
<stop offset="0.166875" stop-color="#56D7B3"/>
<stop offset="0.341378" stop-color="#AAF7D7"/>
<stop offset="0.599957" stop-color="#F6FDF9"/>
<stop offset="0.7453" stop-color="#F6FDF9" stop-opacity="0.976471"/>
<stop offset="0.933182" stop-color="#E3FCD4"/>
</linearGradient>
<linearGradient id="paint3_linear_188_240" x1="157.023" y1="176.203" x2="72.7092" y2="102.994" gradientUnits="userSpaceOnUse">
<stop stop-color="#00347F"/>
<stop offset="0.236352" stop-color="#055D8B"/>
<stop offset="0.55659" stop-color="#07898C"/>
<stop offset="0.743206" stop-color="#16A88D"/>
<stop offset="1" stop-color="#57C49C"/>
</linearGradient>
<linearGradient id="paint4_linear_188_240" x1="210.713" y1="120.256" x2="210.713" y2="327.591" gradientUnits="userSpaceOnUse">
<stop offset="0.0771858" stop-color="#16A187"/>
<stop offset="0.191481" stop-color="#29C4A2"/>
<stop offset="0.308524" stop-color="#59D7C2"/>
<stop offset="0.394061" stop-color="#89EFE2"/>
<stop offset="0.483678" stop-color="#8EEDE6"/>
<stop offset="0.576245" stop-color="#92DEEC"/>
<stop offset="0.688263" stop-color="#81C7E9"/>
<stop offset="0.773648" stop-color="#78AFE5"/>
<stop offset="0.858944" stop-color="#598FD7"/>
<stop offset="0.929472" stop-color="#4478CA"/>
<stop offset="1" stop-color="#2F60BC"/>
</linearGradient>
<linearGradient id="paint5_linear_188_240" x1="275.489" y1="322.556" x2="210.042" y2="244.19" gradientUnits="userSpaceOnUse">
<stop stop-color="#2F60BC"/>
<stop offset="0.297283" stop-color="#9BC5F3"/>
<stop offset="0.580086" stop-color="#AEDAF8"/>
<stop offset="0.757014" stop-color="#87CFEA"/>
</linearGradient>
<linearGradient id="paint6_linear_188_240" x1="275.489" y1="322.556" x2="210.042" y2="244.19" gradientUnits="userSpaceOnUse">
<stop stop-color="#2F60BC"/>
<stop offset="0.297283" stop-color="#9BC5F3"/>
<stop offset="0.580086" stop-color="#AEDAF8"/>
<stop offset="0.757014" stop-color="#87CFEA"/>
</linearGradient>
<linearGradient id="paint7_linear_188_240" x1="210.849" y1="327.654" x2="210.849" y2="281.859" gradientUnits="userSpaceOnUse">
<stop stop-color="#162C56"/>
<stop offset="1" stop-color="#11559C"/>
</linearGradient>
<linearGradient id="paint8_linear_188_240" x1="127.232" y1="288.99" x2="180.56" y2="225.19" gradientUnits="userSpaceOnUse">
<stop offset="0.0832449" stop-color="#00347F"/>
<stop offset="0.352553" stop-color="#055D8B"/>
<stop offset="0.658124" stop-color="#07898C"/>
<stop offset="0.941441" stop-color="#16A88D"/>
</linearGradient>
<linearGradient id="paint9_linear_188_240" x1="128.86" y1="279.198" x2="166.968" y2="222.704" gradientUnits="userSpaceOnUse">
<stop stop-color="#4B86CA"/>
<stop offset="0.309049" stop-color="#61C7D6"/>
<stop offset="0.573235" stop-color="#B5F2E7"/>
<stop offset="0.744859" stop-color="#E1FBF4"/>
<stop offset="0.891364" stop-color="#DEFAF3"/>
<stop offset="1" stop-color="#7BE6B8"/>
</linearGradient>
<linearGradient id="paint10_linear_188_240" x1="294.854" y1="289.493" x2="241.526" y2="225.693" gradientUnits="userSpaceOnUse">
<stop offset="0.0832449" stop-color="#00347F"/>
<stop offset="0.352553" stop-color="#055D8B"/>
<stop offset="0.658124" stop-color="#07898C"/>
<stop offset="0.941441" stop-color="#16A88D"/>
</linearGradient>
<linearGradient id="paint11_linear_188_240" x1="293.227" y1="279.703" x2="255.12" y2="223.21" gradientUnits="userSpaceOnUse">
<stop stop-color="#4B86CA"/>
<stop offset="0.309049" stop-color="#61C7D6"/>
<stop offset="0.573235" stop-color="#B5F2E7"/>
<stop offset="0.744859" stop-color="#E1FBF4"/>
<stop offset="0.891364" stop-color="#DEFAF3"/>
<stop offset="1" stop-color="#7BE6B8"/>
</linearGradient>
<linearGradient id="paint12_linear_188_240" x1="210.714" y1="330.611" x2="211.218" y2="310.733" gradientUnits="userSpaceOnUse">
<stop stop-color="#1350A8"/>
<stop offset="1" stop-color="#76C3EE"/>
</linearGradient>
<linearGradient id="paint13_linear_188_240" x1="210.714" y1="350.488" x2="210.714" y2="336.9" gradientUnits="userSpaceOnUse">
<stop stop-color="#073185"/>
</linearGradient>
<linearGradient id="paint14_linear_188_240" x1="210.714" y1="328.598" x2="210.714" y2="304.191" gradientUnits="userSpaceOnUse">
<stop stop-color="#1660CA"/>
<stop offset="0.335408" stop-color="#539BE4"/>
<stop offset="0.651811" stop-color="#8DCAF0"/>
<stop offset="0.918255" stop-color="#C7F8FC"/>
</linearGradient>
<linearGradient id="paint15_linear_188_240" x1="246.868" y1="369.015" x2="251.658" y2="337.063" gradientUnits="userSpaceOnUse">
<stop stop-color="#5E93D7"/>
<stop offset="1" stop-color="#AAD7FB"/>
</linearGradient>
<linearGradient id="paint16_linear_188_240" x1="250.131" y1="371.374" x2="263.235" y2="341.704" gradientUnits="userSpaceOnUse">
<stop stop-color="#002762"/>
<stop offset="1" stop-color="#3269AD"/>
</linearGradient>
<linearGradient id="paint17_linear_188_240" x1="240.842" y1="376.566" x2="248.906" y2="356.701" gradientUnits="userSpaceOnUse">
<stop offset="0.226429" stop-color="#2B59AE"/>
<stop offset="1" stop-color="#4484CB" stop-opacity="0"/>
</linearGradient>
<linearGradient id="paint18_linear_188_240" x1="174.824" y1="369.015" x2="170.034" y2="337.063" gradientUnits="userSpaceOnUse">
<stop stop-color="#5E93D7"/>
<stop offset="1" stop-color="#AAD7FB"/>
</linearGradient>
<linearGradient id="paint19_linear_188_240" x1="171.56" y1="371.374" x2="158.457" y2="341.704" gradientUnits="userSpaceOnUse">
<stop stop-color="#002762"/>
<stop offset="1" stop-color="#3269AD"/>
</linearGradient>
<linearGradient id="paint20_linear_188_240" x1="180.85" y1="376.566" x2="172.786" y2="356.701" gradientUnits="userSpaceOnUse">
<stop offset="0.226429" stop-color="#2B59AE"/>
<stop offset="1" stop-color="#4484CB" stop-opacity="0"/>
</linearGradient>
<linearGradient id="paint21_linear_188_240" x1="210.749" y1="327.654" x2="210.749" y2="281.859" gradientUnits="userSpaceOnUse">
<stop stop-color="#162C56"/>
<stop offset="1" stop-color="#11559C"/>
</linearGradient>
<linearGradient id="paint22_linear_188_240" x1="255.831" y1="172.73" x2="344.017" y2="96.0818" gradientUnits="userSpaceOnUse">
<stop offset="0.593138" stop-color="#4BD1B7"/>
<stop offset="0.700879" stop-color="#7AE7B9"/>
<stop offset="0.784675" stop-color="#8FEDBD"/>
<stop offset="0.934429" stop-color="#C2F5B7"/>
</linearGradient>
<linearGradient id="paint23_linear_188_240" x1="257.305" y1="174.695" x2="294.647" y2="124.333" gradientUnits="userSpaceOnUse">
<stop offset="0.169191" stop-color="#2F60BC" stop-opacity="0.9"/>
<stop offset="0.499756" stop-color="#79B2E5" stop-opacity="0.6"/>
<stop offset="0.649773" stop-color="#82C3E8" stop-opacity="0.5"/>
<stop offset="0.919072" stop-color="#8AD3EA" stop-opacity="0"/>
</linearGradient>
<linearGradient id="paint24_linear_188_240" x1="260.744" y1="167.08" x2="349.922" y2="104.68" gradientUnits="userSpaceOnUse">
<stop offset="0.0463599" stop-color="#2D9C84"/>
<stop offset="0.166875" stop-color="#56D7B3"/>
<stop offset="0.341378" stop-color="#AAF7D7"/>
<stop offset="0.599957" stop-color="#F6FDF9"/>
<stop offset="0.7453" stop-color="#F6FDF9" stop-opacity="0.976471"/>
<stop offset="0.933182" stop-color="#E3FCD4"/>
</linearGradient>
<linearGradient id="paint25_linear_188_240" x1="263.446" y1="176.661" x2="347.759" y2="103.452" gradientUnits="userSpaceOnUse">
<stop stop-color="#00347F"/>
<stop offset="0.236352" stop-color="#055D8B"/>
<stop offset="0.55659" stop-color="#07898C"/>
<stop offset="0.743206" stop-color="#16A88D"/>
<stop offset="1" stop-color="#57C49C"/>
</linearGradient>
<linearGradient id="paint26_linear_188_240" x1="137.438" y1="203.959" x2="37.051" y2="217.709" gradientUnits="userSpaceOnUse">
<stop stop-color="#44C2CA"/>
<stop offset="0.221727" stop-color="#41C1C5"/>
<stop offset="0.423772" stop-color="#3AD1B4"/>
<stop offset="0.645964" stop-color="#59DCB0"/>
<stop offset="1" stop-color="#17C193"/>
</linearGradient>
<linearGradient id="paint27_linear_188_240" x1="141.498" y1="197.557" x2="44.2067" y2="188.841" gradientUnits="userSpaceOnUse">
<stop stop-color="#56D1B4"/>
<stop offset="0.31994" stop-color="#CBF9E7"/>
<stop offset="0.660711" stop-color="#F0FEF4"/>
<stop offset="0.888965" stop-color="#ACF3C9"/>
</linearGradient>
<linearGradient id="paint28_linear_188_240" x1="138.453" y1="227.97" x2="28.4838" y2="225.249" gradientUnits="userSpaceOnUse">
<stop stop-color="#00347F"/>
<stop offset="0.261165" stop-color="#055D8B"/>
<stop offset="0.636627" stop-color="#07898C"/>
<stop offset="1" stop-color="#16A88D"/>
</linearGradient>
<linearGradient id="paint29_linear_188_240" x1="144.542" y1="216.714" x2="28.4712" y2="216.714" gradientUnits="userSpaceOnUse">
<stop stop-color="#A6FAFF"/>
<stop offset="1" stop-color="white"/>
</linearGradient>
<linearGradient id="paint30_linear_188_240" x1="242.914" y1="179.403" x2="242.914" y2="262.915" gradientUnits="userSpaceOnUse">
<stop stop-color="#7AB4E6"/>
<stop offset="0.25" stop-color="#5E95D9"/>
<stop offset="0.5" stop-color="#295EA0"/>
<stop offset="1" stop-color="#002762"/>
</linearGradient>
<linearGradient id="paint31_linear_188_240" x1="285.076" y1="203.96" x2="385.463" y2="217.71" gradientUnits="userSpaceOnUse">
<stop stop-color="#44C2CA"/>
<stop offset="0.221727" stop-color="#41C1C5"/>
<stop offset="0.423772" stop-color="#3AD1B4"/>
<stop offset="0.645964" stop-color="#59DCB0"/>
<stop offset="1" stop-color="#17C193"/>
</linearGradient>
<linearGradient id="paint32_linear_188_240" x1="281.016" y1="197.558" x2="378.307" y2="188.842" gradientUnits="userSpaceOnUse">
<stop stop-color="#56D1B4"/>
<stop offset="0.31994" stop-color="#CBF9E7"/>
<stop offset="0.660711" stop-color="#F0FEF4"/>
<stop offset="0.888965" stop-color="#ACF3C9"/>
</linearGradient>
<linearGradient id="paint33_linear_188_240" x1="284.061" y1="227.971" x2="394.03" y2="225.25" gradientUnits="userSpaceOnUse">
<stop stop-color="#00347F"/>
<stop offset="0.261165" stop-color="#055D8B"/>
<stop offset="0.636627" stop-color="#07898C"/>
<stop offset="1" stop-color="#16A88D"/>
</linearGradient>
<linearGradient id="paint34_linear_188_240" x1="277.971" y1="216.715" x2="394.043" y2="216.715" gradientUnits="userSpaceOnUse">
<stop stop-color="#A6FAFF"/>
<stop offset="1" stop-color="white"/>
</linearGradient>
<linearGradient id="paint35_linear_188_240" x1="145.434" y1="323.817" x2="210.882" y2="245.451" gradientUnits="userSpaceOnUse">
<stop stop-color="#2F60BC"/>
<stop offset="0.297283" stop-color="#9BC5F3"/>
<stop offset="0.580086" stop-color="#AEDAF8"/>
<stop offset="0.757014" stop-color="#87CFEA"/>
</linearGradient>
<linearGradient id="paint36_linear_188_240" x1="145.434" y1="323.817" x2="210.882" y2="245.451" gradientUnits="userSpaceOnUse">
<stop stop-color="#2F60BC"/>
<stop offset="0.297283" stop-color="#9BC5F3"/>
<stop offset="0.580086" stop-color="#AEDAF8"/>
<stop offset="0.757014" stop-color="#87CFEA"/>
</linearGradient>
<linearGradient id="paint37_linear_188_240" x1="178.543" y1="179.406" x2="178.543" y2="262.919" gradientUnits="userSpaceOnUse">
<stop stop-color="#7AB4E6"/>
<stop offset="0.25" stop-color="#5E95D9"/>
<stop offset="0.5" stop-color="#295EA0"/>
<stop offset="1" stop-color="#002762"/>
</linearGradient>
<linearGradient id="paint38_linear_188_240" x1="209.938" y1="117.492" x2="209.442" y2="72.9554" gradientUnits="userSpaceOnUse">
<stop stop-color="#0D9087"/>
<stop offset="0.402348" stop-color="#1CC0A5"/>
<stop offset="0.759515" stop-color="#89E9CD"/>
<stop offset="1" stop-color="#CCF8E7"/>
</linearGradient>
<linearGradient id="paint39_linear_188_240" x1="209.444" y1="73.9618" x2="209.405" y2="64.6519" gradientUnits="userSpaceOnUse">
<stop stop-color="#C4F5E0"/>
<stop offset="1" stop-color="#F3FFFF"/>
</linearGradient>
<linearGradient id="paint40_linear_188_240" x1="210.448" y1="125.545" x2="210.448" y2="81.7629" gradientUnits="userSpaceOnUse">
<stop stop-color="#33B6A0"/>
<stop offset="0.388465" stop-color="#82EACC"/>
<stop offset="0.897525" stop-color="#DBFCE9"/>
</linearGradient>
<linearGradient id="paint41_linear_188_240" x1="210.448" y1="125.545" x2="210.448" y2="81.7629" gradientUnits="userSpaceOnUse">
<stop stop-color="#33B6A0"/>
<stop offset="0.388465" stop-color="#82EACC"/>
<stop offset="0.897525" stop-color="#DBFCE9"/>
</linearGradient>
<linearGradient id="paint42_linear_188_240" x1="210.448" y1="97.1115" x2="210.448" y2="43.2646" gradientUnits="userSpaceOnUse">
<stop stop-color="#00957C"/>
<stop offset="0.332644" stop-color="#2FBC99"/>
<stop offset="0.676325" stop-color="#9CEBD1"/>
<stop offset="1" stop-color="#D9FAE7"/>
</linearGradient>
<linearGradient id="paint43_linear_188_240" x1="210.448" y1="135.862" x2="210.448" y2="88.616" gradientUnits="userSpaceOnUse">
<stop stop-color="#01585F"/>
<stop offset="0.3" stop-color="#026D74"/>
<stop offset="0.5" stop-color="#00807B"/>
<stop offset="0.7" stop-color="#04A387"/>
<stop offset="0.9375" stop-color="#04A387"/>
<stop offset="1" stop-color="#35C39D"/>
</linearGradient>
<linearGradient id="paint44_linear_188_240" x1="255.832" y1="172.732" x2="344.018" y2="96.083" gradientUnits="userSpaceOnUse">
<stop offset="0.593138" stop-color="#4BD1B7"/>
<stop offset="0.700879" stop-color="#7AE7B9"/>
<stop offset="0.784675" stop-color="#8FEDBD"/>
<stop offset="0.934429" stop-color="#C2F5B7"/>
</linearGradient>
<linearGradient id="paint45_linear_188_240" x1="257.306" y1="174.697" x2="294.647" y2="124.334" gradientUnits="userSpaceOnUse">
<stop offset="0.169191" stop-color="#2F60BC" stop-opacity="0.9"/>
<stop offset="0.499756" stop-color="#79B2E5" stop-opacity="0.6"/>
<stop offset="0.649773" stop-color="#82C3E8" stop-opacity="0.5"/>
<stop offset="0.919072" stop-color="#8AD3EA" stop-opacity="0"/>
</linearGradient>
<linearGradient id="paint46_linear_188_240" x1="260.745" y1="167.081" x2="349.923" y2="104.681" gradientUnits="userSpaceOnUse">
<stop offset="0.0463599" stop-color="#2D9C84"/>
<stop offset="0.166875" stop-color="#56D7B3"/>
<stop offset="0.341378" stop-color="#AAF7D7"/>
<stop offset="0.599957" stop-color="#F6FDF9"/>
<stop offset="0.7453" stop-color="#F6FDF9" stop-opacity="0.976471"/>
<stop offset="0.933182" stop-color="#E3FCD4"/>
</linearGradient>
<linearGradient id="paint47_linear_188_240" x1="263.446" y1="176.662" x2="347.759" y2="103.453" gradientUnits="userSpaceOnUse">
<stop stop-color="#00347F"/>
<stop offset="0.236352" stop-color="#055D8B"/>
<stop offset="0.55659" stop-color="#07898C"/>
<stop offset="0.743206" stop-color="#16A88D"/>
<stop offset="1" stop-color="#57C49C"/>
</linearGradient>
<linearGradient id="paint48_linear_188_240" x1="262.611" y1="175.385" x2="203.689" y2="245.162" gradientUnits="userSpaceOnUse">
<stop stop-color="#8FDFEA"/>
<stop offset="0.5" stop-color="#80C1E7"/>
<stop offset="1" stop-color="#77B0E4"/>
</linearGradient>
<linearGradient id="paint49_linear_188_240" x1="285.076" y1="203.958" x2="385.463" y2="217.707" gradientUnits="userSpaceOnUse">
<stop stop-color="#44C2CA"/>
<stop offset="0.221727" stop-color="#41C1C5"/>
<stop offset="0.423772" stop-color="#3AD1B4"/>
<stop offset="0.645964" stop-color="#59DCB0"/>
<stop offset="1" stop-color="#17C193"/>
</linearGradient>
<linearGradient id="paint50_linear_188_240" x1="281.016" y1="197.556" x2="378.307" y2="188.84" gradientUnits="userSpaceOnUse">
<stop stop-color="#56D1B4"/>
<stop offset="0.31994" stop-color="#CBF9E7"/>
<stop offset="0.660711" stop-color="#F0FEF4"/>
<stop offset="0.888965" stop-color="#ACF3C9"/>
</linearGradient>
<linearGradient id="paint51_linear_188_240" x1="284.061" y1="227.969" x2="394.03" y2="225.248" gradientUnits="userSpaceOnUse">
<stop stop-color="#00347F"/>
<stop offset="0.261165" stop-color="#055D8B"/>
<stop offset="0.636627" stop-color="#07898C"/>
<stop offset="1" stop-color="#16A88D"/>
</linearGradient>
<linearGradient id="paint52_linear_188_240" x1="277.971" y1="216.713" x2="394.043" y2="216.713" gradientUnits="userSpaceOnUse">
<stop stop-color="#A6FAFF"/>
<stop offset="1" stop-color="white"/>
</linearGradient>
<linearGradient id="paint53_linear_188_240" x1="155.103" y1="174.35" x2="212.992" y2="239.992" gradientUnits="userSpaceOnUse">
<stop stop-color="#91E3EA"/>
<stop offset="0.25" stop-color="#88D2E9"/>
<stop offset="1" stop-color="#75ABE3"/>
</linearGradient>
<linearGradient id="paint54_linear_188_240" x1="210.866" y1="152.974" x2="210.93" y2="199.798" gradientUnits="userSpaceOnUse">
<stop stop-color="#00AD8B"/>
<stop offset="1" stop-color="#002444"/>
</linearGradient>
<linearGradient id="paint55_linear_188_240" x1="190.229" y1="144.464" x2="204.779" y2="138.597" gradientUnits="userSpaceOnUse">
<stop stop-color="#6C9ADD"/>
<stop offset="1" stop-color="#00AD8B"/>
</linearGradient>
<linearGradient id="paint56_linear_188_240" x1="182.07" y1="155.062" x2="181.377" y2="177.252" gradientUnits="userSpaceOnUse">
<stop stop-color="#00AD8B"/>
<stop offset="1" stop-color="#6C9ADD"/>
</linearGradient>
<linearGradient id="paint57_linear_188_240" x1="193.739" y1="190.221" x2="193.739" y2="213.322" gradientUnits="userSpaceOnUse">
<stop stop-color="#6C9ADD"/>
<stop offset="1" stop-color="#00AD8B"/>
</linearGradient>
<linearGradient id="paint58_linear_188_240" x1="210.128" y1="192.904" x2="217.307" y2="215.924" gradientUnits="userSpaceOnUse">
<stop stop-color="#6C9ADD"/>
<stop offset="1" stop-color="#00AD8B"/>
</linearGradient>
<linearGradient id="paint59_linear_188_240" x1="240.905" y1="160.904" x2="241.461" y2="182.85" gradientUnits="userSpaceOnUse">
<stop stop-color="#6C9ADD"/>
<stop offset="1" stop-color="#00AD8B"/>
</linearGradient>
<linearGradient id="paint60_linear_188_240" x1="236.911" y1="166.365" x2="229.022" y2="174.051" gradientUnits="userSpaceOnUse">
<stop stop-color="#6C9ADD"/>
<stop offset="1" stop-color="#00AD8B"/>
</linearGradient>
<linearGradient id="paint61_linear_188_240" x1="227.051" y1="141.173" x2="224.327" y2="156.774" gradientUnits="userSpaceOnUse">
<stop stop-color="#6C9ADD"/>
<stop offset="1" stop-color="#00AD8B"/>
</linearGradient>
<linearGradient id="paint62_linear_188_240" x1="231.826" y1="136.997" x2="227.037" y2="156.069" gradientUnits="userSpaceOnUse">
<stop stop-color="#6C9ADD"/>
<stop offset="1" stop-color="#00AD8B"/>
</linearGradient>
</defs>
</svg>
